STARTFONT 2.3
FONT -FontForge-Courgette-Book-R-Normal--32-320-72-72-P-166-ISO10646-1
SIZE 32 72 72  2
FONTBOUNDINGBOX 42 41 -6 -9
COMMENT "Generated by fontforge, http://fontforge.sourceforge.net"
COMMENT "Copyright (c) 2012, Sorkin Type Co (www.sorkintype.com) with Reserved Font Name "Courgette"."
STARTPROPERTIES 41
FOUNDRY "FontForge"
FAMILY_NAME "Courgette"
WEIGHT_NAME "Book"
SLANT "R"
SETWIDTH_NAME "Normal"
ADD_STYLE_NAME ""
PIXEL_SIZE 32
POINT_SIZE 320
RESOLUTION_X 72
RESOLUTION_Y 72
SPACING "P"
AVERAGE_WIDTH 166
CHARSET_REGISTRY "ISO10646"
CHARSET_ENCODING "1"
FONTNAME_REGISTRY ""
CHARSET_COLLECTIONS "ISO8859-2 ISO8859-9 ISO8859-4 ISO10646-1"
BITS_PER_PIXEL 2
FONT_NAME "Courgette-Regular"
FACE_NAME "Courgette Regular"
COPYRIGHT "Copyright (c) 2012, Sorkin Type Co (www.sorkintype.com) with Reserved Font Name "Courgette"."
FONT_VERSION "1.002"
FONT_ASCENT 26
FONT_DESCENT 6
UNDERLINE_POSITION -3
UNDERLINE_THICKNESS 2
X_HEIGHT 15
CAP_HEIGHT 23
DEFAULT_CHAR 1
RAW_ASCENT 799
RAW_DESCENT 200
NORM_SPACE 10
RELATIVE_WEIGHT 40
RELATIVE_SETWIDTH 50
SUPERSCRIPT_X 0
SUPERSCRIPT_Y 15
SUPERSCRIPT_SIZE 20
SUBSCRIPT_X 0
SUBSCRIPT_Y 4
SUBSCRIPT_SIZE 20
AVG_LOWERCASE_WIDTH 160
AVG_UPPERCASE_WIDTH 188
ENDPROPERTIES
CHARS 407
STARTCHAR .null.dup1
ENCODING 0
SWIDTH 0 0
DWIDTH 0 0
BBX 1 1 0 0
BITMAP
00
ENDCHAR
STARTCHAR uni0001
ENCODING 1
SWIDTH 0 0
DWIDTH 0 0
BBX 1 1 0 0
BITMAP
00
ENDCHAR
STARTCHAR uni0002
ENCODING 2
SWIDTH 0 0
DWIDTH 0 0
BBX 1 1 0 0
BITMAP
00
ENDCHAR
STARTCHAR uni0003
ENCODING 3
SWIDTH 0 0
DWIDTH 0 0
BBX 1 1 0 0
BITMAP
00
ENDCHAR
STARTCHAR uni0004
ENCODING 4
SWIDTH 0 0
DWIDTH 0 0
BBX 1 1 0 0
BITMAP
00
ENDCHAR
STARTCHAR uni0005
ENCODING 5
SWIDTH 0 0
DWIDTH 0 0
BBX 1 1 0 0
BITMAP
00
ENDCHAR
STARTCHAR uni0006
ENCODING 6
SWIDTH 0 0
DWIDTH 0 0
BBX 1 1 0 0
BITMAP
00
ENDCHAR
STARTCHAR uni0007
ENCODING 7
SWIDTH 0 0
DWIDTH 0 0
BBX 1 1 0 0
BITMAP
00
ENDCHAR
STARTCHAR uni0008
ENCODING 8
SWIDTH 0 0
DWIDTH 0 0
BBX 1 1 0 0
BITMAP
00
ENDCHAR
STARTCHAR uni0009
ENCODING 9
SWIDTH 0 0
DWIDTH 0 0
BBX 1 1 0 0
BITMAP
00
ENDCHAR
STARTCHAR nonmarkingreturn
ENCODING 13
SWIDTH 0 0
DWIDTH 0 0
BBX 1 1 0 0
BITMAP
00
ENDCHAR
STARTCHAR uni0015
ENCODING 21
SWIDTH 0 0
DWIDTH 0 0
BBX 1 1 0 0
BITMAP
00
ENDCHAR
STARTCHAR uni0016
ENCODING 22
SWIDTH 0 0
DWIDTH 0 0
BBX 1 1 0 0
BITMAP
00
ENDCHAR
STARTCHAR uni0017
ENCODING 23
SWIDTH 0 0
DWIDTH 0 0
BBX 1 1 0 0
BITMAP
00
ENDCHAR
STARTCHAR uni0018
ENCODING 24
SWIDTH 0 0
DWIDTH 0 0
BBX 1 1 0 0
BITMAP
00
ENDCHAR
STARTCHAR uni0019
ENCODING 25
SWIDTH 0 0
DWIDTH 0 0
BBX 1 1 0 0
BITMAP
00
ENDCHAR
STARTCHAR space
ENCODING 32
SWIDTH 307 0
DWIDTH 10 0
BBX 1 1 0 0
BITMAP
00
ENDCHAR
STARTCHAR exclam
ENCODING 33
SWIDTH 417 0
DWIDTH 13 0
BBX 13 25 2 -1
BITMAP
00002F40
0000FF40
0002FE00
0007FC00
000BF800
001FF000
002FD000
003FC000
007F4000
00BF0000
00FD0000
01FC0000
01F80000
02F40000
02E00000
03D00000
03C00000
02800000
00000000
05000000
3FD00000
7FE00000
7FD00000
2F800000
05000000
ENDCHAR
STARTCHAR quotedbl
ENCODING 34
SWIDTH 437 0
DWIDTH 14 0
BBX 13 8 4 18
BITMAP
0BE06F40
1FE0FF40
3FC1FD00
7F42F800
7E03F000
BC03E000
B403C000
60024000
ENDCHAR
STARTCHAR numbersign
ENCODING 35
SWIDTH 725 0
DWIDTH 23 0
BBX 21 24 2 0
BITMAP
000007C02D00
00000FC0FC00
00001F81F800
00003F02F400
00007E03F000
0000BD07E000
0000FC0BD000
0001F80F8000
07FFFFFFFF80
0FFFFFFFFF80
0BFFFFFFFA00
0007D07D0000
000BC07C0000
000F80BC0000
001F40F80000
7FFFFFFFF800
FFFFFFFFF800
BFFFFFFF9000
00BC07C00000
00F80B800000
01F00F400000
02E01F000000
03D02E000000
078038000000
ENDCHAR
STARTCHAR dollar
ENCODING 36
SWIDTH 545 0
DWIDTH 17 0
BBX 17 33 2 -4
BITMAP
0000000500
0000001F40
0000003E00
0000007D00
000000F800
00006FF400
0007FEFD00
001FD03F00
007F001F40
00FD001F80
02F8001F80
03F4003F80
07F400BF40
07F401FF00
07F807FD00
07FC0BF400
03FE015000
02FF400000
00FF800000
007FD00000
002FF00000
000BF40000
1803F80000
BC02F80000
FC01F80000
FC01F40000
FE07E00000
7FFF800000
1FF9000000
0F40000000
1F00000000
2E00000000
2D00000000
ENDCHAR
STARTCHAR percent
ENCODING 37
SWIDTH 876 0
DWIDTH 28 0
BBX 24 24 2 0
BITMAP
006F900000B8
02FFF40002F4
0BF0FC000BE0
1FC0BD002F80
3F80FD007F00
7F01FC01FD00
7E01FC03F400
BE03F40BE000
BD0BE02F8000
7E1FC0BE0000
2FFE01FC0000
06A407F40000
00000FD01A90
00002F40BFF8
0000BE02F8BD
0001F80BE07E
0007F01FC07E
001FD02F80BE
003F403F40FD
00BD003F01FC
02F8003F03F4
07E0002F0BE0
0F80001FFF80
1E000006F900
ENDCHAR
STARTCHAR ampersand
ENCODING 38
SWIDTH 563 0
DWIDTH 18 0
BBX 18 24 1 0
BITMAP
00006FF800
0007FFBF00
002FE40B80
00BF8007C0
02FE000BD0
03F8002FC0
07F400BF80
0BF007FF00
0BE007F800
07E0019000
03F9900000
00BFF80000
01FFE40000
07FE000000
1FF4040040
3FD07FFFC0
7F407FFF40
BF001FF900
FE000F8000
FE000F8000
BE002F4000
7F40BD0000
2FFFF40000
06FE400000
ENDCHAR
STARTCHAR quotesingle
ENCODING 39
SWIDTH 231 0
DWIDTH 7 0
BBX 6 8 4 18
BITMAP
0BE0
1FE0
3FC0
7F40
7E00
BC00
B400
6000
ENDCHAR
STARTCHAR parenleft
ENCODING 40
SWIDTH 478 0
DWIDTH 15 0
BBX 17 36 3 -8
BITMAP
0000001B40
000000BD00
000007F400
00001FC000
00007F0000
0001FC0000
0003F40000
000BD00000
002F800000
007F400000
00BE000000
01FC000000
02F8000000
07F0000000
0BE0000000
0FD0000000
1FC0000000
2F80000000
3F80000000
3F40000000
7F40000000
7F00000000
7F00000000
7F00000000
7F00000000
7F00000000
7F00000000
3F00000000
3F40000000
2F80000000
1FC0000000
0BD0000000
07E0000000
02F4000000
00FD000000
002E000000
ENDCHAR
STARTCHAR parenright
ENCODING 41
SWIDTH 478 0
DWIDTH 15 0
BBX 16 36 -3 -8
BITMAP
00007800
00007F00
00001FC0
00000BD0
000003F0
000002F4
000001F8
000001FC
000000FD
000000FD
000000FE
000000BE
000000FE
000000FE
000000FD
000000FD
000001FD
000001FC
000002F8
000003F4
000007F0
00000BE0
00000FD0
00001FC0
00003F40
00007F00
0000FD00
0002F800
0007F000
000FD000
003F4000
00BD0000
02F40000
0FD00000
7E000000
E4000000
ENDCHAR
STARTCHAR asterisk
ENCODING 42
SWIDTH 518 0
DWIDTH 17 0
BBX 12 12 4 12
BITMAP
000BD0
002FD0
143F40
383E00
3E7C7E
1FBBFF
0BFFA5
03FD00
0FAF00
3E0FC0
B407D0
500280
ENDCHAR
STARTCHAR plus
ENCODING 43
SWIDTH 617 0
DWIDTH 20 0
BBX 16 16 2 4
BITMAP
0001C000
0003D000
0003D000
0003D000
0003D000
0003D000
0003D000
6AABEAAA
BFFFFFFE
0003D000
0003D000
0003D000
0003D000
0003D000
0003C000
00038000
ENDCHAR
STARTCHAR comma
ENCODING 44
SWIDTH 312 0
DWIDTH 10 0
BBX 6 9 0 -5
BITMAP
0B90
2FF0
1FF0
0BF0
0BE0
0BC0
1F40
7D00
E400
ENDCHAR
STARTCHAR hyphen
ENCODING 45
SWIDTH 452 0
DWIDTH 14 0
BBX 10 3 2 8
BITMAP
1BFFE0
3FFFF0
7FFFD0
ENDCHAR
STARTCHAR period
ENCODING 46
SWIDTH 270 0
DWIDTH 9 0
BBX 6 5 0 0
BITMAP
1F80
3FE0
7FE0
3FD0
0A40
ENDCHAR
STARTCHAR slash
ENCODING 47
SWIDTH 405 0
DWIDTH 13 0
BBX 22 34 -3 -5
BITMAP
000000000140
0000000007D0
000000000FC0
000000002F40
000000007E00
00000000FD00
00000001F800
00000003F000
0000000BD000
0000000FC000
0000002F4000
0000007E0000
000000BD0000
000001F80000
000003F00000
00000BD00000
00000FC00000
00002F400000
00007E000000
0000BD000000
0001F8000000
0003F0000000
0007D0000000
000FC0000000
002F40000000
007E00000000
00BD00000000
01F800000000
03F000000000
07D000000000
0FC000000000
2F4000000000
7E0000000000
780000000000
ENDCHAR
STARTCHAR zero
ENCODING 48
SWIDTH 621 0
DWIDTH 20 0
BBX 18 24 2 0
BITMAP
000006F900
0000BFFF80
0002F90BD0
000BE007E0
002F8003F0
00BF4007F0
01FD0007F0
03FC0007F0
07F4000BE0
0FF0000FE0
1FD0001FD0
2FC0002FC0
3F80003F80
7F40007F40
7F0000FF00
BE0001FE00
BE0003FC00
FD0007F400
FD000FE000
BD002FC000
BD00BF4000
7E02FC0000
2FFFE00000
06FE400000
ENDCHAR
STARTCHAR one
ENCODING 49
SWIDTH 405 0
DWIDTH 13 0
BBX 11 24 2 0
BITMAP
0001E4
000BFC
002FFC
01FFFC
0BFFF8
0B93F4
0007F0
000BE0
000FD0
001FC0
002F80
003F40
007F00
00BD00
00FC00
01F800
03F000
07E000
0BC000
0F8000
2F0000
3D0000
780000
A00000
ENDCHAR
STARTCHAR two
ENCODING 50
SWIDTH 524 0
DWIDTH 17 0
BBX 17 24 0 0
BITMAP
00006FE400
0002FEFE00
000BE02F40
002F800F80
007F400FC0
00BF000FC0
00BF001FC0
00BF803F80
007F80BF40
001A01FE00
000007FD00
00001FF400
00007FD000
0001FF4000
0007FD0000
001FF40000
007FD00000
01FE000000
03F8000000
0BD0000000
2F40006400
7FBFFFF400
BFBFFFF000
7801BF8000
ENDCHAR
STARTCHAR three
ENCODING 51
SWIDTH 537 0
DWIDTH 17 0
BBX 17 24 1 0
BITMAP
00006FE000
0007FFFD00
002FD07F00
007F002F40
00FD002F80
01FC002F80
02FC003F40
02FE007F40
01FE00FE00
006802FD00
00001FF800
0001BFE000
000BFF8000
001FFD0000
000ABF0000
00002F8000
00002F8000
1A402F8000
3F803F8000
BF007F0000
BE00FE0000
7E07F80000
2FFFE00000
0BFE400000
ENDCHAR
STARTCHAR four
ENCODING 52
SWIDTH 529 0
DWIDTH 17 0
BBX 15 24 2 0
BITMAP
002D0000
003F4000
007F4000
00BF4000
00FF0000
01FE0000
02FD0280
07F803F0
0BF007F4
1FE00BF0
2FC00FE0
7F401FD0
FE002FC0
FC007F40
BFFFFFF4
1AABFEB8
0001F800
0003F400
0007E000
000BC000
001F8000
002F0000
007D0000
00740000
ENDCHAR
STARTCHAR five
ENCODING 53
SWIDTH 540 0
DWIDTH 17 0
BBX 19 24 1 0
BITMAP
0002E955B4
0007FFFFF4
000BEFFFE0
000FC16A80
001F800000
002F400000
007E000000
00BD000000
01FEFE4000
02FFBFE000
03F80BF400
07E003F800
018003F800
000003F800
000003F800
000007F400
0A000BF000
7F000FE000
BE002FD000
FD007F8000
BD00FE0000
7E07F80000
2FFFE00000
06FA000000
ENDCHAR
STARTCHAR six
ENCODING 54
SWIDTH 554 0
DWIDTH 18 0
BBX 17 24 2 0
BITMAP
00001BF800
0001FFBE00
0007F41F00
002FD01F40
007F402F40
01FD01FF00
02F802FD00
07F400B400
0FE0000000
1FD0000000
2FC6FE0000
3FAFFFC000
7FF80BE000
7FE007F000
BFC007F000
BF4007F000
BF0007F000
BE000BE000
BE001FD000
BE002FC000
7E00BF4000
2F42FD0000
0FEFE00000
02FE400000
ENDCHAR
STARTCHAR seven
ENCODING 55
SWIDTH 473 0
DWIDTH 15 0
BBX 15 24 3 0
BITMAP
29405BE0
3FFFFFF4
2FFFFAF4
0BF947E0
00000FC0
00002F40
0000BE00
0001FC00
0003F400
000BE000
002FC000
007F4000
00FE0000
02FC0000
03F40000
0BF00000
0FD00000
2FC00000
3F800000
7F400000
7F000000
7F000000
7F000000
1E000000
ENDCHAR
STARTCHAR eight
ENCODING 56
SWIDTH 524 0
DWIDTH 17 0
BBX 17 24 1 0
BITMAP
0000BFA000
0007FFFC00
001F80BF00
003E007F40
00BD003F80
00BC003F80
00FC003F80
00FD003F40
00FE00BF00
00BF01FD00
007F87F800
003FEFD000
001FFE4000
001FF80000
01BFFC0000
07F5FE0000
1F80BF0000
3F403F0000
7F002F4000
7E002F0000
7F002E0000
3F80BD0000
1FFBF40000
02FE400000
ENDCHAR
STARTCHAR nine
ENCODING 57
SWIDTH 554 0
DWIDTH 18 0
BBX 17 24 1 0
BITMAP
00006FE400
0002FEFD00
001FD03F00
007F402F40
00FE002F80
01FC002F80
03F8002F80
07F4003F40
07F0007F40
07F000BF40
07F001FF00
07F007FE00
03F81FFE00
01FFFEFD00
006FE5FC00
000002F400
000007F000
00000BD000
1F401F8000
3F403F4000
7E00BD0000
7E06F40000
2FFF900000
0BF9000000
ENDCHAR
STARTCHAR colon
ENCODING 58
SWIDTH 312 0
DWIDTH 10 0
BBX 8 15 1 0
BITMAP
02F8
07FE
07FD
07FC
01A4
0000
0000
0000
0000
0000
7E40
BFC0
FFC0
BF80
2A00
ENDCHAR
STARTCHAR semicolon
ENCODING 59
SWIDTH 312 0
DWIDTH 10 0
BBX 9 19 0 -5
BITMAP
00BE00
01FF80
01FF80
00FF00
006900
000000
000000
000000
000000
000000
0B9000
2FF000
1FF000
0BF000
0BE000
0BC000
1F4000
7D0000
E40000
ENDCHAR
STARTCHAR less
ENCODING 60
SWIDTH 637 0
DWIDTH 20 0
BBX 16 17 2 1
BITMAP
0000000B
000000BF
000007FD
00007FD0
0006FE00
002FE400
02FF4000
1FF80000
BF800000
7FE00000
07FD0000
00BFD000
000BF900
0001BF80
00001FF4
000001FF
0000002E
ENDCHAR
STARTCHAR equal
ENCODING 61
SWIDTH 617 0
DWIDTH 20 0
BBX 17 8 2 8
BITMAP
2FFFFFFF40
6AAAAAAA00
0000000000
0000000000
0000000000
0000000000
7FFFFFFF00
6AAAAAA900
ENDCHAR
STARTCHAR greater
ENCODING 62
SWIDTH 606 0
DWIDTH 19 0
BBX 17 17 2 1
BITMAP
7900000000
7F80000000
1BF8000000
01FF400000
002FF40000
0002FE4000
00007FE400
000007FE00
000001FF40
00001BF900
0000BF9000
0007FD0000
007FD00000
02FE000000
2FE0000000
BE40000000
B400000000
ENDCHAR
STARTCHAR question
ENCODING 63
SWIDTH 516 0
DWIDTH 17 0
BBX 16 24 2 0
BITMAP
0001BF80
000BFBF4
002F80FC
007F007D
00BE007D
00BF00FD
00BF02FC
00290BF8
00002FF0
0000FFC0
0007FE00
001FF800
007FD000
00FE0000
02F80000
02F00000
02D00000
01400000
00000000
2F800000
7FE00000
7FE00000
7FD00000
1F400000
ENDCHAR
STARTCHAR at
ENCODING 64
SWIDTH 905 0
DWIDTH 29 0
BBX 28 26 1 -4
BITMAP
0000006BFE9000
00000BFFBFFD00
0000BE40007F80
0007E400000BE0
001F80000002F4
007D00000000F8
00F800000000BC
02F0006F87807D
07D002FFEFD07D
0FC00BE0BFC07D
1F802F807F407D
2F407F007F007C
3F00BE00BD00B8
7E01FC01FC01F4
7E01FC02F802F0
7E02F807F407D0
7E02F80FF01F80
7E01FC79F4BE00
7F00BFE1FFF400
3F401A406A4000
2F800000000000
0FE00000000000
07F80000000000
01FE4001A00000
006FFEBFD00000
0006BFE9000000
ENDCHAR
STARTCHAR A
ENCODING 65
SWIDTH 615 0
DWIDTH 20 0
BBX 24 24 -3 0
BITMAP
0000000001BE
000000001FFE
00000000BEBD
00000003F4FC
0000000F82F8
0000003E03F4
000000BC0BF0
000002F40FE0
000007E01FC0
00000FC02F80
00002F403F40
00007F6AFFE8
0002FFFFFFF8
001FFFFFFFE0
001BE001FD00
000BD002FC00
000F8002F800
002F4003F400
007E0003F400
00FD0007F000
02F80007F440
0BF00007FFD0
7FD00003FF80
7E000001BE00
ENDCHAR
STARTCHAR B
ENCODING 66
SWIDTH 551 0
DWIDTH 18 0
BBX 19 24 1 0
BITMAP
0016BFE400
02FFFEFF40
0FFE401FD0
0FE00007F0
014F4003F0
002FD007F4
007FC007F0
00FF400BF0
01FE001FD0
03FC007F80
07F802FE00
0BF06FF800
0FFFFFD000
1FFFFF8000
2FE41BE000
3F4003F400
7F0002F800
7E0002F800
7D0003F400
BD000BF000
7D002FD000
7E01FF4000
2FFFF80000
07FE400000
ENDCHAR
STARTCHAR C
ENCODING 67
SWIDTH 533 0
DWIDTH 17 0
BBX 19 24 1 0
BITMAP
000006FE40
00002FFBD0
0001FE41F0
0007F801F4
001FD001F4
007F8003F4
00FF000BF0
02FD002FE0
07F800BFC0
0BF401FF40
0FE000BD00
1FD0000000
2FC0000000
3F80000000
7F80000000
7F40000000
7F40000000
7F40000000
7F40000000
7F40004000
3F8002E000
1FD01FD000
0BFFFF8000
01BFE40000
ENDCHAR
STARTCHAR D
ENCODING 68
SWIDTH 630 0
DWIDTH 20 0
BBX 20 24 1 0
BITMAP
005AFFA400
07FFFFFF40
0BFE556FE0
07F40007F4
00404001FC
000BF000FD
001FE000BE
003FC000BE
007F4000BE
00FF0000FE
01FD0000FD
03FC0001FC
07F80002FC
0BF00007F4
0FE0000FF0
1FD0001FD0
2FC0007F80
3F8001FE00
3F4007FC00
7F001FF000
7F00BF8000
7E07FD0000
2FBFE00000
06F9000000
ENDCHAR
STARTCHAR E
ENCODING 69
SWIDTH 509 0
DWIDTH 16 0
BBX 18 24 1 0
BITMAP
00001BFA00
0001FFEFC0
000BF903E0
002FD002E0
00BF4007E0
01FE001FD0
02FC007FC0
03F802FF40
07F403FD00
07F001A400
03F0000000
02F8100000
00FFF80000
007FFC0000
02FF800000
0FF8000000
2FE0000000
7FC0000000
BF40014000
BF00078000
BF001F8000
7F40BF4000
1FFFF90000
06FE900000
ENDCHAR
STARTCHAR F
ENCODING 70
SWIDTH 518 0
DWIDTH 17 0
BBX 19 24 1 0
BITMAP
02FFA94028
1FFFFFFFF8
3FFFFFFFF4
3F903FAA90
3E00BE0000
2D00FD0000
0401FC0000
0003F80000
0007F40000
000BF00000
000FE00000
001FFFE000
007FFFF800
03FFFFF800
02BF800000
00BF000000
00FE000000
01FD000000
03F8000000
07F4000000
0FE0000000
2F80000000
BE00000000
B800000000
ENDCHAR
STARTCHAR G
ENCODING 71
SWIDTH 598 0
DWIDTH 19 0
BBX 19 24 1 0
BITMAP
000002BE40
00002FFBD0
0001FE41F0
0007F800F4
001FE001F8
007F8002F4
00FF000BF4
02FD001FF0
03F800BFD0
0BF400FF80
0FF000BD00
1FD0000000
2FC0000000
3F80014050
3F801FFFE0
7F402FFFD0
7F4007FE40
7F4002F000
7F4002F000
3F4003D000
3F800B8000
1FD02F0000
0BFEF80000
01BF900000
ENDCHAR
STARTCHAR H
ENCODING 72
SWIDTH 668 0
DWIDTH 21 0
BBX 24 24 -1 0
BITMAP
006FF8000078
00FFFD0000FD
0064BE0000FD
0000FE0001FD
0000FD0002FC
0001FD0003F8
0002FC0007F4
0003F8000BF0
0003F4000FD0
0007F0001FC0
000BFAAABFE0
006FFFFFFFF0
00FFD001BFD0
003F8000BE00
007F4000FD00
00BF0001F800
00FD0002F400
01FC0003F000
03F40007E000
0BF0000BD000
1FD0000FD100
3F40000FFF00
FE00000FFE00
B4000007E400
ENDCHAR
STARTCHAR I
ENCODING 73
SWIDTH 327 0
DWIDTH 10 0
BBX 11 24 0 0
BITMAP
006FE0
02FFF8
00A1FC
0001FC
0002FC
0003F8
0003F8
0007F4
000BF0
000FE0
001FD0
001FD0
002FC0
003F40
00BF00
00FE00
01FD00
02F800
07F400
0BE000
1FC000
7F4000
FD0000
F40000
ENDCHAR
STARTCHAR J
ENCODING 74
SWIDTH 393 0
DWIDTH 13 0
BBX 20 33 -6 -9
BITMAP
000001AFE4
00001FFFFD
0000BFE0FE
0001FF41FD
0000BC01FD
00001002FD
00000002FC
00000003F8
00000007F4
0000000BF4
0000000FF0
0000001FE0
0000002FD0
0000003FC0
0000007F80
000000BF40
000000FE00
000002FD00
000003FC00
000007F400
00000FF000
00001FE000
00003FC000
00007F4000
0000FE0000
0002FD0000
0007F80000
000FE00000
003FC00000
00BF000000
07FC000000
2FE0000000
7E40000000
ENDCHAR
STARTCHAR K
ENCODING 75
SWIDTH 616 0
DWIDTH 20 0
BBX 23 24 -2 0
BITMAP
001BE40007E0
00BFFE0003F4
00687F0003F8
0000BF0003F8
0000BF0007F8
0000FE000BF0
0001FE001FE0
0001FD003F80
0002FC00FE00
0003F803F800
0007F81FD000
000BF47F4000
000FF2F80000
001FEFD00000
002FFFD00000
003F8BF00000
007F43FC0000
00BF01FE0000
01FD00FF4000
02FC007FC000
07F4002FE000
1FE0000FF900
7F800007FFD0
7D000000BE40
ENDCHAR
STARTCHAR L
ENCODING 76
SWIDTH 517 0
DWIDTH 17 0
BBX 19 24 -1 0
BITMAP
0000006F80
000003FFF0
00000FE0B8
00003F80BC
0000BF00BC
0000FD00FC
0002FC02F8
0003F80BF4
000BF02FE0
000FE0BFD0
001FD1FF40
002FC0BD00
003F800000
007F400000
00FE000000
01FD000000
02FC000000
03F4000000
07E0000000
0FD0000000
2F45AFE400
7FBFFFFD00
BFFFFFFE00
2E94001A00
ENDCHAR
STARTCHAR M
ENCODING 77
SWIDTH 931 0
DWIDTH 30 0
BBX 33 24 -3 0
BITMAP
000000002F80002F80
00000001FFD001FFC0
00000007FFC007FF80
0000001F6F801FAF40
0000007D7F003F7F00
000000F8BE00BDBE00
000002F0FD01F8FD00
000007D1FC03F1FC00
00000F82F80BD2F800
00002F43F40F83F400
00007E07F42F47F000
0000BC07F03E0BE000
0001F80BE0BC0FD000
0002F00FD1F81FC000
0007D00FD2F02F8000
000FC01FC7D03F4000
002F401FCBC03F4000
007F001FDF407F0000
00BD001FAF007F0000
01F8002FFD00BF0000
07F0001FF800BF0400
1FD0001FF0007FFD00
BF80001FD0003FFC00
B900000B80000BE000
ENDCHAR
STARTCHAR N
ENCODING 78
SWIDTH 708 0
DWIDTH 23 0
BBX 25 24 0 0
BITMAP
000007D000B900
00002FE001FF40
0000BFD000BF80
0001FFD0007F80
0003EFD0003F80
000BCFC0003F80
001F5FC0007F40
002E1FD0007F00
007D1FD000BD00
00BC0FD000FC00
01F80FD001F800
02F00FE003F000
03E00FE007D000
07D00BF00BC000
0BC00BF01F4000
0FC007F42E0000
1F8003F87D0000
2F4002FCB80000
3F0002FDF40000
3F0001FFE00000
7E0000BFD00000
7D00007FC00000
7D00002F800000
2C00000B800000
ENDCHAR
STARTCHAR O
ENCODING 79
SWIDTH 655 0
DWIDTH 21 0
BBX 20 24 2 0
BITMAP
000006FE40
0000BFEFE0
0002FD02F4
001FF000FC
003FC000FD
00FF4000FD
02FD0000FD
07F80000FD
0BF40001FD
1FE00001FD
2FD00002FC
3F800003F8
7F400007F4
BF00000FF0
BE00001FE0
FE00003FC0
FD00007F80
FD0000FE00
FD0002FD00
BD000BF400
7E002FD000
3F41BF4000
1FFFF80000
02BF900000
ENDCHAR
STARTCHAR P
ENCODING 80
SWIDTH 553 0
DWIDTH 18 0
BBX 21 24 -1 0
BITMAP
00016FFE4000
001BFFEFF800
007FF400BE00
00BF40003F40
002878002F80
0000FE002F80
0001FD002F80
0002FC003F80
0007F400BF40
000BF002FE00
000FE00BFC00
001FD06FF000
002FD6FF8000
003FFFF90000
007FFE400000
00BF00000000
01FD00000000
02FC00000000
03F800000000
0BF000000000
1FD000000000
3F8000000000
BE0000000000
B80000000000
ENDCHAR
STARTCHAR Q
ENCODING 81
SWIDTH 655 0
DWIDTH 21 0
BBX 21 29 2 -5
BITMAP
00001AFE0000
0000BFFFD000
0007F903F000
002FD001F800
007F4000FC00
01FE0000FC00
03F80000FC00
0BF00001FC00
0FE00002FC00
1FC00002FC00
2F800003F800
3F40000BF400
7F00000FE000
7F00002FD000
BF00007F8000
BF0000BF0000
7F4002FD0000
3FC007F40000
2FE01FE00000
0BD07F800000
0002FD000000
002FE4000000
06FFF8000000
0BFFFF800000
0001BFF40000
00001FFF4040
000002FFFFC0
0000007FFF80
00000006FE00
ENDCHAR
STARTCHAR R
ENCODING 82
SWIDTH 623 0
DWIDTH 20 0
BBX 21 25 -1 -1
BITMAP
00006BFE4000
001BFFEFF800
007FE4007E00
007F40002F40
00183D001F80
0000BE001FC0
0001FD002FC0
0002FC003F80
0003F8007F40
0007F401FF00
000BF007FD00
000FE02FF400
001FD6FF8000
003FFFF90000
007FAF800000
00BF0FD00000
00FE07F00000
01FD03F80000
03F801FD0000
07F000FE0000
0FE000BF4000
2F80003FD000
BF00001FFF00
B8000007FD00
000000005000
ENDCHAR
STARTCHAR S
ENCODING 83
SWIDTH 474 0
DWIDTH 15 0
BBX 18 24 0 0
BITMAP
00002FE400
0001FFFF00
000BE40F80
002F8007D0
007F0007D0
00BE000BE0
00FD000FD0
01FD002FD0
01FD00BF80
01FD02FF40
01FE01FD00
00FF405000
00BFC00000
003FE00000
001FF40000
000BFC0000
0002FD0000
0600FE0000
2F00BE0000
3E007D0000
7F007C0000
3F81F40000
1FFFD00000
06FE000000
ENDCHAR
STARTCHAR T
ENCODING 84
SWIDTH 471 0
DWIDTH 15 0
BBX 18 24 2 0
BITMAP
06FFA54070
2FFFFFFFF0
BFFFFFFFE0
FF40BFAE40
FD00FD0000
7801FC0000
1002F80000
0003F80000
0007F40000
000BF00000
000FE00000
001FD00000
002FC00000
003F800000
007F400000
00BF000000
00FE000000
01FC000000
02F8000000
03F4000000
0BE0000000
1FC0000000
7F00000000
B800000000
ENDCHAR
STARTCHAR U
ENCODING 85
SWIDTH 624 0
DWIDTH 20 0
BBX 22 24 0 0
BITMAP
0007E40002E0
000FF80007F0
0003F8000BE0
0003F4001FD0
0007F0003F80
000BE0007F40
001FD000FF00
002FC001FE00
003F8003FD00
007F000BFC00
00FE000FF800
01FC002FF400
02F8007FF000
07F400BFE000
0BE001FFD000
0FD003EFC000
1FC00BAF8000
2F801F2F4000
3F407D3F4000
7F00F43F0000
7F47E07F4000
7FFF803FFD00
3FFD002FF800
0BE4000BE000
ENDCHAR
STARTCHAR V
ENCODING 86
SWIDTH 587 0
DWIDTH 19 0
BBX 21 25 2 0
BITMAP
000000002E00
01BE4000BF80
2FFFD0007FC0
3FFFE0002FC0
1F43F0002FC0
000BF0002F80
001FE0007F40
002FC000BF00
007F8001FD00
00BF0003FC00
01FE000BF400
02FC002FD000
07F8007F8000
0BF001FE0000
0FE007F80000
1FC00FE00000
2F803F800000
3F40FE000000
3F02F4000000
7F0BD0000000
7E2F40000000
7E7D00000000
3FF400000000
2FE000000000
0B8000000000
ENDCHAR
STARTCHAR W
ENCODING 87
SWIDTH 941 0
DWIDTH 30 0
BBX 30 24 2 0
BITMAP
06FE000000001B80
2FFF800000003FD0
7FFFD00000003FE0
2E47E00000001FE0
000FE00000000FF0
002FD0006E000FF0
007F8001FF000FE0
00BF400BFD000FE0
01FE002FF4000FE0
02FD00BFE0001FD0
03F802FFD0001FC0
0BF407FF80002F80
0FE01FFF40003F40
1FD03F7F00007E00
2FC0BDBE0000FD00
3F41F4FE0002F800
7F03E0FD0003F000
BE0B81FC000BD000
BE1F01FC001F8000
BD3D01FC007E0000
BDB800FC01F80000
7EE000BD07E00000
3FC0007FFF400000
1F40001BE4000000
ENDCHAR
STARTCHAR X
ENCODING 88
SWIDTH 552 0
DWIDTH 18 0
BBX 25 24 -2 0
BITMAP
00000780006F80
00001F8001FF40
00003F800BF800
00007F402FD000
00007F407F4000
00007F41FD0000
00003F43F40000
00003F4BE00000
00003F5F800000
00003FBE000000
00002FFC000000
00002FF4000000
00001FE0000000
00002FD0000000
00007FE0000000
0000FFF0000000
0002FBF0000000
000BD7F8000000
002F83FC000000
00BE02FE000000
02FC00FF410000
0BF000BFEE0000
7F80002FFD0000
7E000007E40000
ENDCHAR
STARTCHAR Y
ENCODING 89
SWIDTH 580 0
DWIDTH 19 0
BBX 22 33 0 -9
BITMAP
000BE00002D0
000FF80007F0
0007F8000FE0
0003F4001FD0
0007F0003F80
000FE000BF40
001FD000FF00
002FC002FE00
003F4003FD00
00BF000BFC00
00FD001FF400
01FC002FF000
03F8007FE000
07F000FFD000
0BE002FFC000
0FD003EF8000
1FC00BBF4000
3F401E7F0000
3F407DBE0000
7F01F4FD0000
7F47D2F80000
7FFF83F40000
3FFD0BE00000
0BE00FD00000
00002F800000
00007F000000
0000FD000000
0002F8000000
000BF0000000
002FC0000000
00BF00000000
0BF800000000
1F9000000000
ENDCHAR
STARTCHAR Z
ENCODING 90
SWIDTH 501 0
DWIDTH 16 0
BBX 20 24 -1 0
BITMAP
00390016F8
003FFFFFFE
002FFFF9BF
000BFE42FE
0000000BFD
0000001FF4
0000007FE0
000001FF80
000007FE00
00001FF800
00003FE000
0000FF8000
0002FE0000
000BF80000
002FE00000
007F800000
01FF000000
03FC000000
0BF4000000
1FD0000000
3F81AFF400
7F6FFFFD00
7FFFFFFF00
2FA5001B00
ENDCHAR
STARTCHAR bracketleft
ENCODING 91
SWIDTH 396 0
DWIDTH 13 0
BBX 17 34 0 -5
BITMAP
0000015500
000007FF80
00000BF400
00000FD000
00001FC000
00002F8000
00003F4000
00007F0000
0000BE0000
0000FD0000
0001FC0000
0002F80000
0003F40000
0007F00000
000BE00000
000FC00000
001F800000
002F400000
007F000000
00BE000000
00FD000000
01FC000000
02F8000000
03F4000000
07F0000000
0BE0000000
0FD0000000
1FC0000000
2F80000000
3F40000000
7F00000000
BE00000000
FFA4000000
BFE4000000
ENDCHAR
STARTCHAR backslash
ENCODING 92
SWIDTH 464 0
DWIDTH 15 0
BBX 11 34 1 -5
BITMAP
500000
7C0000
7D0000
3E0000
2F0000
1F4000
1F4000
0F8000
0BC000
07D000
07D000
03E000
02F000
01F400
00F400
00F800
00BC00
007D00
003E00
003E00
002F00
001F40
000F80
000F80
000BC0
0007D0
0003E0
0002E0
0002F0
0001F4
0000F8
0000B8
00007C
00002C
ENDCHAR
STARTCHAR bracketright
ENCODING 93
SWIDTH 394 0
DWIDTH 13 0
BBX 17 34 -2 -5
BITMAP
000006AA40
000007FFC0
0000003F80
0000003F40
0000007F00
000000BE00
000000FD00
000001FC00
000002F800
000003F400
000007F000
00000BE000
00000FD000
00001F8000
00002F4000
00003F0000
00007E0000
0000BD0000
0000FC0000
0001F80000
0002F40000
0003F00000
0007E00000
000BD00000
000FC00000
001F800000
002F400000
007F000000
00BE000000
00FD000000
01FC000000
02F8000000
6FF4000000
BFE0000000
ENDCHAR
STARTCHAR asciicircum
ENCODING 94
SWIDTH 540 0
DWIDTH 17 0
BBX 14 13 3 11
BITMAP
000B4000
001F8000
003FD000
007FE000
00FFF400
01F9F800
03F0BD00
0BD07E00
0F802F00
2F000F80
7D0007C0
B80002E0
B00001E0
ENDCHAR
STARTCHAR underscore
ENCODING 95
SWIDTH 530 0
DWIDTH 17 0
BBX 21 3 -5 -5
BITMAP
6FFFFFFFFF80
FFFFFFFFFF80
FFFFFFFFFF40
ENDCHAR
STARTCHAR grave
ENCODING 96
SWIDTH 219 0
DWIDTH 7 0
BBX 5 8 1 17
BITMAP
2E00
BE00
BE00
BE00
7E00
2F00
0B40
0140
ENDCHAR
STARTCHAR a
ENCODING 97
SWIDTH 541 0
DWIDTH 17 0
BBX 17 17 1 -1
BITMAP
0006F92E00
002FEFBF40
00BE07FE00
02F802FD00
0BF003F800
1FD007F400
2FC00BF000
7F400FE000
BF002FC000
BF003F8000
FE00BF4000
FE01FF4000
FE03EF4000
BE0B6F9900
3FFD2FFC00
0BE01FF400
0000068000
ENDCHAR
STARTCHAR b
ENCODING 98
SWIDTH 525 0
DWIDTH 17 0
BBX 15 26 1 0
BITMAP
000F4000
001F8000
002F8000
003F4000
003F4000
007F0000
00BE0000
00FD0000
01FC0000
01F80000
02F47F80
03F7FFE0
07EF47F4
0BFD03F4
0FF403F8
1FE003F8
2FC007F8
3F8007F4
7F000BF0
BE000FE0
BD002FC0
BC007F40
BC01FE00
7E0BF800
2FFFD000
06F90000
ENDCHAR
STARTCHAR c
ENCODING 99
SWIDTH 465 0
DWIDTH 15 0
BBX 14 16 1 0
BITMAP
0006FE00
002FEFC0
01FE07D0
03F807E0
0BF00BE0
1FD01FD0
3F803F80
7F402F00
BF000000
FE000000
FE000000
FE000400
BE001D00
7F40BC00
2FFFE000
06FE4000
ENDCHAR
STARTCHAR d
ENCODING 100
SWIDTH 557 0
DWIDTH 18 0
BBX 20 26 1 0
BITMAP
000000002D
00000000BE
00000001FD
00000002F8
00000003F4
00000007F0
0000000BE0
0000000FD0
0000001FC0
0000002F80
0001BE3F40
001FFFFF00
007F42FE00
01FC01FD00
03F402FC00
0BE002F800
1FC003F400
3F800BF000
7F400FE000
7F001FD000
BF003FD000
BF00BFC000
BF01DFC100
7F078FFF00
3FFE0BFE00
0BE402F400
ENDCHAR
STARTCHAR e
ENCODING 101
SWIDTH 471 0
DWIDTH 15 0
BBX 14 16 1 0
BITMAP
0002FE00
002FFFC0
00BE0BD0
02F80BE0
07F00BE0
1FE01FD0
2FC03FC0
3F81FF40
7F5BF900
BFFF9000
BF540000
BE000000
7F000A00
3F807E00
1FFBF800
06FF9000
ENDCHAR
STARTCHAR f
ENCODING 102
SWIDTH 393 0
DWIDTH 13 0
BBX 18 31 -1 -4
BITMAP
0000006A40
000007FFD0
00000FD3F0
00002F82F0
00003F03F0
0000BE0BF0
0000FD1FD0
0001FC0B80
0002F80000
0002F40000
0003F00000
0007F00000
000BFB9000
006FFFF400
03FFFFF400
07FF800000
003F400000
007F000000
00BF000000
00BE000000
00FD000000
01FC000000
02F8000000
03F4000000
07F0000000
0BE0000000
0FD0000000
2FC0000000
3F80000000
7F00000000
7D00000000
ENDCHAR
STARTCHAR g
ENCODING 103
SWIDTH 526 0
DWIDTH 17 0
BBX 16 25 1 -9
BITMAP
0002FD00
002FFF6E
00BE03FF
02F801FD
0BF002FC
1FD003F8
2FC007F4
3F800BF0
7F400FE0
BF002FD0
BE007FD0
BE00BFC0
BE02FF80
7F0BBF40
3FFE7F00
0BE4BE00
0000FC00
0001F800
0003F400
000BE000
001FC000
007F4000
02FD0000
2FF40000
1F800000
ENDCHAR
STARTCHAR h
ENCODING 104
SWIDTH 555 0
DWIDTH 18 0
BBX 17 26 0 0
BITMAP
0001F40000
0002F80000
0002F80000
0003F80000
0003F40000
0007F00000
000BF00000
000BE00000
000FD00000
001FC00000
002F81BD00
003F47FF40
007E1FFF40
00BD7D3F40
00FCF47F00
01FAD0BE00
02FB40FD00
03FE02FC00
07FC03F400
0BF00BF000
1FD00FE000
2FC00FD000
7F401FD100
BF001FFF00
FD000FFE00
780006F400
ENDCHAR
STARTCHAR i
ENCODING 105
SWIDTH 286 0
DWIDTH 9 0
BBX 10 24 1 0
BITMAP
001F80
007FD0
007FD0
003F80
001900
000000
000000
000000
02F800
07FC00
02FC00
02F800
03F400
07E000
0BD000
1FC000
2F4000
3F0000
7E0000
BD0000
FD0000
FFE000
FFD000
6F4000
ENDCHAR
STARTCHAR j
ENCODING 106
SWIDTH 281 0
DWIDTH 9 0
BBX 16 33 -6 -9
BITMAP
000001F8
000007FD
000007FD
000003F8
00000090
00000000
00000000
00000000
00001FD0
00002FE0
00000FE0
00000FE0
00000FD0
00001FD0
00001FC0
00002F80
00003F80
00003F40
00007F00
0000BE00
0000FD00
0001FC00
0002F400
0007F000
000BE000
000FC000
002F8000
007F0000
00BD0000
02F80000
0BE00000
6F800000
79000000
ENDCHAR
STARTCHAR k
ENCODING 107
SWIDTH 497 0
DWIDTH 16 0
BBX 16 26 0 0
BITMAP
0001E000
0002F800
0002F800
0003F400
0003F400
0007F000
000BE000
000BD000
000FC000
001F8000
002F40BD
003F00FF
007E00BF
00BD00FF
00FC02FD
01F81FF4
02F5BF80
03FBF800
07FFC000
0BEFD000
1FDBE000
2F87F400
7F43FD00
BE01FFBC
FD00BFF4
78001F90
ENDCHAR
STARTCHAR l
ENCODING 108
SWIDTH 279 0
DWIDTH 9 0
BBX 10 26 1 0
BITMAP
000B80
000FD0
001FD0
001FC0
002F80
003F80
003F40
007F00
00BE00
00FD00
01FC00
02F800
03F400
07F000
0BE000
0FC000
1F8000
2F4000
3F4000
7F0000
BE0000
BD0000
FD1000
FFF000
BFE000
2F4000
ENDCHAR
STARTCHAR m
ENCODING 109
SWIDTH 814 0
DWIDTH 26 0
BBX 25 16 0 0
BITMAP
00BD00BD00BE00
01FF07FF02FF80
00BF1FFF0BFF80
00BE3E2F2E2F80
00FDB82E783F40
01FEE03EE07F00
02FB807FC0FE00
03FE00FF41FC00
07FC01FE02F800
0BF403F807F400
1FD007F40BE000
2FC00FE00BD000
3F401FD00FD000
BF002F800FFB00
FD003F400BFE00
78001E0002F800
ENDCHAR
STARTCHAR n
ENCODING 110
SWIDTH 561 0
DWIDTH 18 0
BBX 17 16 0 0
BITMAP
00BD00BD00
01FF07FF40
00BE1FFF80
00BE7D3F80
00FDF43F40
01FED07F00
02FB80FE00
03FE01FC00
07FC03F800
0BF407F000
1FD00BE000
2FC00FD000
3F400FD100
BF000FFF40
FD000BFE00
780002F800
ENDCHAR
STARTCHAR o
ENCODING 111
SWIDTH 514 0
DWIDTH 16 0
BBX 15 16 1 0
BITMAP
0006FE00
002FFFD0
00FE07E0
03F807F0
0BF007F4
1FE007F4
3FC007F4
7F800BF0
BF400FE0
BF002FD0
BE003FC0
BE00BF40
BE01FE00
7F07F800
2FFFD000
06FA0000
ENDCHAR
STARTCHAR p
ENCODING 112
SWIDTH 550 0
DWIDTH 18 0
BBX 19 25 -2 -9
BITMAP
002F80BF40
007FC7FFD0
001FDF47F0
001FFD03F4
002FF403F4
002FE003F4
003FC007F4
007F400BF0
007F000FE0
00BE001FD0
00FD003F80
01FC00BF00
02FC02FD00
03FE1BF400
03FFFF9000
07E2F90000
0BD0000000
0FC0000000
1F80000000
2F40000000
3F40000000
7F00000000
FD00000000
FC00000000
B400000000
ENDCHAR
STARTCHAR q
ENCODING 113
SWIDTH 533 0
DWIDTH 17 0
BBX 17 25 1 -9
BITMAP
0001BE0000
001FFF9E00
00BF42FF40
02FC01FF00
07F402FE00
0FE003FC00
2FC007F800
3F800BF400
7F400FE000
BF002FD000
BF003FC000
BE00BF8000
BE02FF4000
7F0BAF0000
2FFE7E0000
0BE4BD0000
0000FC0000
0001F80000
0002F40000
0003F00000
0007F00000
0007E00000
0007F00000
0003F00000
0001F00000
ENDCHAR
STARTCHAR r
ENCODING 114
SWIDTH 407 0
DWIDTH 13 0
BBX 15 16 0 0
BITMAP
01F802E0
02FD0FF4
00FD2FF4
00FDBFF4
00FDF5A0
01FAC000
02FB4000
03FE0000
07FC0000
0BF40000
0FE00000
1FD00000
3F800000
7F400000
7F000000
2D000000
ENDCHAR
STARTCHAR s
ENCODING 115
SWIDTH 423 0
DWIDTH 14 0
BBX 14 16 0 0
BITMAP
000BFA00
007FBFC0
01F80FD0
02F40BD0
03F80BC0
02FC0600
02FE0000
00FF4000
00BFC000
002FE000
000FF000
2C07F000
7D07F000
BE0BE000
3FFF8000
0BF90000
ENDCHAR
STARTCHAR t
ENCODING 116
SWIDTH 358 0
DWIDTH 11 0
BBX 12 21 2 0
BITMAP
000500
001F80
003F80
007F00
00FE00
2FFFFD
1BFEA4
07F000
0BE000
0FD000
1FC000
2F8000
2F4000
3F4000
7F0000
7E0000
BE0000
BE0780
7FBF40
3FFD00
1BE000
ENDCHAR
STARTCHAR u
ENCODING 117
SWIDTH 553 0
DWIDTH 18 0
BBX 18 16 0 0
BITMAP
00BD000790
01FF000FD0
00BF002FC0
00BE007F40
00FD00FF00
01FC01FD00
03F803FC00
07F40BF800
0BE01FF400
1FD07FE000
2FC0F7D000
3F42DBD000
3F4B8BD100
7FFE0FFF00
3FF80BFE00
1B9002F400
ENDCHAR
STARTCHAR v
ENCODING 118
SWIDTH 510 0
DWIDTH 16 0
BBX 15 16 1 0
BITMAP
02F802E0
07FC07F8
02FC03FC
02FC02FC
03F802FC
07F002F8
0BE002F4
1FD003F0
2F8007E0
3F400FC0
7F002F40
BE007D00
FD02F800
FE5FD000
BFFE0000
2FE40000
ENDCHAR
STARTCHAR w
ENCODING 119
SWIDTH 750 0
DWIDTH 24 0
BBX 23 16 1 0
BITMAP
07F4000007E0
0BFC00680BF4
02FC01FC07F4
02F803F803F8
02F407F402F4
03F00FE002F4
07E02FD003F0
0FD07FC003E0
1FC0FF8007D0
2F42FF400F80
3F07AF001F00
7E1E3F007D00
BD7C3F41F800
FFF02FDBE000
BF801FFF4000
7D0007F80000
ENDCHAR
STARTCHAR x
ENCODING 120
SWIDTH 467 0
DWIDTH 15 0
BBX 18 16 -1 0
BITMAP
000B001B90
003F00BF80
007F02FD00
007F0BE000
007F6F8000
007FBE0000
003FF80000
002FE00000
001FD00000
002FE00000
007FF00000
01FBF40000
07E3FC1000
1F81FFF400
7F00BFE000
78002F8000
ENDCHAR
STARTCHAR y
ENCODING 121
SWIDTH 549 0
DWIDTH 18 0
BBX 17 25 1 -9
BITMAP
02F8001F40
07FD003F80
01FD007F00
02FC00FE00
03F802FD00
07F407FC00
0BF00BF800
0FD01FF400
2FC03FF000
3F80BFE000
7F02EFD000
BE0B9FC000
FD2F2F8000
FFFC3F0000
BFF07E0000
2F40BD0000
0000F80000
0002F40000
0007E00000
000FC00000
003F400000
00FE000000
07F8000000
3FD0000000
1900000000
ENDCHAR
STARTCHAR z
ENCODING 122
SWIDTH 430 0
DWIDTH 14 0
BBX 15 16 0 0
BITMAP
00E401B0
01FFFFF8
00BFFBF8
00040BF0
00007FD0
0001FF40
0007FC00
002FE000
00BF8000
02FD0000
0BF40000
1FD00000
3F455000
BFBFFC00
BFFFFE00
2E401E00
ENDCHAR
STARTCHAR braceleft
ENCODING 123
SWIDTH 424 0
DWIDTH 14 0
BBX 17 34 1 -5
BITMAP
000000AA40
000003FF40
00000BF400
00001FD000
00002FC000
00003F8000
00003F4000
00007F0000
0000BE0000
0000FD0000
0001FC0000
0002F80000
0003F40000
000BF00000
002FD00000
06FF400000
0BF9000000
07E0000000
01F4000000
01F8000000
01FC000000
02F8000000
02F8000000
03F4000000
0BF0000000
0FD0000000
1FC0000000
2F80000000
3F40000000
3F40000000
7F00000000
7F00000000
3FE0000000
1BE0000000
ENDCHAR
STARTCHAR bar
ENCODING 124
SWIDTH 306 0
DWIDTH 10 0
BBX 3 34 4 -5
BITMAP
78
BC
FC
FC
FC
FC
FC
FC
FC
FC
FC
FC
FC
FC
FC
FC
FC
FC
FC
FC
FC
FC
FC
FC
FC
FC
FC
FC
FC
FC
FC
FC
F8
A0
ENDCHAR
STARTCHAR braceright
ENCODING 125
SWIDTH 424 0
DWIDTH 14 0
BBX 16 34 -2 -5
BITMAP
000002A4
000007FE
000000BF
0000007F
000000BE
000000BE
000000FD
000001FC
000003F8
000007F0
00000BE0
00000FD0
00000FC0
00001FC0
00001FC0
00000FC0
000007E0
00001FF4
0000BFE0
0002FD00
0007F400
000BE000
001FD000
002FC000
002F8000
003F4000
007F0000
00BE0000
00FD0000
01FC0000
02F80000
07F40000
AFE00000
BF800000
ENDCHAR
STARTCHAR asciitilde
ENCODING 126
SWIDTH 624 0
DWIDTH 20 0
BBX 18 7 2 8
BITMAP
00AE000080
07FFD002D0
1FFFF407C0
3E0BFD1F40
B803FFFE00
F000FFF800
90002F9000
ENDCHAR
STARTCHAR nonbreakingspace
ENCODING 160
SWIDTH 293 0
DWIDTH 9 0
BBX 1 1 0 0
BITMAP
00
ENDCHAR
STARTCHAR exclamdown
ENCODING 161
SWIDTH 417 0
DWIDTH 13 0
BBX 12 26 1 -7
BITMAP
0002F4
0007FC
000BFD
000BFC
0002F4
000000
000000
001E00
003D00
00BC00
01F800
02F400
07F000
0BE000
0FD000
2FC000
3F8000
7F8000
BF4000
BF0000
FF0000
FE0000
FE0000
FD0000
7D0000
140000
ENDCHAR
STARTCHAR cent
ENCODING 162
SWIDTH 487 0
DWIDTH 16 0
BBX 14 24 2 0
BITMAP
000002D0
00000FC0
00001F40
00003F00
0001BD00
001FFE00
00BFEF80
02FE0BC0
0BF80BD0
1FE00FC0
2FD02FC0
3F807F40
7F402E00
7F000000
BF000000
BF000000
7F001800
3F807D00
1FFBF400
03FE8000
03D00000
07C00000
07800000
07400000
ENDCHAR
STARTCHAR sterling
ENCODING 163
SWIDTH 665 0
DWIDTH 21 0
BBX 23 24 -1 0
BITMAP
00000000BF80
00000007FFE0
0000001FD1F4
0000007F40F8
000000BE00F8
000001FD01F8
000003F803F4
000007F40FF0
00000FF07FD0
00001FE0FF80
00002FD07E00
00003F800400
0006FFFE0000
003FFFAF8000
0015FE000000
0001FD000000
0002FC000000
0003F8000000
0BFBF0000000
2FBFF4000000
B81FFF901B00
B87F6FFFFF00
7EFD07FFFE00
1FE4006FE400
ENDCHAR
STARTCHAR currency
ENCODING 164
SWIDTH 572 0
DWIDTH 18 0
BBX 18 21 2 1
BITMAP
0004000000
002D000140
003E001FD0
007E007F40
003FBEFD00
002FFFF400
007F47F000
01FD03F400
03F803F400
0BF003F400
0FE007F400
1FC00BF000
2FC00FE000
2F802FC000
1F807F4000
0FC1FD0000
1FFFFD0000
7EBEAE0000
B4001F0000
E0000B0000
0000010000
ENDCHAR
STARTCHAR yen
ENCODING 165
SWIDTH 583 0
DWIDTH 19 0
BBX 21 24 2 0
BITMAP
2F4000002F40
BFE00001FF80
EFF40007FE00
07F8000FF800
02FC002FE000
00FD00BF8000
00BE01FE0000
003E03F80000
002F07F00000
001F4FD00000
000F6F800000
000BBF000000
000BFD000000
005BFD400000
0BFFFFD00000
0BFFFE400000
000FD0000000
000FC0000000
2FFFFF400000
3FFFFE000000
017F40000000
007E00000000
00BD00000000
007800000000
ENDCHAR
STARTCHAR brokenbar
ENCODING 166
SWIDTH 292 0
DWIDTH 9 0
BBX 4 34 3 -5
BITMAP
2D
7D
7D
7D
7D
7D
7D
7D
7D
7D
7D
7D
7D
7D
74
00
00
00
00
2D
7D
7D
7D
7D
7D
7D
7D
7D
7D
7D
7D
7D
7D
74
ENDCHAR
STARTCHAR section
ENCODING 167
SWIDTH 583 0
DWIDTH 19 0
BBX 20 33 0 -7
BITMAP
000001AA40
00000BFFE0
00003F81F8
0000BE00BC
0001FD00BD
0001FC00FD
0002FC02FC
0002FD0BF8
0001FE1FF0
0001FF0B80
0000FF4000
0002FFC000
001FFFD000
00BF5FF000
01FC0BF400
02F807FC00
03F802FD00
03F801FE00
03FC00FE00
02FD00BE00
01FF00BE00
00FF40FC00
007FD7F400
002FFFD000
000FF90000
0007F40000
1903F80000
7D02F80000
BD01F80000
BE02F40000
BF03E00000
7FEF800000
0BF9000000
ENDCHAR
STARTCHAR dieresis
ENCODING 168
SWIDTH 412 0
DWIDTH 13 0
BBX 13 5 1 19
BITMAP
2F40BE00
BFC1FF40
BFC1FF00
7F40FE00
19006400
ENDCHAR
STARTCHAR copyright
ENCODING 169
SWIDTH 871 0
DWIDTH 28 0
BBX 25 24 2 0
BITMAP
000006FFA40000
0000BFFFFE4000
0007FE556FD000
002FD00007F400
00BE00BF80FD00
01F807FFE07E00
07E02FD0F42F00
0BC07F40F41F40
1F80FD01F40F80
2F02FC07F00F80
3E03F41FE00F80
7D07F02F800F80
7D07F005001F40
7D07E000002F40
BD07E000003F00
7D07F002007D00
7E02F81F00FC00
3F00FFFD02F400
2F401AA00BE000
0FD000002F8000
07F40001FE0000
01FE556FF80000
006FFFFF900000
0006BFE4000000
ENDCHAR
STARTCHAR ordfeminine
ENCODING 170
SWIDTH 564 0
DWIDTH 18 0
BBX 15 14 3 9
BITMAP
0006F4B8
002FFEF8
01FD0FF4
03F40BE0
0BD00FD0
1FC02F80
2F403F40
3F00BF00
7E01FE00
7E03FD00
7E0BBD00
7FFE7FF0
2FFC3FE0
0BE01F80
ENDCHAR
STARTCHAR guillemotleft
ENCODING 171
SWIDTH 662 0
DWIDTH 21 0
BBX 18 13 2 3
BITMAP
0000A000A0
0007D007D0
006F806F80
02FD02FD00
1FF41FF000
7F80BF8000
BF00BE0000
3F807F8000
1FE01FE000
07F407F400
01FD01FD00
007F007F00
0015001500
ENDCHAR
STARTCHAR logicalnot
ENCODING 172
SWIDTH 729 0
DWIDTH 23 0
BBX 19 10 2 2
BITMAP
2AAAAAAAA0
7FFFFFFFF4
00000001F4
00000001F4
00000001F4
00000001F4
00000002F4
00000002F4
00000002F0
00000001E0
ENDCHAR
STARTCHAR uni00AD
ENCODING 173
SWIDTH 833 0
DWIDTH 27 0
BBX 1 1 0 0
BITMAP
00
ENDCHAR
STARTCHAR registered
ENCODING 174
SWIDTH 742 0
DWIDTH 24 0
BBX 20 20 3 4
BITMAP
0001AFE400
001BFEFF80
007E4007E0
02F41501F8
07D2FFE07C
1F4FE6F82D
2E0550B81E
7C01E0B81F
B803D1F41F
B407EBD01F
F40BFE402E
F40FAE003D
F41F5F007C
F42E0B80F8
B83C07E2F0
7D10004BD0
2F40002F80
0BE406FD00
02FFFFE400
002BFA4000
ENDCHAR
STARTCHAR macron
ENCODING 175
SWIDTH 392 0
DWIDTH 13 0
BBX 12 3 2 18
BITMAP
2FFFF9
BFFFFC
BFFFF4
ENDCHAR
STARTCHAR degree
ENCODING 176
SWIDTH 405 0
DWIDTH 13 0
BBX 11 10 3 14
BITMAP
00BF90
07FBF4
1FD1F8
2F40FC
7F01F8
7E02F8
7D03F0
7E1FD0
2FFF40
06A400
ENDCHAR
STARTCHAR plusminus
ENCODING 177
SWIDTH 617 0
DWIDTH 20 0
BBX 16 21 2 0
BITMAP
0002C000
0003C000
0003C000
0003C000
0003C000
0003C000
0003C000
6AABEAAA
BFFFFFFE
0003C000
0003C000
0003C000
0003C000
0003C000
0003C000
00038000
00000000
00000000
00000000
6AAAAAAA
BFFFFFFE
ENDCHAR
STARTCHAR twosuperior
ENCODING 178
SWIDTH 458 0
DWIDTH 15 0
BBX 13 17 2 7
BITMAP
000BF900
007FBF40
00FC0FC0
02F40BC0
02F40FC0
02F81FC0
01F83F80
0010BF00
0002FD00
000BF400
007F8000
01FD0000
07E40000
1F801800
7FBFFC00
7FFFF800
295AA000
ENDCHAR
STARTCHAR threesuperior
ENCODING 179
SWIDTH 430 0
DWIDTH 14 0
BBX 13 17 2 7
BITMAP
000BF900
003FFF40
00BC1FC0
01F40FC0
01F40FC0
01F82F80
00507F40
0006FD00
002FF400
007FD000
0017F400
1902F800
7E02F800
BD03F400
7D0BE000
3FBF8000
0BF90000
ENDCHAR
STARTCHAR acute
ENCODING 180
SWIDTH 322 0
DWIDTH 10 0
BBX 7 8 3 17
BITMAP
0050
00F8
02FC
03F8
0BF0
1FD0
7E00
E400
ENDCHAR
STARTCHAR mu
ENCODING 181
SWIDTH 618 0
DWIDTH 20 0
BBX 20 25 -1 -9
BITMAP
0000F4002D
0003F800BE
000BF001FD
000FD002FC
002FC007F4
003F800FF0
00BF002FD0
00FE007FC0
01FD00BF80
03FC01FF40
07F807FF00
0BF40F7F00
0FF47D7F00
1FFFF47FF8
2FFFD03FF4
2F7E401F90
3E00000000
7E00000000
7D00000000
BD00000000
BD00000000
FC00000000
FC00000000
FC00000000
7400000000
ENDCHAR
STARTCHAR paragraph
ENCODING 182
SWIDTH 739 0
DWIDTH 24 0
BBX 26 28 1 -2
BITMAP
00000006BFFFF0
000001FFFFFFE0
00002FFFFFFF80
0000FFFFD0BD00
0003FFFF81FD00
000FFFFF01FC00
001FFFFE02F800
002FFFFD03F800
003FFFFD03F400
003FFFFC07F000
002FFFF80BE000
001FFFF40FD000
000BFFF40FC000
0002FFF01F8000
00006FE02F4000
00001FD03F0000
00002FC07E0000
00003FC0BD0000
00007F80FC0000
0000BF01F80000
0000FE02F40000
1FD1FD03F00000
7FC2F807D00000
FF03F40BC00000
FD0BE00F800000
FD1F802F000000
BFFE003D000000
1BE40074000000
ENDCHAR
STARTCHAR periodcentered
ENCODING 183
SWIDTH 353 0
DWIDTH 11 0
BBX 5 5 4 8
BITMAP
7E40
FFC0
FFC0
BF40
2900
ENDCHAR
STARTCHAR cedilla
ENCODING 184
SWIDTH 301 0
DWIDTH 10 0
BBX 6 8 2 -7
BITMAP
0A00
0780
03D0
03E0
07D0
6FD0
BF80
3E00
ENDCHAR
STARTCHAR onesuperior
ENCODING 185
SWIDTH 403 0
DWIDTH 13 0
BBX 9 17 4 7
BITMAP
001E40
00BF80
02FF80
1FFF80
BFBF40
A47F00
00BE00
00FC00
01F800
03F400
07E000
0BD000
1F8000
2F4000
7D0000
B80000
500000
ENDCHAR
STARTCHAR ordmasculine
ENCODING 186
SWIDTH 498 0
DWIDTH 16 0
BBX 13 14 3 9
BITMAP
000BF800
007FFF00
02FD1F80
07F01FC0
0FD01FC0
2FC01FC0
3F402F80
7F003F40
BE007F00
BE00FE00
BE02FC00
7E0BF000
2FFF8000
06F90000
ENDCHAR
STARTCHAR guillemotright
ENCODING 187
SWIDTH 665 0
DWIDTH 21 0
BBX 18 13 2 3
BITMAP
1F401F4000
1FD01FD000
07F407F400
02FD02FD00
00BF40BF40
002FC02FC0
001FD01FD0
00BF80BF80
02F907F900
1FD01FD000
BE00BE0000
E400E40000
4000400000
ENDCHAR
STARTCHAR onequarter
ENCODING 188
SWIDTH 988 0
DWIDTH 32 0
BBX 26 26 3 0
BITMAP
00000000050000
000000002F0000
000B40007E0000
007FC000FC0000
01FFD002F40000
1BFFC007E00000
BFAF800FD00000
243F401F800000
007F003F040000
00BE00BD0F8000
00FC01F80FC000
02F802F41FC000
03F007E02F8000
07E00FC03F4380
0FC01F40BF07E0
2F403F00FD0BE0
3E00BD02FC0FD0
7801F803F41FC0
1002F007E02F80
0007E007FFFFE0
000FC001FFFFF0
002F400000FD00
003E000001F800
00BD000003F000
01F8000007D000
01E000000A0000
ENDCHAR
STARTCHAR onehalf
ENCODING 189
SWIDTH 988 0
DWIDTH 32 0
BBX 27 26 3 0
BITMAP
000000001B0000
000000003E0000
000B4000BD0000
003FC001F80000
01FFC003F00000
07FFC00BE00000
6FFF800FC00000
BE7F402F400000
107F007E000000
00BD00BD000000
00FC01F802FE40
02F803F01FFFE0
03F007D03F42F4
07E00FC07E01F8
0FC02F407F02F8
2F407E002E43F4
3E00BD00000BF0
7801F800002FD0
0003F00000BF40
0007D00007FD00
000FC0001FE000
002F4000BF4000
003E0002F80240
00BD000BFBFF40
01F8000FFFFF00
01E0000BFFFD00
ENDCHAR
STARTCHAR threequarters
ENCODING 190
SWIDTH 1007 0
DWIDTH 32 0
BBX 29 26 1 0
BITMAP
0000000000050000
00000000007E0000
000BF90000FC0000
007FFF4002F80000
00F81F8003F00000
01F41FC00BD00000
02F41FC01F800000
01F43F803F000000
0050BF007E000000
000BFC00FC190000
007FE002F41F4000
007FE007E02F4000
0003F40BD03F0000
2D03F41F807E0A00
BD03F43F00FD0F80
BC0BE0BD01F81F80
7D1FC0FC03F42F40
2FFE02F40BE03F00
055007E00FC07E00
00000BC00BFFFF40
00001F8002FFFA40
00003F000002F000
0000BD000003D000
0000F800000B8000
0002F400001F0000
0003D00000280000
ENDCHAR
STARTCHAR questiondown
ENCODING 191
SWIDTH 516 0
DWIDTH 17 0
BBX 15 24 0 -6
BITMAP
000002E0
00000BF8
00000FFC
00000FF8
000007E0
00000000
00000100
00000F00
00002F00
00007F00
0002FD00
000BF800
007FE000
01FF8000
0BFD0000
2FF40000
3F80A400
BF02FC00
BD01FD00
FC01FC00
BC02F800
7D07F400
2FFFD000
06FE0000
ENDCHAR
STARTCHAR Agrave
ENCODING 192
SWIDTH 615 0
DWIDTH 20 0
BBX 24 31 -3 0
BITMAP
000000000B00
000000002F40
000000003F80
000000001FE0
0000000006F8
000000000054
000000000000
0000000001BE
000000001FFE
00000000BEBD
00000003F4FC
0000000F82F8
0000003E03F4
000000BC0BF0
000002F40FE0
000007E01FC0
00000FC02F80
00002F403F40
00007F6AFFE8
0002FFFFFFF8
001FFFFFFFE0
001BE001FD00
000BD002FC00
000F8002F800
002F4003F400
007E0003F400
00FD0007F000
02F80007F440
0BF00007FFD0
7FD00003FF80
7E000001BE00
ENDCHAR
STARTCHAR Aacute
ENCODING 193
SWIDTH 615 0
DWIDTH 20 0
BBX 26 32 -3 0
BITMAP
00000000000100
000000000007D0
00000000000BE0
00000000001FD0
00000000007F40
0000000001F900
00000000015000
00000000000000
0000000001BE00
000000001FFE00
00000000BEBD00
00000003F4FC00
0000000F82F800
0000003E03F400
000000BC0BF000
000002F40FE000
000007E01FC000
00000FC02F8000
00002F403F4000
00007F6AFFE800
0002FFFFFFF800
001FFFFFFFE000
001BE001FD0000
000BD002FC0000
000F8002F80000
002F4003F40000
007E0003F40000
00FD0007F00000
02F80007F44000
0BF00007FFD000
7FD00003FF8000
7E000001BE0000
ENDCHAR
STARTCHAR Acircumflex
ENCODING 194
SWIDTH 615 0
DWIDTH 20 0
BBX 26 31 -3 0
BITMAP
00000000002D00
0000000000BF00
0000000007FF40
000000006F9FC0
00000001FD0BE0
00000000500150
00000000000000
0000000001BE00
000000001FFE00
00000000BEBD00
00000003F4FC00
0000000F82F800
0000003E03F400
000000BC0BF000
000002F40FE000
000007E01FC000
00000FC02F8000
00002F403F4000
00007F6AFFE800
0002FFFFFFF800
001FFFFFFFE000
001BE001FD0000
000BD002FC0000
000F8002F80000
002F4003F40000
007E0003F40000
00FD0007F00000
02F80007F44000
0BF00007FFD000
7FD00003FF8000
7E000001BE0000
ENDCHAR
STARTCHAR Atilde
ENCODING 195
SWIDTH 615 0
DWIDTH 20 0
BBX 27 31 -3 0
BITMAP
000000001B9008
000000007FF42C
00000001FFFFF8
00000002D1FFE0
00000002406E40
00000000000000
00000000000000
0000000001BE00
000000001FFE00
00000000BEBD00
00000003F4FC00
0000000F82F800
0000003E03F400
000000BC0BF000
000002F40FE000
000007E01FC000
00000FC02F8000
00002F403F4000
00007F6AFFE800
0002FFFFFFF800
001FFFFFFFE000
001BE001FD0000
000BD002FC0000
000F8002F80000
002F4003F40000
007E0003F40000
00FD0007F00000
02F80007F44000
0BF00007FFD000
7FD00003FF8000
7E000001BE0000
ENDCHAR
STARTCHAR Adieresis
ENCODING 196
SWIDTH 615 0
DWIDTH 20 0
BBX 27 31 -3 0
BITMAP
00000000540050
00000001FE07FC
00000002FF0BFC
00000002FE0BF8
00000000F802F0
00000000000000
00000000000000
0000000001BE00
000000001FFE00
00000000BEBD00
00000003F4FC00
0000000F82F800
0000003E03F400
000000BC0BF000
000002F40FE000
000007E01FC000
00000FC02F8000
00002F403F4000
00007F6AFFE800
0002FFFFFFF800
001FFFFFFFE000
001BE001FD0000
000BD002FC0000
000F8002F80000
002F4003F40000
007E0003F40000
00FD0007F00000
02F80007F00000
0BF00007FED000
7FD00003FF8000
7E000001BE0000
ENDCHAR
STARTCHAR Aring
ENCODING 197
SWIDTH 615 0
DWIDTH 20 0
BBX 26 31 -3 0
BITMAP
0000000001BE40
000000000BFFD0
000000001F87E0
000000002F03E0
000000003E07D0
000000003E0BC0
000000002F1F40
000000000BFE00
000000001FFE00
00000000BEBD00
00000003E4FC00
0000000F82F800
0000003E03F400
000000BC0BF000
000002F40FE000
000007E01FC000
00000FC02F8000
00002F403F4000
00007F6AFFE800
0002FFFFFFF800
001FFFFFFFE000
001BE001FD0000
000BD002FC0000
000F8002F80000
002F4003F40000
007E0003F40000
00FD0007F00000
02F80007F44000
0BF00007FFD000
7FD00003FF8000
7E000001BE0000
ENDCHAR
STARTCHAR AE
ENCODING 198
SWIDTH 878 0
DWIDTH 28 0
BBX 33 24 -2 0
BITMAP
000000001BF9AFE400
00000000BFFFFFBE00
00000002FFFFE40F40
0000000BE4FF400F80
0000002F82FD001F40
000000BE07F8007F40
000001FC0FF002FE00
000003F41FD00BFC00
00000BD01FC00FF400
00001F801FC0068000
00003F001FC0000000
0000BD000FD0000000
0001FEBFFFFBD00000
0007FFFFFFFFF00000
007FFFFFFFFE400000
006FC0002FE4000000
002F4000BF80000000
007E0001FE00000000
00FD0002FC00050000
02F80002F8001E0000
07F00002F8007E0000
1FD00001FD06FC0000
BF400000BFFFE00000
B90000001BFA400000
ENDCHAR
STARTCHAR Ccedilla
ENCODING 199
SWIDTH 533 0
DWIDTH 17 0
BBX 19 31 1 -7
BITMAP
000002BE40
00002FFBD0
0001FE41F0
0007F801F4
001FE001F4
007F8003F4
00FF000BF4
02FD002FE0
03F800BFD0
0BF400FF40
0FF000BD00
1FD0000000
2FC0000000
3F80000000
3F80000000
7F40000000
7F40000000
7F40000000
7F40000000
3F80004000
2FC002E000
1FE01FE000
07FFFF8000
01FFE40000
003C000000
003D000000
003E000000
00BD000000
06FD000000
0BF8000000
03E0000000
ENDCHAR
STARTCHAR Egrave
ENCODING 200
SWIDTH 509 0
DWIDTH 16 0
BBX 18 31 1 0
BITMAP
00000B4000
00001F8000
00001FD000
00000BF000
000002FC00
0000001400
0000000000
00001BFA00
0001FFEFC0
000BF903E0
002FD002E0
00BF4007E0
01FE001FD0
02FC007FC0
03F802FF40
07F403FD00
07F001A400
03F0000000
02F8100000
00FFF80000
007FFC0000
02FF800000
0FF8000000
2FE0000000
7FC0000000
BF40014000
BF00078000
BF001F8000
7F40BF4000
1FFFF90000
06FE900000
ENDCHAR
STARTCHAR Eacute
ENCODING 201
SWIDTH 509 0
DWIDTH 16 0
BBX 18 32 1 0
BITMAP
0000000040
00000003E0
00000007F0
0000000FE0
0000002F80
000000BE00
0000005000
0000000000
00001BFA00
0001FFEFC0
000BF903E0
002FD002E0
00BF4007E0
01FE001FD0
02FC007FC0
03F802FF40
07F403FD00
07F001A400
03F0000000
02F8100000
00FFF80000
007FFC0000
02FF800000
0FF8000000
2FE0000000
7FC0000000
BF40014000
BF00078000
BF001F8000
7F40BF4000
1FFFF90000
06FE900000
ENDCHAR
STARTCHAR Ecircumflex
ENCODING 202
SWIDTH 509 0
DWIDTH 16 0
BBX 18 31 1 0
BITMAP
0000001E00
0000007F40
000002FFC0
00001FDFD0
0000FE07F0
0000540050
0000000000
00001BFA00
0001FFEFC0
000BF903E0
002FD002E0
00BF4007E0
01FE001FD0
02FC007FC0
03F802FF40
07F403FD00
07F001A400
03F0000000
02F8100000
00FFF80000
007FFC0000
02FF800000
0FF8000000
2FE0000000
7FC0000000
BF40014000
BF00078000
BF001F8000
7F40BF4000
1FFFF90000
06FE900000
ENDCHAR
STARTCHAR Edieresis
ENCODING 203
SWIDTH 509 0
DWIDTH 16 0
BBX 20 31 1 0
BITMAP
0000140054
0000FF42FD
0001FF43FE
0001FF03FD
0000BD01F8
0000000000
0000000000
00001BFA00
0001FFEFC0
000BF903E0
002FD002E0
00BF4007E0
01FE001FD0
02FC007FC0
03F802FF40
07F403FD00
07F001A400
03F0000000
02F8100000
00FFF80000
007FFC0000
02FF800000
0FF8000000
2FE0000000
7FC0000000
BF40014000
BF00078000
BF001F8000
7F40BF4000
1FFFF90000
06FE900000
ENDCHAR
STARTCHAR Igrave
ENCODING 204
SWIDTH 327 0
DWIDTH 10 0
BBX 12 31 0 0
BITMAP
0002C0
000BD0
000BF0
0007F8
0001BE
000015
000000
006FE0
02FFF8
00A1FC
0001FC
0002FC
0003F8
0003F8
0007F4
000BF0
000FE0
001FD0
001FD0
002FC0
003F40
00BF00
00FE00
01FD00
02F800
07F400
0BE000
1FC000
7F4000
FD0000
F40000
ENDCHAR
STARTCHAR Iacute
ENCODING 205
SWIDTH 327 0
DWIDTH 10 0
BBX 15 32 0 0
BITMAP
00000040
000001F4
000002F8
000007F4
00000FE0
00003F40
00001400
00000000
006FE000
02FFF800
00A1FC00
0001FC00
0002FC00
0003F800
0003F800
0007F400
000BF000
000FE000
001FD000
001FD000
002FC000
003F4000
00BF0000
00FE0000
01FD0000
02F80000
07F40000
0BE00000
1FC00000
7F400000
FD000000
F4000000
ENDCHAR
STARTCHAR Icircumflex
ENCODING 206
SWIDTH 327 0
DWIDTH 10 0
BBX 15 31 0 0
BITMAP
00000B80
00002FC0
0001FFE0
001BE7F4
007F82F8
00140054
00000000
006FE000
02FFF800
00A1FC00
0001FC00
0002FC00
0003F800
0003F800
0007F400
000BF000
000FE000
001FD000
001FD000
002FC000
003F4000
00BF0000
00FE0000
01FD0000
02F80000
07F40000
0BE00000
1FC00000
7F400000
FD000000
F4000000
ENDCHAR
STARTCHAR Idieresis
ENCODING 207
SWIDTH 327 0
DWIDTH 10 0
BBX 17 31 0 0
BITMAP
0015001400
007F80FF00
00BFC1FF40
00BF81FF00
002E00BD00
0000000000
0000000000
006FE00000
02FFF80000
00A1FC0000
0001FC0000
0002FC0000
0003F80000
0003F80000
0007F40000
000BF00000
000FE00000
001FD00000
001FD00000
002FC00000
003F400000
00BF000000
00FE000000
01FD000000
02F8000000
07F4000000
0BE0000000
1FC0000000
7F40000000
FD00000000
F400000000
ENDCHAR
STARTCHAR Eth
ENCODING 208
SWIDTH 630 0
DWIDTH 20 0
BBX 20 24 1 0
BITMAP
006BFFA400
07FFFFFE40
0FFE557FD0
07E0000BF4
00014002F8
000FE001FC
002FD000FD
007F8000FD
00BF0000FD
2AFFAA00FD
BFFFFF01FD
FFFFFD02FC
07F40003F8
0FF0000BF4
1FD0000FE0
2FC0002FC0
3F8000BF40
3F4001FE00
7F0007F800
BF001FE000
BE00BF8000
BE0BFD0000
3FBFE00000
0BF9000000
ENDCHAR
STARTCHAR Ntilde
ENCODING 209
SWIDTH 708 0
DWIDTH 23 0
BBX 26 31 0 0
BITMAP
00000000690090
00000002FF40E0
0000000BFFD2D0
0000001E1FFF80
0000002C07FE00
0000001401A400
00000000000000
000007D000B900
00002FE001FF40
0000BFD000BF80
0001FFD0007F80
0003EFD0003F80
000BCFC0003F80
001F5FC0007F40
002E1FD0007F00
007D1FD000BD00
00BC0FD000FC00
01F80FD001F800
02F00FE003F000
03E00FE007D000
07D00BF00BC000
0BC00BF01F4000
0FC007F42E0000
1F8003F87D0000
2F4002FCB80000
3F0002FDF40000
3F0001FFE00000
7E0000BFD00000
7D00007FC00000
7D00002F800000
2C00000B800000
ENDCHAR
STARTCHAR Ograve
ENCODING 210
SWIDTH 655 0
DWIDTH 21 0
BBX 20 31 2 0
BITMAP
000000B400
000001F800
000001FD00
000000FF00
0000002F80
0000000140
0000000000
000006FE40
0000BFEFE0
0002FD02F4
001FF000FC
003FC000FD
00FF4000FD
02FD0000FD
07F80000FD
0BF40001FD
1FE00001FD
2FD00002FC
3F800003F8
7F400007F4
BF00000FF0
BE00001FE0
FE00003FC0
FD00007F80
FD0000FE00
FD0002FD00
BD000BF400
7E002FD000
3F41BF4000
1FFFF80000
02BF900000
ENDCHAR
STARTCHAR Oacute
ENCODING 211
SWIDTH 655 0
DWIDTH 21 0
BBX 20 31 2 0
BITMAP
000000003E
000000007F
00000000FE
00000002F8
0000000BE0
0000000500
0000000000
000006FE40
0000BFEFE0
0002FD02F4
001FF000FC
003FC000FD
00FF4000FD
02FD0000FD
07F80000FD
0BF40001FD
1FE00001FD
2FD00002FC
3F800003F8
7F400007F4
BF00000FF0
BE00001FE0
FE00003FC0
FD00007F80
FD0000FE00
FD0002FD00
BD000BF400
7E002FD000
3F41BF4000
1FFFF80000
02BF900000
ENDCHAR
STARTCHAR Ocircumflex
ENCODING 212
SWIDTH 655 0
DWIDTH 21 0
BBX 20 31 2 0
BITMAP
00000001E0
0000000BF4
0000002FF8
000002FDFD
00000FE07F
0000050015
0000000000
000006FE40
0000BFEFE0
0002FD02F4
001FF000FC
003FC000FD
00FF4000FD
02FD0000FD
07F80000FD
0BF40001FD
1FE00001FD
2FD00002FC
3F800003F8
7F400007F4
BF00000FF0
BE00001FE0
FE00003FC0
FD00007F80
FD0000FE00
FD0002FD00
BD000BF400
7E002FD000
3F41BF4000
1FFFF80000
02BF900000
ENDCHAR
STARTCHAR Otilde
ENCODING 213
SWIDTH 655 0
DWIDTH 21 0
BBX 22 31 2 0
BITMAP
000000AE0090
000003FF82D0
00000FFFFFC0
00001E1FFF40
00001802F800
000000000000
000000000000
000006FE4000
0000BFEFE000
0002FD02F400
001FF000FC00
003FC000FD00
00FF4000FD00
02FD0000FD00
07F80000FD00
0BF40001FD00
1FE00001FD00
2FD00002FC00
3F800003F800
7F400007F400
BF00000FF000
BE00001FE000
FE00003FC000
FD00007F8000
FD0000FE0000
FD0002FD0000
BD000BF40000
7E002FD00000
3F41BF400000
1FFFF8000000
02BF90000000
ENDCHAR
STARTCHAR Odieresis
ENCODING 214
SWIDTH 655 0
DWIDTH 21 0
BBX 22 31 2 0
BITMAP
000001400540
00000FF03FD0
00001FF47FD0
00001FF03FD0
00000BD01F40
000000000000
000000000000
000006FE4000
0000BFEFE000
0002FD02F400
001FF000FC00
003FC000FD00
00FF4000FD00
02FD0000FD00
07F80000FD00
0BF40001FD00
1FE00001FD00
2FD00002FC00
3F800003F800
7F400007F400
BF00000FF000
BE00001FE000
FE00003FC000
FD00007F8000
FD0000FE0000
FD0002FD0000
BD000BF40000
7E002FD00000
3F41BF400000
1FFFF8000000
02BF90000000
ENDCHAR
STARTCHAR multiply
ENCODING 215
SWIDTH 573 0
DWIDTH 18 0
BBX 14 13 3 5
BITMAP
780002D0
7E000BD0
1F802F40
0BD0BD00
02F6F400
00BFD000
003F8000
00BFD000
02FBF000
0BD0FC00
2F403F00
BE001F80
B40007C0
ENDCHAR
STARTCHAR Oslash
ENCODING 216
SWIDTH 655 0
DWIDTH 21 0
BBX 20 30 3 -3
BITMAP
000000002E
00000000BE
00000002FC
000006FFF4
00007FEFE0
0002FD1FF8
000FF03EFC
003FC07CFD
00BF40F4FD
02FD02E0FD
07F807C0FD
0BF40B41FD
1FE01E01FD
2FD03C02FC
3F80B403F8
7F40E007F4
BF02D00FF0
BE07801FE0
FE0B003FC0
FD1E007F40
FD3C00FE00
FDB402FC00
FEF00BF400
BFD02FD000
3F81BF4000
2FFFF80000
3EBF900000
BC00000000
F400000000
5000000000
ENDCHAR
STARTCHAR Ugrave
ENCODING 217
SWIDTH 624 0
DWIDTH 20 0
BBX 22 31 0 0
BITMAP
000000780000
000001FC0000
000001FD0000
000000BF0000
0000002FC000
000000014000
000000000000
0007E40002E0
000FF80007F0
0003F8000BE0
0003F4001FD0
0007F0003F80
000BE0007F40
001FD000FF00
002FC001FE00
003F8003FD00
007F000BFC00
00FE000FF800
01FC002FF400
02F8007FF000
07F400BFE000
0BE001FFD000
0FD003EFC000
1FC00BAF8000
2F801F2F4000
3F407D3F4000
7F00F43F0000
7F47E07F4000
7FFF803FFD00
3FFD002FF800
0BE4000BE000
ENDCHAR
STARTCHAR Uacute
ENCODING 218
SWIDTH 624 0
DWIDTH 20 0
BBX 22 32 0 0
BITMAP
000000000400
000000002E00
000000007F00
00000000BF00
00000002FC00
0000000BE000
000000050000
000000000000
0007E40002E0
000FF80007F0
0003F8000BE0
0003F4001FD0
0007F0003F80
000BE0007F40
001FD000FF00
002FC001FE00
003F8003FD00
007F000BFC00
00FE000FF800
01FC002FF400
02F8007FF000
07F400BFE000
0BE001FFD000
0FD003EFC000
1FC00BAF8000
2F801F2F4000
3F407D3F4000
7F00F43F0000
7F47E07F4000
7FFF803FFD00
3FFD002FF800
0BE4000BE000
ENDCHAR
STARTCHAR Ucircumflex
ENCODING 219
SWIDTH 624 0
DWIDTH 20 0
BBX 22 31 0 0
BITMAP
00000001E000
00000007F800
0000002FFC00
000001FDBE00
00000FE07F40
000005400500
000000000000
0007E40002E0
000FF80007F0
0003F8000BE0
0003F4001FD0
0007F0003F80
000BE0007F40
001FD000FF00
002FC001FE00
003F8003FD00
007F000BFC00
00FE000FF800
01FC002FF400
02F8007FF000
07F400BFE000
0BE001FFD000
0FD003EFC000
1FC00BAF8000
2F801F2F4000
3F407D3F4000
7F00F43F0000
7F47E07F4000
7FFF803FFD00
3FFD002FF800
0BE4000BE000
ENDCHAR
STARTCHAR Udieresis
ENCODING 220
SWIDTH 624 0
DWIDTH 20 0
BBX 22 31 0 0
BITMAP
000001500540
00000FF42FD0
00001FF43FE0
00000FF43FD0
000007D01F80
000000000000
000000000000
0007E40002E0
000FF80007F0
0003F8000BE0
0003F4001FD0
0007F0003F80
000BE0007F40
001FD000FF00
002FC001FE00
003F8003FD00
007F000BFC00
00FE000FF800
01FC002FF400
02F8007FF000
07F400BFE000
0BE001FFD000
0FD003EFC000
1FC00BAF8000
2F801F2F4000
3F407D3F4000
7F00F43F0000
7F47E07F4000
7FFF803FFD00
3FFD002FF800
0BE4000BE000
ENDCHAR
STARTCHAR Yacute
ENCODING 221
SWIDTH 580 0
DWIDTH 19 0
BBX 22 40 0 -9
BITMAP
000000002800
000000007E00
00000000BF00
00000001FD00
00000007F400
0000000F4000
000000000000
000BE00002D0
000FF80007F0
0007F8000FE0
0003F4001FD0
0007F0003F80
000FE000BF40
001FD000FF00
002FC002FE00
003F4003FD00
00BF000BFC00
00FD001FF400
01FC002FF000
03F8007FE000
07F000FFD000
0BE002FFC000
0FD003EF8000
1FC00BBF4000
3F401E7F0000
3F407DBE0000
7F01F4FD0000
7F47D2F80000
7FFF83F40000
3FFD0BE00000
0BE00FD00000
00002F800000
00007F000000
0000FD000000
0002F8000000
000BF0000000
002FC0000000
00BF00000000
0BF800000000
1F9000000000
ENDCHAR
STARTCHAR Thorn
ENCODING 222
SWIDTH 527 0
DWIDTH 17 0
BBX 20 24 -2 0
BITMAP
002BF80000
00BFFE0000
0028BF0000
0000BF0000
0000FE0000
0000FE0000
0001FFF900
0001FFBFD0
0002F802F4
0003F401FC
0007F400FD
000BF001FC
000FE002FC
001FD007F8
002F801FF0
003F45FFD0
007FFFFE00
00FFFF9000
01FC000000
03F8000000
0BF0000000
1FD0000000
7F40000000
7900000000
ENDCHAR
STARTCHAR germandbls
ENCODING 223
SWIDTH 520 0
DWIDTH 17 0
BBX 20 30 -2 -4
BITMAP
000001BF80
000007FFF4
00001FD0F8
00003F40BC
0000BE00BD
0001FC00FC
0002F801FC
0003F403F8
0007F00BF0
000BE01FD0
000FD07F40
001FC0FD00
002F82F400
003F43F000
003F47E000
007F07F000
00BE03F800
00FD02FD00
00FD01FF00
01FC007F80
02F8002FD0
03F4740FD0
07F4F80BD0
0BF0FD0BC0
0FE0BFFF00
1FD01BE400
2FC0000000
3F40000000
7F00000000
7D00000000
ENDCHAR
STARTCHAR agrave
ENCODING 224
SWIDTH 541 0
DWIDTH 17 0
BBX 17 26 1 -1
BITMAP
00006D0000
0000FE0000
0000FE0000
0000BE0000
00007E0000
00003E0000
00001F4000
0000024000
0000000000
0006F92E00
002FEFBF40
00BE07FE00
02F802FD00
0BF003F800
1FD007F400
2FC00BF000
7F400FE000
BF002FC000
BF003F8000
FE00BF4000
FE01FF4000
FE03EF4000
BE0B6F9900
3FFD2FFC00
0BE01FF400
0000068000
ENDCHAR
STARTCHAR aacute
ENCODING 225
SWIDTH 541 0
DWIDTH 17 0
BBX 17 26 1 -1
BITMAP
000001F000
000002F800
000003F800
00000BF000
00001FD000
00003F4000
0000F80000
0000500000
0000000000
0006F92E00
002FEFBF40
00BE07FE00
02F802FD00
0BF003F800
1FD007F400
2FC00BF000
7F400FE000
BF002FC000
BF003F8000
FE00BF4000
FE01FF4000
FE03EF4000
BE0B6F9900
3FFD2FFC00
0BE01FF400
0000068000
ENDCHAR
STARTCHAR acircumflex
ENCODING 226
SWIDTH 541 0
DWIDTH 17 0
BBX 17 26 1 -1
BITMAP
0000006000
000002F800
00000BF800
00007FFC00
0002FCBD00
001FE07E00
002E402F00
0000000000
0000000000
0006F92E00
002FEFBF40
00BE07FE00
02F802FD00
0BF003F800
1FD007F400
2FC00BF000
7F400FE000
BF002FC000
BF003F8000
FE00BF4000
FE01FF4000
FE03EF4000
BE0B6F9900
3FFD2FFC00
0BE01FF400
0000068000
ENDCHAR
STARTCHAR atilde
ENCODING 227
SWIDTH 541 0
DWIDTH 17 0
BBX 18 25 1 -1
BITMAP
0000BE0090
0007FF82D0
000FFFFF80
002D1FFF00
002802F800
0000000000
0000000000
0000000000
0006F92E00
002FEFBF40
00BE07FE00
02F802FD00
0BF003F800
1FD007F400
2FC00BF000
7F400FE000
BF002FC000
BF003F8000
FE00BF4000
FE01FF4000
FE03EF4000
BE0B6F9900
3FFD2FFC00
0BE01FF400
0000068000
ENDCHAR
STARTCHAR adieresis
ENCODING 228
SWIDTH 541 0
DWIDTH 17 0
BBX 18 25 1 -1
BITMAP
000BD01F80
002FF07FD0
002FF07FD0
001FE03F80
0006401900
0000000000
0000000000
0000000000
0006F92E00
002FEFBF40
00BE07FE00
02F802FD00
0BF003F800
1FD007F400
2FC00BF000
7F400FE000
BF002FC000
BF003F8000
FE00BF4000
FE01FF4000
FE03EF4000
BE0B6F9900
3FFD2FFC00
0BE01FF400
0000068000
ENDCHAR
STARTCHAR aring
ENCODING 229
SWIDTH 541 0
DWIDTH 17 0
BBX 17 26 1 -1
BITMAP
00001BE400
0000BFFD00
0001F43E00
0003F03E00
0003F0BD00
0002FFF400
0000BF9000
0000000000
0000000000
0006F92E00
002FEFBF40
00BE07FE00
02F802FD00
0BF003F800
1FD007F400
2FC00BF000
7F400FE000
BF002FC000
BF003F8000
FE00BF4000
FE01FF4000
FE03EF4000
BE0B6F9900
3FFD2FFC00
0BE01FF400
0000068000
ENDCHAR
STARTCHAR ae
ENCODING 230
SWIDTH 769 0
DWIDTH 25 0
BBX 23 16 1 0
BITMAP
0006F92E6F90
002FEFBFFFF4
00BE03FF82FC
02F802FE02FC
0BF003FC02FC
1FD007F407F8
2F800BF01FF4
7F400FE0BFD0
BF002FEBFE00
BE003FFF9000
FE00BFD00000
FE01EFD00040
FE03CFE002D0
BF0B4BF01BC0
3FFD03FEFF40
0BE000AFE400
ENDCHAR
STARTCHAR ccedilla
ENCODING 231
SWIDTH 465 0
DWIDTH 15 0
BBX 14 23 1 -7
BITMAP
0006FE00
002FEFC0
01FE07D0
03F807E0
0BE00BE0
1FD01FD0
3F803F80
7F402F00
BF000000
FE000000
FE000000
FE000400
BE001C00
7F40BC00
2FFFF400
07FE4000
00F00000
00B40000
00F80000
02F80000
1BF40000
2FE00000
0F800000
ENDCHAR
STARTCHAR egrave
ENCODING 232
SWIDTH 471 0
DWIDTH 15 0
BBX 14 25 1 0
BITMAP
0001F400
0003F400
0007F400
0003F400
0002F400
0000F800
00007C00
00001800
00000000
0002FE00
002FFFC0
00BE0BD0
02F80BE0
07F00BE0
1FE01FD0
2FC03FC0
3F81FF40
7F5BF900
BFFF9000
BF540000
BE000000
7F000A00
3F807E00
1FFBF800
06FF9000
ENDCHAR
STARTCHAR eacute
ENCODING 233
SWIDTH 471 0
DWIDTH 15 0
BBX 14 25 1 0
BITMAP
00000780
00000BD0
00001FD0
00002FC0
00007F40
0001FC00
0007E000
00050000
00000000
0002FE00
002FFFC0
00BE0BD0
02F80BE0
07F00BE0
1FE01FD0
2FC03FC0
3F81FF40
7F5BF900
BFFF9000
BF540000
BE000000
7F000A00
3F807E00
1FFBF800
06FF9000
ENDCHAR
STARTCHAR ecircumflex
ENCODING 234
SWIDTH 471 0
DWIDTH 15 0
BBX 15 25 1 0
BITMAP
00000240
00000BD0
00002FE0
0001FFE0
000BE3F0
00BF42F8
00B800B8
00000000
00000000
0002FE00
002FFFC0
00BE0BD0
02F80BE0
07F00BE0
1FE01FD0
2FC03FC0
3F81FF40
7F5BF900
BFFF9000
BF540000
BE000000
7F000A00
3F807E00
1FFBF800
06FF9000
ENDCHAR
STARTCHAR edieresis
ENCODING 235
SWIDTH 471 0
DWIDTH 15 0
BBX 16 24 1 0
BITMAP
002F40BD
00BFC2FF
00FF82FF
007F41FD
00190064
00000000
00000000
00000000
0002FE00
002FFFC0
00BE0BD0
02F80BE0
07F00BE0
1FD01FD0
2FC07F80
3F82FE00
7FAFF400
BFFA4000
BE000000
BF000000
7F001E00
3F807E00
1FFFF800
06FE9000
ENDCHAR
STARTCHAR igrave
ENCODING 236
SWIDTH 286 0
DWIDTH 9 0
BBX 8 25 1 0
BITMAP
00BC
01FC
01FC
01FC
00FC
007D
002E
0006
0000
02F8
07FC
02FC
02F8
03F4
07E0
0BD0
1FC0
2F40
3F00
7E00
BD00
FD00
FFE0
FFD0
6F40
ENDCHAR
STARTCHAR iacute
ENCODING 237
SWIDTH 286 0
DWIDTH 9 0
BBX 10 25 1 0
BITMAP
0002D0
0003F0
000BF0
000FE0
002F80
00BE00
02F400
014000
000000
02F800
07FC00
02FC00
02F800
03F400
07E000
0BD000
1FC000
2F4000
3F0000
7E0000
BD0000
FD0000
FFE000
FFD000
6F4000
ENDCHAR
STARTCHAR icircumflex
ENCODING 238
SWIDTH 286 0
DWIDTH 9 0
BBX 12 25 1 0
BITMAP
000090
0007F0
001FF4
00BFF8
07F5F8
2FD0BD
7D007D
000000
000000
02F800
07FC00
02FC00
02F800
03F400
07E000
0BD000
1FC000
2F4000
3F0000
7E0000
BD0000
FD0000
FFE000
FFD000
6F4000
ENDCHAR
STARTCHAR idieresis
ENCODING 239
SWIDTH 286 0
DWIDTH 9 0
BBX 13 24 1 0
BITMAP
1F806E40
3FE0FF80
3FD0FF80
2FC0BF40
0A001900
00000000
00000000
00000000
02F80000
07FC0000
02FC0000
02F80000
03F40000
07E00000
0BD00000
1FC00000
2F400000
3F000000
7E000000
BD000000
FD000000
FFE00000
FFD00000
6F400000
ENDCHAR
STARTCHAR eth
ENCODING 240
SWIDTH 524 0
DWIDTH 17 0
BBX 19 27 1 0
BITMAP
0000014000
000002D000
000001F000
000000B800
0000007EF4
000001BFFC
00000BFF54
00003FBE00
0000A43F00
0000003F00
0000003F00
0002FD7E00
002FEFBE00
00BE03FD00
02F802FD00
07F002FC00
0FD003F800
2FC007F400
3F400BF000
7F400FE000
BF002FC000
BE003F4000
BE00BE0000
BE01FC0000
7F07F00000
2FFF800000
0BF9000000
ENDCHAR
STARTCHAR ntilde
ENCODING 241
SWIDTH 561 0
DWIDTH 18 0
BBX 19 24 0 0
BITMAP
00002F8024
0001FFE0B4
0003FFFFF0
000B47FFC0
000A00BE00
0000000000
0000000000
0000000000
00BD00BD00
01FF07FF40
00BE1FFF80
00BE7D3F80
00FDF43F40
01FED07F00
02FB80FE00
03FE01FC00
07FC03F800
0BF407F000
1FD00BE000
2FC00FD000
3F400FD100
BF000FFF40
FD000BFE00
780002F800
ENDCHAR
STARTCHAR ograve
ENCODING 242
SWIDTH 514 0
DWIDTH 16 0
BBX 15 25 1 0
BITMAP
00002E00
0000BF00
0000BE00
0000BE00
00007F00
00002F00
00000B80
00000140
00000000
0006FE00
002FFFD0
00FE07E0
03F807F0
0BF007F4
1FE007F4
3FC007F4
7F800BF0
BF400FE0
BF002FD0
BE003FC0
BE00BF40
BE01FE00
7F07F800
2FFFD000
06FA0000
ENDCHAR
STARTCHAR oacute
ENCODING 243
SWIDTH 514 0
DWIDTH 16 0
BBX 15 25 1 0
BITMAP
000000F4
000001FC
000002F8
000007F4
00000FE0
00002F80
0000B900
00005000
00000000
0006FE00
002FFFD0
00FE07E0
03F807F0
0BF007F4
1FE007F4
3FC007F4
7F800BF0
BF400FE0
BF002FD0
BE003FC0
BE00BF40
BE01FE00
7F07F800
2FFFD000
06FA0000
ENDCHAR
STARTCHAR ocircumflex
ENCODING 244
SWIDTH 514 0
DWIDTH 16 0
BBX 17 25 1 0
BITMAP
0000006400
000001FC00
000007FC00
00002FFD00
0001FD7E00
001BE03F00
001F401F40
0000000000
0000000000
0006FE0000
002FFFD000
00FE07E000
03F807F000
0BF007F400
1FE007F400
3FC007F400
7F800BF000
BF400FE000
BF002FD000
BE003FC000
BE00BF4000
BE01FE0000
7F07F80000
2FFFD00000
06FA000000
ENDCHAR
STARTCHAR otilde
ENCODING 245
SWIDTH 514 0
DWIDTH 16 0
BBX 18 24 1 0
BITMAP
0000BE00A0
0003FFC1E0
000BFFFFC0
001E0BFF40
001802F800
0000000000
0000000000
0000000000
0006FE0000
002FFFD000
00FE07E000
03F807F000
0BF007F400
1FE007F400
3FC007F400
7F800BF000
BF400FE000
BF002FD000
BE003FC000
BE00BF4000
BE01FE0000
7F07F80000
2FFFD00000
06FA000000
ENDCHAR
STARTCHAR odieresis
ENCODING 246
SWIDTH 514 0
DWIDTH 16 0
BBX 18 24 1 0
BITMAP
0007E01F80
001FF43FE0
001FF43FD0
000FE02FC0
0002400A00
0000000000
0000000000
0000000000
0006FE0000
002FFFD000
00FE07E000
03F807F000
0BF007F400
1FE007F400
3FC007F400
7F800BF000
BF400FE000
BF002FD000
BE003FC000
BE00BF4000
BE01FE0000
7F07F80000
2FFFD00000
06FA000000
ENDCHAR
STARTCHAR divide
ENCODING 247
SWIDTH 617 0
DWIDTH 20 0
BBX 17 16 2 4
BITMAP
0001500000
0007F80000
000BF80000
0007F40000
0001900000
0000000000
0000000000
2AAAAAAA40
7FFFFFFE00
0000000000
0000000000
0001400000
000BF40000
000FF40000
000BF00000
0001800000
ENDCHAR
STARTCHAR oslash
ENCODING 248
SWIDTH 514 0
DWIDTH 16 0
BBX 16 22 1 -3
BITMAP
00000014
000000BE
000002FC
0006FFF4
002FEFD0
00FE1FE0
03F82FF0
0BF077F4
1FD0E3F4
3FC2C7F4
7F434BF0
BF0A0FE0
BE1D1FD0
BE383FC0
BDB0BF40
BED1FE00
7FC7F800
2FFFD000
2FFE0000
3E000000
7C000000
14000000
ENDCHAR
STARTCHAR ugrave
ENCODING 249
SWIDTH 553 0
DWIDTH 18 0
BBX 18 25 0 0
BITMAP
000006D000
00000FE000
00000FE000
00000FD000
000007E000
000003E000
000001F400
0000002400
0000000000
00BD000790
01FF000FD0
00BF002FC0
00BE007F40
00FD00FF00
01FC01FE00
03F803FC00
07F40BF800
0BF01FF400
1FD03FE000
2FC0F7E000
3F42DBD000
3F4B8BD000
7FFE0FFF00
3FF80BFE00
1B9002F400
ENDCHAR
STARTCHAR uacute
ENCODING 250
SWIDTH 553 0
DWIDTH 18 0
BBX 18 25 0 0
BITMAP
0000001E00
0000002F80
0000003F80
000000BF00
000001FD00
000003F400
00000F8000
0000050000
0000000000
00BD000790
01FF000FD0
00BF002FC0
00BE007F40
00FD00FF00
01FC01FD00
03F803FC00
07F40BF800
0BE01FF400
1FD07FE000
2FC0F7D000
3F42DBD000
3F4B8BD100
7FFE0FFF00
3FF80BFE00
1B9002F400
ENDCHAR
STARTCHAR ucircumflex
ENCODING 251
SWIDTH 553 0
DWIDTH 18 0
BBX 18 25 0 0
BITMAP
0000000A00
0000002F80
000000BF80
000007FFC0
00002F8BD0
0001FE07E0
0002E402F0
0000000000
0000000000
00BD000790
01FF000FD0
00BF002FC0
00BE007F40
00FD00FF00
01FC01FD00
03F803FC00
07F40BF800
0BE01FF400
1FD07FE000
2FC0F7D000
3F42DBD000
3F4B8BD100
7FFE0FFF00
3FF80BFE00
1B9002F400
ENDCHAR
STARTCHAR udieresis
ENCODING 252
SWIDTH 553 0
DWIDTH 18 0
BBX 20 24 0 0
BITMAP
0000BD02F8
0002FF07FD
0002FF07FC
0001FD03F8
0000640190
0000000000
0000000000
0000000000
00BD000790
01FF000FD0
00BF002FC0
00BE007F40
00FD00FF00
01FC01FD00
03F803FC00
07F40BF800
0BE01FF400
1FD07FE000
2FC0F7D000
3F42DBD000
3F4B8BD100
7FFE0FFF00
3FF80BFE00
1B9002F400
ENDCHAR
STARTCHAR yacute
ENCODING 253
SWIDTH 549 0
DWIDTH 18 0
BBX 17 34 1 -9
BITMAP
000000F400
000001F800
000003F800
000007F400
00000FD000
00002F4000
0000B90000
0000500000
0000000000
02F8001F40
07FD003F80
01FD007F00
02FC00FE00
03F802FD00
07F407FC00
0BF00BF800
0FD01FF400
2FC03FF000
3F80BFE000
7F02EFD000
BE0B9FC000
FD2F2F8000
FFFC3F0000
BFF07E0000
2F40BD0000
0000F80000
0002F40000
0007E00000
000FC00000
003F400000
00FE000000
07F8000000
3FD0000000
1900000000
ENDCHAR
STARTCHAR thorn
ENCODING 254
SWIDTH 552 0
DWIDTH 18 0
BBX 20 35 -3 -9
BITMAP
000003D000
000007E000
000007E000
00000BD000
00000FD000
00001FC000
00002F8000
00002F4000
00003F0000
00007E0000
0000BD2FD0
0000F9FFF8
0001FBD1FC
0002FF40FD
0003FD00FD
0007F800FD
000BF001FD
000FD002FC
001FC003F8
002F8007F4
003F400FE0
007F002FC0
00BF00BF40
00FF86FD00
01FFFFE400
02F8BE4000
03F4000000
07F0000000
0BE0000000
0FD0000000
1FC0000000
3F40000000
7F00000000
BE00000000
7800000000
ENDCHAR
STARTCHAR ydieresis
ENCODING 255
SWIDTH 549 0
DWIDTH 18 0
BBX 18 33 1 -9
BITMAP
000BE01F80
001FF47FD0
001FF07FD0
000FE03FC0
0006400900
0000000000
0000000000
0000000000
02F8001F40
07FD003F80
01FD007F00
02FC00FE00
03F802FD00
07F407FC00
0BF00BF800
0FD01FF400
2FC03FF000
3F80BFE000
7F02EFD000
BE0B9FC000
FD2F2F8000
FFFC3F0000
BFF07E0000
2F40BD0000
0000F80000
0002F40000
0007E00000
000FC00000
003F400000
00FE000000
07F8000000
3FD0000000
1900000000
ENDCHAR
STARTCHAR Amacron
ENCODING 256
SWIDTH 615 0
DWIDTH 20 0
BBX 27 29 -3 0
BITMAP
00000000BFFFF4
00000001FFFFF4
00000001BFFF90
00000000000000
00000000000000
0000000001BE00
000000001FFE00
00000000BEBD00
00000003F4FC00
0000000F82F800
0000003E03F400
000000BC0BF000
000002F40FE000
000007E01FC000
00000FC02F8000
00002F403F4000
00007F6AFFE800
0002FFFFFFF800
001FFFFFFFE000
001BE001FD0000
000BD002FC0000
000F8002F80000
002F4003F40000
007E0003F40000
00FD0007F00000
02F80007F44000
0BF00007FFD000
7FD00003FF8000
7E000001BE0000
ENDCHAR
STARTCHAR amacron
ENCODING 257
SWIDTH 543 0
DWIDTH 17 0
BBX 17 22 1 -1
BITMAP
000BFFFF40
001FFFFF40
001BFFF900
0000000000
0000000000
0006F92E00
002FEFBF40
00BE03FE00
02F802FD00
0BF003FC00
1FD007F400
2FC00BF000
7F400FE000
BF001FC000
BF003F8000
FE00BF4000
FE01FF4000
BE03EF4000
BE0B6F9900
3FFD2FFC00
0BE41FF400
0000069000
ENDCHAR
STARTCHAR Abreve
ENCODING 258
SWIDTH 615 0
DWIDTH 20 0
BBX 27 31 -3 0
BITMAP
000000001E0028
000000003F0078
000000003F42F4
000000003FFFD0
000000001FFF40
0000000006A800
00000000000000
0000000001BE00
000000001FFE00
00000000BEBD00
00000003F4FC00
0000000F82F800
0000003E03F400
000000BC0BF000
000002F40FE000
000007E01FC000
00000FC02F8000
00002F403F4000
00007F6AFFE800
0002FFFFFFF800
001FFFFFFFE000
001BE001FD0000
000BD002FC0000
000F8002F80000
002F4003F40000
007E0003F40000
00FD0007F00000
02F80007F00000
0BF00007FED000
7FD00003FF8000
7E000001BE0000
ENDCHAR
STARTCHAR abreve
ENCODING 259
SWIDTH 543 0
DWIDTH 17 0
BBX 17 25 1 -1
BITMAP
0001E00180
0002F00780
0003F41F40
0003FFFE00
0001FFF800
00006F9000
0000000000
0000000000
0006F92E00
002FEFBF40
00BE03FE00
02F802FD00
0BF003FC00
1FD007F400
2FC00BF000
7F400FE000
BF001FC000
BF003F8000
FE00BF4000
FE01FF4000
BE03EF4000
BE0B6F9900
3FFD2FFC00
0BE41FF400
0000069000
ENDCHAR
STARTCHAR Aogonek
ENCODING 260
SWIDTH 615 0
DWIDTH 20 0
BBX 24 32 -3 -8
BITMAP
0000000001BE
000000001FFE
00000000BEBD
00000003F4FC
0000000F82F8
0000003E03F4
000000BC0BF0
000002F40FE0
000007E01FC0
00000FC02F80
00002F403F40
00007F6AFFE8
0002FFFFFFF8
001FFFFFFFE0
001BE001FD00
000BD002FC00
000F8002F800
002F4003F400
007E0003F400
00FD0007F000
02F80007F000
0BF00007FEC0
7FD00003FF80
7E000001FE00
00000001F000
00000007C000
0000001F4000
0000002F0000
0000007F1400
0000007FF400
0000007FE000
0000001A4000
ENDCHAR
STARTCHAR aogonek
ENCODING 261
SWIDTH 541 0
DWIDTH 17 0
BBX 17 24 1 -8
BITMAP
0006F92E00
002FEFBF40
00BE07FE00
02F802FD00
0BF003F800
1FD007F400
2FC00BF000
7F400FE000
BF002FC000
BF003F8000
FE00BF4000
FE01FF4000
FE03EF4000
BE0B6F9900
3FFD2FFC00
0BE00BF400
00000B8000
00002E0000
0000BC0000
0001F80000
0002F84000
0002FFC000
0002FF4000
0000A90000
ENDCHAR
STARTCHAR Cacute
ENCODING 262
SWIDTH 533 0
DWIDTH 17 0
BBX 21 32 1 0
BITMAP
000000000400
000000001F40
000000002F80
000000007F40
00000001FD00
00000007E400
000000054000
000000000000
000006FE4000
00002FFBD000
0001FE41F000
0007F801F400
001FD001F400
007F8003F400
00FF000BF000
02FD002FE000
07F800BFC000
0BF401FF4000
0FE000BD0000
1FD000000000
2FC000000000
3F8000000000
7F8000000000
7F4000000000
7F4000000000
7F4000000000
7F4000000000
7F4000400000
3F8002E00000
1FD01FD00000
0BFFFF800000
01BFE4000000
ENDCHAR
STARTCHAR cacute
ENCODING 263
SWIDTH 468 0
DWIDTH 15 0
BBX 16 25 1 0
BITMAP
0000002E
0000003F
0000007F
000000FE
000002F8
000007E0
00001F40
00001400
00000000
0006FE40
002FEFC0
00FE07E0
03F807E0
0BF00BE0
1FD01FD0
3F803F80
7F402F00
BF000000
BF000000
FE000000
FE000000
BE001D00
7F40BC00
2FFFE000
06FE4000
ENDCHAR
STARTCHAR Ccircumflex
ENCODING 264
SWIDTH 533 0
DWIDTH 17 0
BBX 21 31 1 0
BITMAP
00000000B400
00000002FC00
0000001FFD00
000001BE7F00
000007F42F80
000001400540
000000000000
000006FE4000
00002FFBD000
0001FE41F000
0007F801F400
001FD001F400
007F8003F400
00FF000BF000
02FD002FE000
07F800BFC000
0BF401FF4000
0FE000BD0000
1FD000000000
2FC000000000
3F8000000000
7F8000000000
7F4000000000
7F4000000000
7F4000000000
7F4000000000
7F4000400000
3F8002E00000
1FD01FD00000
0BFFFF800000
01BFE4000000
ENDCHAR
STARTCHAR ccircumflex
ENCODING 265
SWIDTH 468 0
DWIDTH 15 0
BBX 16 25 1 0
BITMAP
00000060
000002F8
00000BF8
00007FFC
0002FCBD
001FE07E
002E402F
00000000
00000000
0006FE40
002FEFC0
00FE07E0
03F807E0
0BF00BE0
1FD01FD0
3F803F80
7F402F00
BF000000
BF000000
FE000000
FE000000
BE001D00
7F40BC00
2FFFE000
06FE4000
ENDCHAR
STARTCHAR Cdotaccent
ENCODING 266
SWIDTH 533 0
DWIDTH 17 0
BBX 19 31 1 0
BITMAP
0000000500
0000003FC0
0000007FD0
0000007FC0
0000002F40
0000000000
0000000000
000006FE40
00002FFBD0
0001FE41F0
0007F801F4
001FD001F4
007F8003F4
00FF000BF0
02FD002FE0
07F800BFC0
0BF401FF40
0FE000BD00
1FD0000000
2FC0000000
3F80000000
7F80000000
7F40000000
7F40000000
7F40000000
7F40000000
7F40004000
3F8002E000
1FD01FD000
0BFFFF8000
01BFE40000
ENDCHAR
STARTCHAR cdotaccent
ENCODING 267
SWIDTH 468 0
DWIDTH 15 0
BBX 14 24 1 0
BITMAP
00001B90
00003FE0
00003FE0
00002FD0
00000640
00000000
00000000
00000000
0006FE40
002FEFC0
00FE07E0
03F807E0
0BF00BE0
1FD01FD0
3F803F80
7F402F00
BF000000
BF000000
FE000000
FE000000
BE001D00
7F40BC00
2FFFE000
06FE4000
ENDCHAR
STARTCHAR Ccaron
ENCODING 268
SWIDTH 533 0
DWIDTH 17 0
BBX 22 31 1 0
BITMAP
000000500050
000002FC01E0
000000FE1BE0
0000007FBF40
0000003FE400
0000001A0000
000000000000
000006FE4000
00002FFBD000
0001FE41F000
0007F801F400
001FD001F400
007F8003F400
00FF000BF000
02FD002FE000
07F800BFC000
0BF401FF4000
0FE000BD0000
1FD000000000
2FC000000000
3F8000000000
7F8000000000
7F4000000000
7F4000000000
7F4000000000
7F4000000000
7F4000400000
3F8002E00000
1FD01FD00000
0BFFFF800000
01BFE4000000
ENDCHAR
STARTCHAR ccaron
ENCODING 269
SWIDTH 468 0
DWIDTH 15 0
BBX 18 24 1 0
BITMAP
0001A00070
0001FC02F0
0000BD0BE0
00007DBF40
00003FF800
00003F4000
0000040000
0000000000
0006FE4000
002FEFC000
00FE07E000
03F807E000
0BF00BE000
1FD01FD000
3F803F8000
7F402F0000
BF00000000
BF00000000
FE00000000
FE00000000
BE001D0000
7F40BC0000
2FFFE00000
06FE400000
ENDCHAR
STARTCHAR Dcaron
ENCODING 270
SWIDTH 630 0
DWIDTH 20 0
BBX 21 31 1 0
BITMAP
000005400100
00001FD01B40
00000BF4BF00
000003FFF800
000001FF8000
000000A40000
000000000000
005AFFA40000
07FFFFFF4000
0BFE556FE000
07F40007F400
00404001FC00
000BF000FD00
001FE000BE00
003FC000BE00
007F4000BE00
00FF0000FE00
01FD0000FD00
03FC0001FC00
07F80002FC00
0BF00007F400
0FE0000FF000
1FD0001FD000
2FC0007F8000
3F8001FE0000
3F4007FC0000
7F001FF00000
7F00BF800000
7E07FD000000
2FBFE0000000
06F900000000
ENDCHAR
STARTCHAR dcaron
ENCODING 271
SWIDTH 557 0
DWIDTH 18 0
BBX 25 26 1 0
BITMAP
000000002D0B80
00000000BE1FC0
00000001FD1FC0
00000002F80FC0
00000003F41F40
00000007F02F00
0000000BE07D00
0000000FD0F400
0000001FC00000
0000002F800000
0001BE3F400000
001FFFFF000000
007F42FE000000
01FC01FD000000
03F402FC000000
0BE002F8000000
1FC003F4000000
3F800BF0000000
7F400FE0000000
7F001FD0000000
BF003FD0000000
BF00BFC0000000
BF01DFC1000000
7F078FFF000000
3FFE0BFE000000
0BE402F4000000
ENDCHAR
STARTCHAR Dcroat
ENCODING 272
SWIDTH 630 0
DWIDTH 20 0
BBX 20 24 1 0
BITMAP
006BFFA400
07FFFFFE40
0FFE557FD0
07E0000BF4
00414002F8
000FE001FC
002FD000FD
007F8000FD
00BF4000FD
2BFFAA00FD
BFFFFF01FD
FFFFFD02FC
07F40003F8
0FF0000BF4
1FE0000FE0
2FC0002FC0
2F8000BF40
3F4001FE00
7F0007F800
BF001FE000
BE00BF8000
BE0BFD0000
3FBFE00000
0BF9000000
ENDCHAR
STARTCHAR dcroat
ENCODING 273
SWIDTH 557 0
DWIDTH 18 0
BBX 21 26 1 0
BITMAP
000000002D00
00000000BE00
00000001FD00
00000002FC00
00000FFFFF40
00002FFFFE00
0000000BE000
0000000FD000
0000001FC000
0000002F8000
0001BE3F4000
001FFFFF0000
007F42FE0000
01FC01FD0000
03F402FC0000
0BE002F80000
1FC003F40000
3F800BF00000
7F400FE00000
7F001FD00000
BF003FD00000
BF00BFC00000
BF01DFC10000
7F078FFF0000
3FFE0BFE0000
0BE402F40000
ENDCHAR
STARTCHAR Emacron
ENCODING 274
SWIDTH 509 0
DWIDTH 16 0
BBX 19 29 1 0
BITMAP
00007FFFF8
0000FFFFF8
0001AFFFE0
0000000000
0000000000
00001BFA00
0001FFEFC0
000BF903E0
002FD002E0
00BF4007E0
01FE001FD0
02FC007FC0
03F802FF40
07F403FD00
07F001A400
03F0000000
02F8100000
00FFF80000
007FFC0000
02FF800000
0FF8000000
2FE0000000
7FC0000000
BF40014000
BF00078000
BF001F8000
7F40BF4000
1FFFF90000
06FE900000
ENDCHAR
STARTCHAR emacron
ENCODING 275
SWIDTH 471 0
DWIDTH 15 0
BBX 16 21 1 0
BITMAP
002FFFFD
00BFFFFC
00AFFFE4
00000000
00000000
0002FE00
002FFFC0
00BE0BD0
02F80BE0
07F00BE0
1FE01FD0
2FC03FC0
3F81FF40
7F5BF900
BFFF9000
BF540000
BE000000
7F000A00
3F807E00
1FFBF800
06FF9000
ENDCHAR
STARTCHAR Ebreve
ENCODING 276
SWIDTH 509 0
DWIDTH 16 0
BBX 19 31 1 0
BITMAP
00000B001C
00002F403C
00002F81F8
00002FFFE0
00000FFF80
000002A900
0000000000
00001BFA00
0001FFEFC0
000BF903E0
002FD002E0
00BF4007E0
01FE001FD0
02FC007FC0
03F802FF40
07F403FD00
07F001A400
03F0000000
02F8100000
00FFF80000
007FFC0000
02FF800000
0FF8000000
2FE0000000
7FC0000000
BF40014000
BF00078000
BF001F8000
7F40BF4000
1FFFF90000
06FE900000
ENDCHAR
STARTCHAR ebreve
ENCODING 277
SWIDTH 471 0
DWIDTH 15 0
BBX 16 24 1 0
BITMAP
00074009
000F802D
001FD0BC
000FFFF4
000BFFD0
0001FE00
00000000
00000000
0002FE00
002FFFC0
00BE0BD0
02F80BE0
07F00BE0
1FE01FD0
2FC03FC0
3F81FF40
7F5BF900
BFFF9000
BF540000
BE000000
7F000A00
3F807E00
1FFBF800
06FF9000
ENDCHAR
STARTCHAR Edotaccent
ENCODING 278
SWIDTH 509 0
DWIDTH 16 0
BBX 18 31 1 0
BITMAP
0000015000
00000BF800
00000FF800
00000BF800
000007E000
0000000000
0000000000
00001BFA00
0001FFEFC0
000BF903E0
002FD002E0
00BF4007E0
01FE001FD0
02FC007FC0
03F802FF40
07F403FD00
07F001A400
03F0000000
02F8100000
00FFF80000
007FFC0000
02FF800000
0FF8000000
2FE0000000
7FC0000000
BF40014000
BF00078000
BF001F8000
7F40BF4000
1FFFF90000
06FE900000
ENDCHAR
STARTCHAR edotaccent
ENCODING 279
SWIDTH 471 0
DWIDTH 15 0
BBX 14 24 1 0
BITMAP
00007E00
0000FF40
0001FF40
0000BF00
00002800
00000000
00000000
00000000
0002FE00
002FFFC0
00BE0BD0
02F80BE0
07F00BE0
1FE01FD0
2FC03FC0
3F81FF40
7F5BF900
BFFF9000
BF540000
BE000000
7F000A00
3F807E00
1FFBF800
06FF9000
ENDCHAR
STARTCHAR Eogonek
ENCODING 280
SWIDTH 509 0
DWIDTH 16 0
BBX 18 32 1 -8
BITMAP
00001BFA00
0001FFEFC0
000BF903E0
002FD002E0
00BF4007E0
01FE001FD0
02FC007FC0
03F802FF40
07F403FD00
07F001A400
03F0000000
02F8100000
00FFF80000
007FFC0000
02FF800000
0FF8000000
2FE0000000
7FC0000000
BF40014000
BF00078000
BF001F8000
7F40BF4000
1FFFFD0000
06FFD00000
002E000000
00B8000000
01F0000000
03E0000000
07E1000000
0BFF000000
07FD000000
02A4000000
ENDCHAR
STARTCHAR eogonek
ENCODING 281
SWIDTH 471 0
DWIDTH 15 0
BBX 14 24 1 -8
BITMAP
0002FE00
002FFFC0
00BE0BD0
02F80BE0
07F00BE0
0FE01FD0
2FC03FC0
3F81FF40
7F5BF800
BFFF9000
BF940000
BE000000
7F000A00
3F807E00
1FFBFC00
06FFE000
001F4000
007D0000
00F80000
02F00000
03F54000
07FF4000
03FE0000
01A40000
ENDCHAR
STARTCHAR Ecaron
ENCODING 282
SWIDTH 509 0
DWIDTH 16 0
BBX 20 31 1 0
BITMAP
0000150004
00007F802D
00002FD2FC
00000FFFE4
000007FE00
0000029000
0000000000
00001BFA00
0001FFEFC0
000BF903E0
002FD002E0
00BF4007E0
01FE001FD0
02FC007FC0
03F802FF40
07F403FD00
07F001A400
03F0000000
02F8100000
00FFF80000
007FFC0000
02FF800000
0FF8000000
2FE0000000
7FC0000000
BF40014000
BF00078000
BF001F8000
7F40BF4000
1FFFF90000
06FE900000
ENDCHAR
STARTCHAR ecaron
ENCODING 283
SWIDTH 471 0
DWIDTH 15 0
BBX 17 24 1 0
BITMAP
0006800280
000BE00BC0
0003F07F40
0002F6FD00
0001FFD000
0000F90000
0000500000
0000000000
0002FE0000
002FFFC000
00BE0BD000
02F80BE000
07F00BE000
1FE01FD000
2FC03FC000
3F81FF4000
7F5BF90000
BFFF900000
BF54000000
BE00000000
7F000A0000
3F807E0000
1FFBF80000
06FF900000
ENDCHAR
STARTCHAR Gcircumflex
ENCODING 284
SWIDTH 598 0
DWIDTH 19 0
BBX 21 31 1 0
BITMAP
00000000B400
00000002FC00
0000001FFD00
000001BEBF00
00000BF42F80
000001400540
000000000000
000002BE4000
00002FFBD000
0001FE41F000
0007F800F400
001FE001F800
007F8002F400
00FF000BF400
02FD001FF000
03F800BFD000
0BF400FF8000
0FF000BD0000
1FD000000000
2FC000000000
3F8001405000
3F801FFFE000
7F402FFFD000
7F4007FE4000
7F4002F00000
7F4002F00000
3F4003D00000
3F800B800000
1FD02F000000
0BFEF8000000
01BF90000000
ENDCHAR
STARTCHAR gcircumflex
ENCODING 285
SWIDTH 526 0
DWIDTH 17 0
BBX 17 34 1 -9
BITMAP
0000006000
000001F800
00000BFC00
00002FFD00
0001FD7E00
001FE03F00
001E401F40
0000000000
0000000000
0002FD0000
002FFF6E00
00BE03FF00
02F801FD00
0BF002FC00
1FD003F800
2FC007F400
3F800BF000
7F400FE000
BF002FD000
BE007FD000
BE00BFC000
BE02FF8000
7F0BBF4000
3FFE7F0000
0BE4BE0000
0000FC0000
0001F80000
0003F40000
000BE00000
001FC00000
007F400000
02FD000000
2FF4000000
1F80000000
ENDCHAR
STARTCHAR Gbreve
ENCODING 286
SWIDTH 598 0
DWIDTH 19 0
BBX 22 31 1 0
BITMAP
000000740090
000000F802D0
000001FD1BC0
000000FFFF40
000000BFFD00
0000001A9000
000000000000
000002BE4000
00002FFBD000
0001FE41F000
0007F800F400
001FE001F800
007F8002F400
00FF000BF400
02FD001FF000
03F800BFD000
0BF400FF8000
0FF000BD0000
1FD000000000
2FC000000000
3F8001405000
3F801FFFE000
7F402FFFD000
7F4007FE4000
7F4002F00000
7F4002F00000
3F4003D00000
3F800B800000
1FD02F000000
0BFEF8000000
01BF90000000
ENDCHAR
STARTCHAR gbreve
ENCODING 287
SWIDTH 526 0
DWIDTH 17 0
BBX 17 33 1 -9
BITMAP
0000B00180
0002F003C0
0002F81F40
0002FFFE00
0001FFF800
00006F9000
0000000000
0000000000
0002FD0000
002FFF6E00
00BE03FF00
02F801FD00
0BF002FC00
1FD003F800
2FC007F400
3F800BF000
7F400FE000
BF002FD000
BE007FD000
BE00BFC000
BE02FF8000
7F0BBF4000
3FFE7F0000
0BE4BE0000
0000FC0000
0001F80000
0003F40000
000BE00000
001FC00000
007F400000
02FD000000
2FF4000000
1F80000000
ENDCHAR
STARTCHAR Gdotaccent
ENCODING 288
SWIDTH 598 0
DWIDTH 19 0
BBX 19 31 1 0
BITMAP
0000000500
0000003FC0
0000007FD0
0000007FC0
0000002F40
0000000000
0000000000
000002BE40
00002FFBD0
0001FE41F0
0007F800F4
001FE001F8
007F8002F4
00FF000BF4
02FD001FF0
03F800BFD0
0BF400FF80
0FF000BD00
1FD0000000
2FC0000000
3F80014050
3F801FFFE0
7F402FFFD0
7F4007FE40
7F4002F000
7F4002F000
3F4003D000
3F800B8000
1FD02F0000
0BFEF80000
01BF900000
ENDCHAR
STARTCHAR gdotaccent
ENCODING 289
SWIDTH 526 0
DWIDTH 17 0
BBX 16 33 1 -9
BITMAP
00000BD0
00002FF0
00002FF0
00001FD0
00000640
00000000
00000000
00000000
0002FD00
002FFF6E
00BE03FF
02F801FD
0BF002FC
1FD003F8
2FC007F4
3F800BF0
7F400FE0
BF002FD0
BE007FD0
BE00BFC0
BE02FF80
7F0BBF40
3FFE7F00
0BE4BE00
0000FC00
0001F800
0003F400
000BE000
001FC000
007F4000
02FD0000
2FF40000
1F800000
ENDCHAR
STARTCHAR Gcommaaccent
ENCODING 290
SWIDTH 598 0
DWIDTH 19 0
BBX 19 33 1 -9
BITMAP
000002BE40
00002FFBD0
0001FE41F0
0007F800F4
001FE001F4
007F8002F4
00FF0007F4
02FD000FF0
03F8003FE0
0BF400FFC0
0FF000FF40
1FD0007D00
2FC0000000
3F80000000
3F80054050
7F401FFFE0
7F402FFFD0
7F4002FE40
7F4002F000
3F4002E000
3F8007D000
1FD02F4000
0BFEFD0000
01BF900000
0000000000
0150000000
07F4000000
07F8000000
02F4000000
02F0000000
07D0000000
0F80000000
2D00000000
ENDCHAR
STARTCHAR gcommaaccent
ENCODING 291
SWIDTH 526 0
DWIDTH 17 0
BBX 16 34 1 -9
BITMAP
00000078
000002E0
00000BC0
00001F80
00001FD0
00001FD0
00000500
00000000
00000000
0002FD00
002FFF6E
00BE03FF
02F801FD
0BF002FC
1FD003F8
2FC007F4
3F800BF0
7F400FE0
BF002FD0
BE007FD0
BE00BFC0
BE02FF80
7F0BBF40
3FFE7F00
0BE4BE00
0000FC00
0001F800
0003F400
000BE000
001FC000
007F4000
02FD0000
2FF40000
1F800000
ENDCHAR
STARTCHAR Hcircumflex
ENCODING 292
SWIDTH 668 0
DWIDTH 21 0
BBX 24 31 -1 0
BITMAP
000000007800
00000002FD00
0000001FFE00
000000BF7F40
000007F82FC0
000001400540
000000000000
006FF8000078
00FFFD0000FD
0064BE0000FD
0000FE0001FD
0000FD0002FC
0001FD0003F8
0002FC0007F4
0003F8000BF0
0003F4000FD0
0007F0001FC0
000BFAAABFE0
006FFFFFFFF0
00FFD001BFD0
003F8000BE00
007F4000FD00
00BF0001F800
00FD0002F400
01FC0003F000
03F40007E000
0BF0000BD000
1FD0000FD100
3F40000FFF00
FE00000FFE00
B4000007E400
ENDCHAR
STARTCHAR hcircumflex
ENCODING 293
SWIDTH 555 0
DWIDTH 18 0
BBX 17 31 0 0
BITMAP
0000060000
00002F8000
0000BFC000
0006FFC000
001FDBD000
01FE07F000
01E401F000
0002E00000
0003F40000
0007F40000
0007F00000
000BF00000
000FE00000
000FD00000
001FC00000
002F81BD00
003F47FF40
007F1FFF40
00BE7D3F40
00FDF47F00
01FAD0BE00
02FB81FD00
03FE02FC00
0BFC03F400
0FF00BF000
1FD00FE000
2FC00FD000
7F401FD100
BF001FFF00
FD000FFD00
780006F400
ENDCHAR
STARTCHAR Hbar
ENCODING 294
SWIDTH 668 0
DWIDTH 21 0
BBX 26 24 -1 0
BITMAP
006FF800007800
00FFFD0000FD00
0064BE0000FD00
0000FE0001FC00
0000FD0002FC00
0006FEBFFFFFE0
01BFFFFFFFFFD0
02FFFFFFFFFA40
0043F4000BD000
0007F0001FC000
000BFAAABFE000
002FFFFFFFF000
00FFD000BF4000
007F8000BD0000
003F4000FC0000
00BF0001F80000
00FD0002F40000
01FC0003F00000
03F40007E00000
07F0000BD00000
0FD0000FD10000
2F40000FFF0000
BE00000FFE0000
B4000007E40000
ENDCHAR
STARTCHAR hbar
ENCODING 295
SWIDTH 555 0
DWIDTH 18 0
BBX 17 26 0 0
BITMAP
0001F00000
0002F80000
0002F80000
0003F80000
00BFFFF800
01AFFAA000
000BE00000
000FD00000
000FC00000
001F800000
002F41BD00
003F07FF40
007E1FFF40
00BD7D3F40
00FCF47F00
01FAD0BE00
02FB40FD00
03FE02FC00
07FC03F400
0FF00BF000
1FD00FE000
2FC00FD000
7F401FD100
BF001FFF00
FD000FFE00
780006F400
ENDCHAR
STARTCHAR Itilde
ENCODING 296
SWIDTH 327 0
DWIDTH 10 0
BBX 17 31 0 0
BITMAP
0002E40240
001FFE0B40
007FFFFE00
00B47FF800
00A01BD000
0000000000
0000000000
006FE00000
02FFF80000
00A1FC0000
0001FC0000
0002FC0000
0003F80000
0003F80000
0007F40000
000BF00000
000FE00000
001FD00000
001FD00000
002FC00000
003F400000
00BF000000
00FE000000
01FD000000
02F8000000
07F4000000
0BE0000000
1FC0000000
7F40000000
FD00000000
F400000000
ENDCHAR
STARTCHAR itilde
ENCODING 297
SWIDTH 286 0
DWIDTH 9 0
BBX 13 24 1 0
BITMAP
01F90180
0BFF4780
2FFFFF40
3C2FFD00
3407E400
00000000
00000000
00000000
02F80000
07FC0000
02FC0000
02F80000
03F40000
07E00000
0BD00000
1FC00000
2F400000
3F000000
7E000000
BD000000
FD000000
FFE00000
FFD00000
6F400000
ENDCHAR
STARTCHAR Imacron
ENCODING 298
SWIDTH 327 0
DWIDTH 10 0
BBX 16 29 0 0
BITMAP
002FFFFD
007FFFFD
006FFFE4
00000000
00000000
006FE000
02FFF800
00A1FC00
0001FC00
0002FC00
0003F800
0003F800
0007F400
000BF000
000FE000
001FD000
001FD000
002FC000
003F4000
00BF0000
00FE0000
01FD0000
02F80000
07F40000
0BE00000
1FC00000
7F400000
FD000000
F4000000
ENDCHAR
STARTCHAR imacron
ENCODING 299
SWIDTH 286 0
DWIDTH 9 0
BBX 12 21 1 0
BITMAP
2FFFFE
7FFFFD
6FFFF4
000000
000000
02F800
07FC00
02FC00
02F800
03F400
07E000
0BD000
1FC000
2F4000
3F0000
7E0000
BD0000
FD0000
FFE000
FFD000
6F4000
ENDCHAR
STARTCHAR Ibreve
ENCODING 300
SWIDTH 327 0
DWIDTH 10 0
BBX 16 31 0 0
BITMAP
0007800A
000FC01E
000FD0BD
000FFFF4
0007FFD0
0001AA00
00000000
006FE000
02FFF800
00A1FC00
0001FC00
0002FC00
0003F800
0003F800
0007F400
000BF000
000FE000
001FD000
001FD000
002FC000
003F4000
00BF0000
00FE0000
01FD0000
02F80000
07F40000
0BE00000
1FC00000
7F400000
FD000000
F4000000
ENDCHAR
STARTCHAR ibreve
ENCODING 301
SWIDTH 286 0
DWIDTH 9 0
BBX 12 24 1 0
BITMAP
02C003
07D00B
0BE06E
07FFFC
03FFF4
00BE40
000000
000000
02F800
07FC00
02FC00
02F800
03F400
07E000
0BD000
1FC000
2F4000
3F0000
7E0000
BD0000
FD0000
FFE000
FFD000
6F4000
ENDCHAR
STARTCHAR Iogonek
ENCODING 302
SWIDTH 327 0
DWIDTH 10 0
BBX 16 32 -5 -8
BITMAP
00001BF8
0000BFFE
0000287F
0000007F
000000BF
000000FE
000000FE
000001FD
000002FC
000003F8
000007F4
000007F4
00000BF0
00000FD0
00002FC0
00003F80
00007F40
0000BE00
0001FD00
0002F800
0007F000
001FD000
007F4000
007D0000
01E00000
07C00000
1F400000
2F000000
7F140000
7FF40000
7FE00000
1A400000
ENDCHAR
STARTCHAR iogonek
ENCODING 303
SWIDTH 297 0
DWIDTH 10 0
BBX 12 32 -1 -8
BITMAP
0001F8
0003FE
0003FD
0002FC
0000A0
000000
000000
000000
002F80
003FD0
001FD0
001FC0
002F80
003F40
007E00
00FD00
01FC00
02F400
03F000
07E000
0BE000
0BFA00
0BFE00
02FC00
02E000
0B8000
1F0000
3E0000
BE1000
BFF000
BFD000
2E4000
ENDCHAR
STARTCHAR Idotaccent
ENCODING 304
SWIDTH 327 0
DWIDTH 10 0
BBX 12 31 0 0
BITMAP
000054
0002FD
0007FD
0003FD
0001F4
000000
000000
006FE0
02FFF8
00A1FC
0001FC
0002FC
0003F8
0003F8
0007F4
000BF0
000FE0
001FD0
001FD0
002FC0
003F40
00BF00
00FE00
01FD00
02F800
07F400
0BE000
1FC000
7F4000
FD0000
F40000
ENDCHAR
STARTCHAR dotlessi
ENCODING 305
SWIDTH 286 0
DWIDTH 9 0
BBX 7 16 1 0
BITMAP
02F8
07FC
02FC
02F8
03F4
07E0
0BD0
1FC0
2F40
3F00
7E00
BD00
FD00
FFE0
FFD0
6F40
ENDCHAR
STARTCHAR IJ
ENCODING 306
SWIDTH 720 0
DWIDTH 23 0
BBX 24 33 0 -9
BITMAP
006FE0006FE4
02FFF80BFFFE
00A1FC7FE4BF
0001FCBF80BF
0002FC7D00FF
0003F80400FE
0003F80001FD
0007F40002FD
000BF00003FC
000FE00007F8
001FD00007F4
001FD0000BF0
002FC0000FE0
003F40001FD0
00BF00003FC0
00FE00007F80
01FD0000BF40
02F80000FF00
07F40002FD00
0BE00003FC00
1FC00007F800
7F40000FF000
FD00001FD000
F400003FC000
000000BF4000
000001FE0000
000003FC0000
00000BF40000
00001FD00000
00007F800000
0002FD000000
001FF4000000
002E40000000
ENDCHAR
STARTCHAR ij
ENCODING 307
SWIDTH 567 0
DWIDTH 18 0
BBX 18 33 1 -9
BITMAP
001F801F80
007FD03FE0
007FD03FD0
003F802FC0
0019000A00
0000000000
0000000000
0000000000
02F801BE00
07FC02FF00
02FC00FF00
02F800FE00
03F400FE00
07E000FD00
0BD001FD00
1FC001FC00
2F4002F800
3F0003F400
7E0007F000
BD000BE000
FD000FD000
FFE01FC000
FFD02F8000
6F403F4000
0000BE0000
0000FD0000
0001F80000
0003F00000
000BD00000
001F800000
007E000000
02F8000000
0790000000
ENDCHAR
STARTCHAR Jcircumflex
ENCODING 308
SWIDTH 393 0
DWIDTH 13 0
BBX 23 40 -6 -9
BITMAP
000000000600
000000001F80
00000000BFC0
00000007FFE0
0000006FD7F4
0000007D01F8
000000000000
000001AFE400
00001FFFFD00
0000BFE0FE00
0001FF41FD00
0000BC01FD00
00001002FD00
00000002FC00
00000003F800
00000007F400
0000000BF400
0000000FF000
0000001FE000
0000002FD000
0000003FC000
0000007F8000
000000BF4000
000000FE0000
000002FD0000
000003FC0000
000007F40000
00000FF00000
00001FE00000
00003FC00000
00007F400000
0000FE000000
0002FD000000
0007F8000000
000FE0000000
003FC0000000
00BF00000000
07FC00000000
2FE000000000
7E4000000000
ENDCHAR
STARTCHAR jcircumflex
ENCODING 309
SWIDTH 282 0
DWIDTH 9 0
BBX 18 33 -6 -9
BITMAP
0000001F40
0000007F80
000002FF80
00000BDFC0
0000BF4BD0
0003F807F0
0001400150
0000000000
00001BD000
00002FF000
00000FE000
00000FE000
00000FE000
00001FD000
00001FC000
00002FC000
00003F8000
00003F4000
00007F0000
0000BE0000
0000FD0000
0001FC0000
0003F80000
0007F00000
000BE00000
000FD00000
002F800000
007F000000
00BD000000
02F8000000
07E0000000
2F80000000
7900000000
ENDCHAR
STARTCHAR Kcommaaccent
ENCODING 310
SWIDTH 616 0
DWIDTH 20 0
BBX 23 33 -2 -9
BITMAP
001BE40007E0
00BFFE0003F4
00687F0003F8
0000BF0003F8
0000BF0007F8
0000FE000BF0
0001FE001FE0
0001FD003F80
0002FC00FE00
0003F803F800
0007F81FD000
000BF47F4000
000FF2F80000
001FEFD00000
002FFFD00000
003F8BF00000
007F43FC0000
00BF01FE0000
01FD00FF4000
02FC007FC000
07F4002FE000
1FE0000FF900
7F800007FFD0
7D000000BE40
000000000000
000150000000
0007F0000000
000BF4000000
0003F0000000
0003E0000000
0007D0000000
001F40000000
002900000000
ENDCHAR
STARTCHAR kcommaaccent
ENCODING 311
SWIDTH 497 0
DWIDTH 16 0
BBX 16 35 0 -9
BITMAP
00005000
0001F400
0002F800
0002F800
0003F400
0007F000
0007E000
000BE000
000FD000
001FC000
002F80BD
003F40FF
007F00BF
00BD00FF
00FC02FD
01F81FF4
02F5BF80
03FBF800
07FFC000
0BEFD000
1FDBE000
2F87F400
3F43FD00
BE01FFBC
FD00BFF4
78001F90
00000000
00500000
02F80000
03FC0000
01F80000
01F40000
02E00000
0B800000
0E000000
ENDCHAR
STARTCHAR kgreenlandic
ENCODING 312
SWIDTH 497 0
DWIDTH 16 0
BBX 17 16 0 0
BITMAP
01BD00BD00
01FE00BF40
00BE007F40
00BE00FF00
00FD02FD00
01FC1FF400
02F9BF9000
03FFF90000
07FFC00000
0FFBD00000
1FE7F00000
2FC3F80000
7F82FE0400
BF00FFFC00
FE007FF800
78001BD000
ENDCHAR
STARTCHAR Lacute
ENCODING 313
SWIDTH 517 0
DWIDTH 17 0
BBX 21 32 -1 0
BITMAP
000000000400
000000001F00
000000003F40
00000000BF40
00000001FD00
00000007E400
000000054000
000000000000
0000006F8000
000003FFF000
00000FE0B800
00003F80BC00
0000BF00BC00
0000FD00FC00
0002FC02F800
0003F80BF400
000BF02FE000
000FE0BFD000
001FD1FF4000
002FC0BD0000
003F80000000
007F40000000
00FE00000000
01FD00000000
02FC00000000
03F400000000
07E000000000
0FD000000000
2F45AFE40000
7FBFFFFD0000
BFFFFFFE0000
2E94001A0000
ENDCHAR
STARTCHAR lacute
ENCODING 314
SWIDTH 279 0
DWIDTH 9 0
BBX 14 32 1 0
BITMAP
00000100
00000BC0
00000FD0
00002FC0
00007F40
0001F800
00015000
00000000
000F4000
001F8000
001F8000
002F8000
003F4000
007F0000
00BE0000
00FD0000
01FC0000
02F80000
03F40000
07F00000
0BE00000
0FD00000
1FC00000
2F800000
3F400000
7F000000
BE000000
FD000000
FD100000
FFF00000
BFE00000
2F400000
ENDCHAR
STARTCHAR Lcommaaccent
ENCODING 315
SWIDTH 517 0
DWIDTH 17 0
BBX 19 33 -1 -9
BITMAP
0000006F80
000003FFF0
00000FE0B8
00003F80BC
0000BF00BC
0000FD00FC
0002FC02F8
0003F80BF4
000BF02FE0
000FE0BFD0
001FD1FF40
002FC0BD00
003F800000
007F400000
00FE000000
01FD000000
02FC000000
03F4000000
07E0000000
0FD0000000
2F45AFE400
7FBFFFFD00
BFFFFFFE00
2E94001A00
0000000000
0050000000
02F8000000
03FC000000
01FC000000
01F4000000
02F0000000
07C0000000
0E00000000
ENDCHAR
STARTCHAR lcommaaccent
ENCODING 316
SWIDTH 279 0
DWIDTH 9 0
BBX 11 35 0 -9
BITMAP
000140
0003F0
0007F4
0007F0
000BF0
000BE0
000FD0
001FC0
002F80
003F40
007F00
00BE00
00FD00
01FC00
02F800
03F400
07F000
0BE000
0FD000
1FC000
2F8000
2F4000
3F4000
3FFC00
2FF800
0BE000
000000
050000
2F8000
3FC000
1F8000
1F4000
2E0000
BC0000
E00000
ENDCHAR
STARTCHAR Lcaron
ENCODING 317
SWIDTH 517 0
DWIDTH 17 0
BBX 25 30 -1 0
BITMAP
00000000000B80
00000000001FC0
00000000001FC0
00000000000FC0
00000000001F40
00000000002F00
0000006F807D00
000003FFF0F400
00000FE0B80000
00003F80BC0000
0000BF00BC0000
0000FD00FC0000
0002FC02F80000
0003F80BF40000
000BF02FE00000
000FE0BFD00000
001FD1FF400000
002FC0BD000000
003F8000000000
007F4000000000
00FE0000000000
01FD0000000000
02FC0000000000
03F40000000000
07E00000000000
0FD00000000000
2F45AFE4000000
7FBFFFFD000000
BFFFFFFE000000
2E94001A000000
ENDCHAR
STARTCHAR lcaron
ENCODING 318
SWIDTH 467 0
DWIDTH 15 0
BBX 17 26 1 0
BITMAP
000B801F40
000FD03F80
001FD02F80
001FC02F40
002F802F00
003F803D00
003F40B800
007F02D000
00BE000000
00FD000000
01FC000000
02F8000000
03F4000000
07F0000000
0BE0000000
0FC0000000
1F80000000
2F40000000
3F40000000
7F00000000
BE00000000
BD00000000
FD10000000
FFF0000000
BFE0000000
2F40000000
ENDCHAR
STARTCHAR Ldot
ENCODING 319
SWIDTH 668 0
DWIDTH 21 0
BBX 23 24 -1 0
BITMAP
0000006F8000
000003FFF000
00000FE0B800
00003F80BC00
0000BF00BC00
0000FD00FC00
0002FC02F800
0003F80BF400
000BF02FE000
000FE0BFD000
001FD1FF4000
002FC0BD0050
003F800007F8
007F40000FF8
00FE00000BF8
01FD000007F0
02FC00000040
03F400000000
07E000000000
0FD000000000
2F45AFE40000
7FBFFFFD0000
BFFFFFFE0000
2E94001A0000
ENDCHAR
STARTCHAR ldot
ENCODING 320
SWIDTH 489 0
DWIDTH 16 0
BBX 15 26 1 0
BITMAP
000B8000
000FD000
001FD000
001FC000
002F8000
003F8000
003F4000
007F0000
00BE0000
00FD0000
01FC0000
02F80000
03F40000
07F00BD0
0BE02FF4
0FC02FF4
1F801FE0
2F400680
3F400000
7F000000
BE000000
BD000000
FD100000
FFF00000
BFE00000
2F400000
ENDCHAR
STARTCHAR Lslash
ENCODING 321
SWIDTH 517 0
DWIDTH 17 0
BBX 19 24 -1 0
BITMAP
0000006F80
000003FFF0
00000FE0B8
00003F80BC
0000BF00BC
0001FE00FC
0002FC02F8
0007F807F4
000BF41FF0
000FE0BFD0
001FD1FF80
002FC0BE00
003F801000
00BFF90000
0BFFFF0000
7FFFFE0000
26FC000000
03F8000000
07F0000000
0FD0000000
2F816AA400
7FBFFFFD00
BFFFFFFE00
2E94005A00
ENDCHAR
STARTCHAR lslash
ENCODING 322
SWIDTH 279 0
DWIDTH 9 0
BBX 14 27 1 0
BITMAP
00100000
00F90000
00FFFFD0
006FE940
001FC000
002F8000
003F4000
007F0000
007E0000
00BD0000
00FC0000
01FC0000
02F80000
03F00000
07F00000
0BD00000
0FC00000
1F800000
2F800000
3F400000
7F000000
BE000000
FD000000
FD100000
FFF00000
BFE00000
2F400000
ENDCHAR
STARTCHAR Nacute
ENCODING 323
SWIDTH 708 0
DWIDTH 23 0
BBX 25 31 0 0
BITMAP
00000000002800
00000000007E00
0000000000BF00
0000000001FD00
0000000007F400
000000000F8000
00000000000000
000007D000B900
00002FE001FF40
0000BFD000BF80
0001FFD0007F80
0003EFD0003F80
000BCFC0003F80
001F5FC0007F40
002E1FD0007F00
007D1FD000BD00
00BC0FD000FC00
01F80FD001F800
02F00FE003F000
03E00FE007D000
07D00BF00BC000
0BC00BF01F4000
0FC007F42E0000
1F8003F87D0000
2F4002FCB80000
3F0002FDF40000
3F0001FFE00000
7E0000BFD00000
7D00007FC00000
7D00002F800000
2C00000B800000
ENDCHAR
STARTCHAR nacute
ENCODING 324
SWIDTH 561 0
DWIDTH 18 0
BBX 17 25 0 0
BITMAP
0000000F40
0000001F80
0000003F80
0000007F40
000000FD00
000003F400
00000F9000
0000050000
0000000000
00BD00BD00
01FF07FF40
00BE1FFF80
00BE7D3F80
00FDF43F40
01FED07F00
02FB80FE00
03FE01FC00
07FC03F800
0BF407F000
1FD00BE000
2FC00FD000
3F400FD100
BF000FFF40
FD000BFE00
780002F800
ENDCHAR
STARTCHAR Ncommaaccent
ENCODING 325
SWIDTH 708 0
DWIDTH 23 0
BBX 25 33 0 -9
BITMAP
000007D000B900
00002FE001FF40
0000BFD000BF80
0001FFD0007F80
0003EFD0003F80
000BCFC0003F80
001F5FC0007F40
002E1FD0007F00
007D1FD000BD00
00BC0FD000FC00
01F80FD001F800
02F00FE003F000
03E00FE007D000
07D00BF00BC000
0BC00BF01F4000
0FC007F42E0000
1F8003F87D0000
2F4002FCB80000
3F0002FDF40000
3F0001FFE00000
7E0000BFD00000
7D00007FC00000
7D00002F800000
2C00000B800000
00000000000000
00001400000000
0000FD00000000
0001FE00000000
0000BD00000000
0000BC00000000
0000F800000000
0002E000000000
00074000000000
ENDCHAR
STARTCHAR ncommaaccent
ENCODING 326
SWIDTH 561 0
DWIDTH 18 0
BBX 17 25 0 -9
BITMAP
00BD00BD00
01FF07FF40
00BE1FFF80
00BE7D3F80
00FDF43F40
01FED07F00
02FB80FE00
03FE01FC00
07FC03F800
0BF407F000
1FD00BE000
2FC00FD000
3F400FD100
BF000FFF40
FD000BFE00
780002F800
0000000000
0054000000
01FC000000
02FD000000
00FD000000
00F8000000
01F4000000
07D0000000
0A40000000
ENDCHAR
STARTCHAR Ncaron
ENCODING 327
SWIDTH 708 0
DWIDTH 23 0
BBX 26 31 0 0
BITMAP
00000001400040
00000007F407D0
00000002FC2FC0
00000000FFFE00
000000007F9000
00000000290000
00000000000000
000007D000B900
00002FE001FF40
0000BFD000BF80
0001FFD0007F80
0003EFD0003F80
000BCFC0003F80
001F5FC0007F40
002E1FD0007F00
007D1FD000BD00
00BC0FD000FC00
01F80FD001F800
02F00FE003F000
03E00FE007D000
07D00BF00BC000
0BC00BF01F4000
0FC007F42E0000
1F8003F87D0000
2F4002FCB80000
3F0002FDF40000
3F0001FFE00000
7E0000BFD00000
7D00007FC00000
7D00002F800000
2C00000B800000
ENDCHAR
STARTCHAR ncaron
ENCODING 328
SWIDTH 561 0
DWIDTH 18 0
BBX 20 24 0 0
BITMAP
000068001C
00007F00BD
00002F42F8
00001F9FD0
00000FFE00
00000FD000
0000010000
0000000000
00BD00BD00
01FF07FF40
00BE1FFF80
00BE7D3F80
00FDF43F40
01FED07F00
02FB80FE00
03FE01FC00
07FC03F800
0BF407F000
1FD00BE000
2FC00FD000
3F400FD100
BF000FFF40
FD000BFE00
780002F800
ENDCHAR
STARTCHAR Eng
ENCODING 330
SWIDTH 698 0
DWIDTH 22 0
BBX 25 33 0 -9
BITMAP
00000BD001B800
00003FD002FF00
0000FFC000FF40
0002FFC0007F40
0007EFC0007F40
000F9F80007F40
002F2F80007F00
003E2F8000BF00
00BD2FC000BE00
00F82FC000FD00
01F42FC001FC00
03F01FD001F800
07E01FD002F400
0BD00FE003F000
0FC00FE007E000
1F800BF00FD000
2F4007F41F8000
3F0007F82F4000
3E0003FC3E0000
7E0001FD7D0000
BD0000FFF80000
BD00007FF40000
BC00002FE00000
3800003FC00000
000000BF400000
000001FE000000
000003F8000000
00000BF0000000
00002FC0000000
0000BF00000000
0002F800000000
002FE000000000
003E4000000000
ENDCHAR
STARTCHAR eng
ENCODING 331
SWIDTH 561 0
DWIDTH 18 0
BBX 17 25 0 -9
BITMAP
00BD00BD00
01FF07FF40
00BE1FFF80
00BE7D3F80
00FDF42F40
01FED03F40
02FB807F00
03FE007E00
07FC00BD00
0BF401FC00
1FD002F800
2FC003F400
3F4007F000
BF000FE000
FD001FC000
78002F8000
00007F0000
0000FE0000
0002FC0000
0003F40000
000BE00000
002F800000
007F000000
02FC000000
03E0000000
ENDCHAR
STARTCHAR Omacron
ENCODING 332
SWIDTH 655 0
DWIDTH 21 0
BBX 21 29 2 0
BITMAP
000007FFFF80
00001FFFFF40
00001BFFFD00
000000000000
000000000000
000006FE4000
0000BFEFE000
0002FD02F400
001FF000FC00
003FC000FD00
00FF4000FD00
02FD0000FD00
07F80000FD00
0BF40001FD00
1FE00001FD00
2FD00002FC00
3F800003F800
7F400007F400
BF00000FF000
BE00001FE000
FE00003FC000
FD00007F8000
FD0000FE0000
FD0002FD0000
BD000BF40000
7E002FD00000
3F41BF400000
1FFFF8000000
02BF90000000
ENDCHAR
STARTCHAR omacron
ENCODING 333
SWIDTH 514 0
DWIDTH 16 0
BBX 17 21 1 0
BITMAP
0007FFFF80
001FFFFF80
001BFFFE00
0000000000
0000000000
0006FE0000
002FFFD000
00FE07E000
03F807F000
0BF007F400
1FE007F400
3FC007F400
7F800BF000
BF400FE000
BF002FD000
BE003FC000
BE00BF4000
BE01FE0000
7F07F80000
2FFFD00000
06FA000000
ENDCHAR
STARTCHAR Obreve
ENCODING 334
SWIDTH 655 0
DWIDTH 21 0
BBX 21 31 2 0
BITMAP
000000A00180
000002F007C0
000002F81F40
000002FFFE00
000000FFF800
0000002A9000
000000000000
000006FE4000
0000BFEFE000
0002FD02F400
001FF000FC00
003FC000FD00
00FF4000FD00
02FD0000FD00
07F80000FD00
0BF40001FD00
1FE00001FD00
2FD00002FC00
3F800003F800
7F400007F400
BF00000FF000
BE00001FE000
FE00003FC000
FD00007F8000
FD0000FE0000
FD0002FD0000
BD000BF40000
7E002FD00000
3F41BF400000
1FFFF8000000
02BF90000000
ENDCHAR
STARTCHAR obreve
ENCODING 335
SWIDTH 514 0
DWIDTH 16 0
BBX 17 24 1 0
BITMAP
0000B001C0
0002F003C0
0002F81F80
0002FFFE00
0000FFF800
00002F9000
0000000000
0000000000
0006FE0000
002FFFD000
00FE07E000
03F807F000
0BF007F400
1FE007F400
3FC007F400
7F800BF000
BF400FE000
BF002FD000
BE003FC000
BE00BF4000
BE01FE0000
7F07F80000
2FFFD00000
06FA000000
ENDCHAR
STARTCHAR Ohungarumlaut
ENCODING 336
SWIDTH 655 0
DWIDTH 21 0
BBX 22 31 2 0
BITMAP
0000001D0280
0000002F07D0
0000003E0BD0
000000BC1F80
000002F43E00
00000780B400
000000000000
000006FE4000
0000BFEFE000
0002FD02F400
001FF000FC00
003FC000FD00
00FF4000FD00
02FD0000FD00
07F80000FD00
0BF40001FD00
1FE00001FD00
2FD00002FC00
3F800003F800
7F400007F400
BF00000FF000
BE00001FE000
FE00003FC000
FD00007F8000
FD0000FE0000
FD0002FD0000
BD000BF40000
7E002FD00000
3F41BF400000
1FFFF8000000
02BF90000000
ENDCHAR
STARTCHAR ohungarumlaut
ENCODING 337
SWIDTH 514 0
DWIDTH 16 0
BBX 18 25 1 0
BITMAP
00001E02D0
00002F07D0
00007E0BD0
0000FD1F80
0002F43F00
0007D0BD00
001F42E000
0014014000
0000000000
0006FE0000
002FFFD000
00FE07E000
03F807F000
0BF007F400
1FE007F400
3FC007F400
7F800BF000
BF400FE000
BF002FD000
BE003FC000
BE00BF4000
BE01FE0000
7F07F80000
2FFFD00000
06FA000000
ENDCHAR
STARTCHAR OE
ENCODING 338
SWIDTH 900 0
DWIDTH 29 0
BBX 30 24 3 0
BITMAP
000006FF902BFA00
00006FFFF6FFEFC0
0001FE01FFF902E0
000BF800BFE002E0
002FE000BF8007E0
007F8001FE001FD0
00FF0002FC007FC0
02FD0003F802FF40
07F80007F402FD00
0BF40003F400A400
0FE00003F4000000
2FD00002F8100000
2FC00000BFFC0000
3F8000007FFC0000
7F400002FF900000
7F00000BFD000000
BF00001FE0000000
BE00003FC0000000
7E0000BF40014000
7F0002FF0003C000
3F000BFF001FC000
1F807FFF80BF4000
0BFBFE1FFFFD0000
01BFA006FF900000
ENDCHAR
STARTCHAR oe
ENCODING 339
SWIDTH 777 0
DWIDTH 25 0
BBX 23 16 2 0
BITMAP
0006F9006F90
007FFF82FFF4
01FE0BEFD1F8
07F807FF40FC
0FE007FD01FC
2FD00BFC02F8
3F800BF40BF4
BF400FF02FE0
BF001FE1FF80
FE002FFFF800
FD007FE94000
FD00FFD00000
FD02FFD001C0
BE0BFFF01BC0
3FFFE7FEFF40
0BFA00BFE400
ENDCHAR
STARTCHAR Racute
ENCODING 340
SWIDTH 623 0
DWIDTH 20 0
BBX 21 33 -1 -1
BITMAP
000000000400
000000003E00
000000007F00
00000000BE00
00000002FC00
0000000BE000
000000050000
000000000000
00006BFE4000
001BFFEFF800
007FE4007E00
007F40002F40
00183D001F80
0000BE001FC0
0001FD002FC0
0002FC003F80
0003F8007F40
0007F401FF00
000BF007FD00
000FE02FF400
001FD6FF8000
003FFFF90000
007FAF800000
00BF0FD00000
00FE07F00000
01FD03F80000
03F801FD0000
07F000FE0000
0FE000BF4000
2F80003FD000
BF00001FFF00
B8000007FD00
000000005000
ENDCHAR
STARTCHAR racute
ENCODING 341
SWIDTH 407 0
DWIDTH 13 0
BBX 15 25 0 0
BITMAP
000000F4
000001F8
000002F8
000007F4
00000FE0
00002F40
0000B900
00005000
00000000
01F802E0
02FD0FF4
00FD2FF4
00FDBFF4
00FDF5A0
01FAC000
02FB4000
03FE0000
07FC0000
0BF40000
0FE00000
1FD00000
3F800000
7F400000
7F000000
2D000000
ENDCHAR
STARTCHAR Rcommaaccent
ENCODING 342
SWIDTH 623 0
DWIDTH 20 0
BBX 21 33 -1 -9
BITMAP
00006BFE4000
001BFFEFF800
007FE4007E00
007F40002F40
00183D001F80
0000BE001FC0
0001FD002FC0
0002FC003F80
0003F8007F40
0007F401FF00
000BF007FD00
000FE02FF400
001FD6FF8000
003FFFF90000
007FAF800000
00BF0FD00000
00FE07F00000
01FD03F80000
03F801FD0000
07F000FE0000
0FE000BF4000
2F80003FD000
BF00001FFF00
B8000007FD00
000000005000
000500000000
002F80000000
003FC0000000
001F80000000
001F40000000
003E00000000
00B800000000
00E000000000
ENDCHAR
STARTCHAR rcommaaccent
ENCODING 343
SWIDTH 407 0
DWIDTH 13 0
BBX 17 25 -2 -9
BITMAP
001F802E00
002FD0FF40
000FD2FF40
000FDBFF40
001FDF5E00
001FAC0000
002FB40000
003FE00000
007FC00000
00BF400000
00FE000000
01FD000000
03F8000000
07F4000000
07F0000000
02D0000000
0000000000
0500000000
2FC0000000
2FC0000000
1FC0000000
1F80000000
2F00000000
7D00000000
E000000000
ENDCHAR
STARTCHAR Rcaron
ENCODING 344
SWIDTH 623 0
DWIDTH 20 0
BBX 22 32 -1 -1
BITMAP
000001500040
000007F802D0
000002FD2FC0
000000BFFE40
0000007FE400
000000290000
000000000000
00006BFE4000
001BFFEFF800
007FE4007E00
007F40002F40
00183D001F80
0000BE001FC0
0001FD002FC0
0002FC003F80
0003F8007F40
0007F401FF00
000BF007FD00
000FE02FF400
001FD6FF8000
003FFFF90000
007FAF800000
00BF0FD00000
00FE07F00000
01FD03F80000
03F801FD0000
07F000FE0000
0FE000BF4000
2F80003FD000
BF00001FFF00
B8000007FD00
000000005000
ENDCHAR
STARTCHAR rcaron
ENCODING 345
SWIDTH 407 0
DWIDTH 13 0
BBX 18 24 0 0
BITMAP
00029001C0
0007F007D0
0002F42F80
0001F9FD00
0000FFE000
0000BE0000
0000100000
0000000000
01F802E000
02FD0FF400
00FD2FF400
00FDBFF400
00FDF5A000
01FAC00000
02FB400000
03FE000000
07FC000000
0BF4000000
0FE0000000
1FD0000000
3F80000000
7F40000000
7F00000000
2D00000000
ENDCHAR
STARTCHAR Sacute
ENCODING 346
SWIDTH 474 0
DWIDTH 15 0
BBX 19 32 0 0
BITMAP
0000000010
00000000F8
00000001FC
00000003F8
0000000BE0
0000002F80
0000001400
0000000000
00002FE400
0001FFFF00
000BE40F80
002F8007D0
007F0007D0
00BE000BE0
00FD000FD0
01FD002FD0
01FD00BF80
01FD02FF40
01FE01FD00
00FF405000
00BFC00000
003FE00000
001FF40000
000BFC0000
0002FD0000
0600FE0000
2F00BE0000
3E007D0000
7F007C0000
3F81F40000
1FFFD00000
06FE000000
ENDCHAR
STARTCHAR sacute
ENCODING 347
SWIDTH 423 0
DWIDTH 14 0
BBX 15 25 0 0
BITMAP
000000B4
000000FC
000002FC
000003F8
00000BE0
00002F80
0000BD00
00005000
00000000
000BFA00
007FBFC0
01F80FD0
02F40BD0
03F80BC0
02FC0600
02FE0000
00FF4000
00BFC000
002FE000
000FF000
2C07F000
7D07F000
BE0BE000
3FFF8000
0BF90000
ENDCHAR
STARTCHAR Scircumflex
ENCODING 348
SWIDTH 474 0
DWIDTH 15 0
BBX 19 31 0 0
BITMAP
0000000780
0000001FD0
000000BFF0
000007F7F4
00003F81FC
0000150014
0000000000
00002FE400
0001FFFF00
000BE40F80
002F8007D0
007F0007D0
00BE000BE0
00FD000FD0
01FD002FD0
01FD00BF80
01FD02FF40
01FE01FD00
00FF405000
00BFC00000
003FE00000
001FF40000
000BFC0000
0002FD0000
0600FE0000
2F00BE0000
3E007D0000
7F007C0000
3F81F40000
1FFFD00000
06FE000000
ENDCHAR
STARTCHAR scircumflex
ENCODING 349
SWIDTH 423 0
DWIDTH 14 0
BBX 16 25 0 0
BITMAP
00000090
000002F4
00001FF4
00007FF8
0002F8FC
002FD0BD
002E002E
00000000
00000000
000BFA00
007FBFC0
01F80FD0
02F40BD0
03F80BC0
02FC0600
02FE0000
00FF4000
00BFC000
002FE000
000FF000
2C07F000
7D07F000
BE0BE000
3FFF8000
0BF90000
ENDCHAR
STARTCHAR Scedilla
ENCODING 350
SWIDTH 474 0
DWIDTH 15 0
BBX 18 31 0 -7
BITMAP
00006FE400
0002FFBF00
000BE00F80
002F8007D0
007F0007D0
00BE000BE0
00FD000FD0
01FD002FC0
01FD01BF80
01FD02FF00
01FF00F800
00FF400000
007FC00000
002FE00000
000FF40000
0007FC0000
0001FD0000
1F00BE0000
3F007E0000
7F007D0000
7F40BC0000
3FE6F40000
1FFFD00000
02F9000000
00B4000000
007C000000
00BC000000
01FC000000
0BF8000000
0FF0000000
0680000000
ENDCHAR
STARTCHAR scedilla
ENCODING 351
SWIDTH 423 0
DWIDTH 14 0
BBX 14 23 0 -7
BITMAP
000BFA00
007FBFC0
01F80FD0
02F40BD0
03F80BC0
03FC0600
02FE0000
01FF4000
00BFC000
003FE000
001FF000
2C0BF000
7D07F000
BE07E000
7FFF8000
1BF90000
02D00000
02E00000
02F00000
07E00000
2FE00000
7FC00000
2E400000
ENDCHAR
STARTCHAR Scaron
ENCODING 352
SWIDTH 474 0
DWIDTH 15 0
BBX 21 31 0 0
BITMAP
000005400100
00001FD00B40
00000BF4BF00
000003FFF900
000001FF9000
000000A40000
000000000000
00002FE40000
0001FFFF0000
000BE40F8000
002F8007D000
007F0007D000
00BE000BE000
00FD000FD000
01FD002FD000
01FD00BF8000
01FD02FF4000
01FE01FD0000
00FF40500000
00BFC0000000
003FE0000000
001FF4000000
000BFC000000
0002FD000000
0600FE000000
2F00BE000000
3E007D000000
7F007C000000
3F81F4000000
1FFFD0000000
06FE00000000
ENDCHAR
STARTCHAR scaron
ENCODING 353
SWIDTH 423 0
DWIDTH 14 0
BBX 18 24 0 0
BITMAP
0001A000A0
0002F802E0
0000FC1FD0
0000BDBE40
00007FF400
00007E4000
0000140000
0000000000
000BFA0000
007FBFC000
01F80FD000
02F40BD000
03F80BC000
02FC060000
02FE000000
00FF400000
00BFC00000
002FE00000
000FF00000
2C07F00000
7D07F00000
BE0BE00000
3FFF800000
0BF9000000
ENDCHAR
STARTCHAR Tcommaaccent
ENCODING 354
SWIDTH 471 0
DWIDTH 15 0
BBX 19 33 1 -9
BITMAP
01BF940008
0BFFFF902C
1FFFFFFFFC
2FD02FFFF4
3F403FAA90
2F007F4000
1E00BF0000
0000FE0000
0001FD0000
0002FC0000
0003F80000
0007F40000
000BF00000
000FE00000
001FD00000
002FC00000
003F800000
007F400000
00BE000000
00FD000000
02F8000000
07F0000000
1FD0000000
2E00000000
0000000000
0140000000
0FE0000000
0FE0000000
0BE0000000
0BD0000000
0F80000000
2E00000000
7800000000
ENDCHAR
STARTCHAR tcommaaccent
ENCODING 355
SWIDTH 358 0
DWIDTH 11 0
BBX 13 29 0 -9
BITMAP
00014000
0007F000
000FE000
002FC000
07FFFF40
06FFA900
00FD0000
01FC0000
02F80000
03F40000
07F00000
0BE00000
0FD00000
0FC00000
1FC00000
1F801000
1FC0A000
1FEBD000
0BFF8000
02F90000
00000000
05000000
2FC00000
2FD00000
0FC00000
0F800000
2F000000
7D000000
A4000000
ENDCHAR
STARTCHAR Tcaron
ENCODING 356
SWIDTH 471 0
DWIDTH 15 0
BBX 19 31 2 0
BITMAP
0000140004
00007F407C
00002FC2FC
00000FEFE0
000007FE00
0000029000
0000000000
06FFA54070
2FFFFFFFF0
BFFFFFFFE0
FF40BFAE40
FD00FD0000
7801FC0000
1002F80000
0003F80000
0007F40000
000BF00000
000FE00000
001FD00000
002FC00000
003F800000
007F400000
00BF000000
00FE000000
01FC000000
02F8000000
03F4000000
0BE0000000
1FC0000000
7F00000000
B800000000
ENDCHAR
STARTCHAR tcaron
ENCODING 357
SWIDTH 497 0
DWIDTH 16 0
BBX 16 26 3 0
BITMAP
0000002E
000000BF
0000007F
0000003E
0000007D
000500B8
002F01F0
007F0380
00FE0000
01FC0000
7FFFF800
6FFA9000
0BE00000
0FD00000
1FC00000
2F800000
3F400000
7F000000
BE000000
BD000000
FD000000
FC010000
FD0B0000
FFBE0000
BFF80000
2F900000
ENDCHAR
STARTCHAR Tbar
ENCODING 358
SWIDTH 471 0
DWIDTH 15 0
BBX 18 24 2 0
BITMAP
06FFA54070
2FFFFFFFF0
BFFFFFFFE0
FF40BFAE40
FD00FD0000
7801FC0000
1002FC0000
0003F80000
0007F40000
000BF00000
000FE00000
7FFFFF0000
AABFE80000
003F800000
007F400000
00BF000000
00FD000000
01FC000000
02F8000000
07F0000000
0BE0000000
1FC0000000
BF00000000
B800000000
ENDCHAR
STARTCHAR tbar
ENCODING 359
SWIDTH 358 0
DWIDTH 11 0
BBX 13 21 0 0
BITMAP
00014000
0003E000
000BE000
001FD000
002F8000
07FFFF40
06FFA900
00FD0000
01FD0000
02FC0000
02F80000
2FFFFE00
6FFAA800
0BE00000
0FD00000
0FC00000
1F800000
1FC0A000
1FEBD000
0FFF8000
02F90000
ENDCHAR
STARTCHAR Utilde
ENCODING 360
SWIDTH 624 0
DWIDTH 20 0
BBX 22 31 0 0
BITMAP
0000006E0060
000002FFC1E0
00000BFFFFD0
00001E0BFF40
00001C02F800
000000000000
000000000000
0007E40002E0
000FF80007F0
0003F8000BE0
0003F4001FD0
0007F0003F80
000BE0007F40
001FD000FF00
002FC001FE00
003F8003FD00
007F000BFC00
00FE000FF800
01FC002FF400
02F8007FF000
07F400BFE000
0BE001FFD000
0FD003EFC000
1FC00BAF8000
2F801F2F4000
3F407D3F4000
7F00F43F0000
7F47E07F4000
7FFF803FFD00
3FFD002FF800
0BE4000BE000
ENDCHAR
STARTCHAR utilde
ENCODING 361
SWIDTH 553 0
DWIDTH 18 0
BBX 20 24 0 0
BITMAP
00001BD009
00007FF82D
0000FFFFF8
0002D1FFE0
0002806F80
0000000000
0000000000
0000000000
00BD000790
01FF000FD0
00BF002FC0
00BE007F40
00FD00FF00
01FC01FD00
03F803FC00
07F40BF800
0BE01FF400
1FD07FE000
2FC0F7D000
3F42DBD000
3F4B8BD100
7FFE0FFF00
3FF80BFE00
1B9002F400
ENDCHAR
STARTCHAR Umacron
ENCODING 362
SWIDTH 624 0
DWIDTH 20 0
BBX 22 29 0 0
BITMAP
000007FFFF80
00000FFFFF80
00000AFFFE00
000000000000
000000000000
0007E40002E0
000FF80007F0
0003F8000BE0
0003F4001FD0
0007F0003F80
000BE0007F40
001FD000FF00
002FC001FE00
003F8003FD00
007F000BFC00
00FE000FF800
01FC002FF400
02F8007FF000
07F400BFE000
0BE001FFD000
0FD003EFC000
1FC00BAF8000
2F801F2F4000
3F407D3F4000
7F00F43F0000
7F47E07F4000
7FFF803FFD00
3FFD002FF800
0BE4000BE000
ENDCHAR
STARTCHAR umacron
ENCODING 363
SWIDTH 553 0
DWIDTH 18 0
BBX 19 21 0 0
BITMAP
0000BFFFF4
0002FFFFF4
0001BFFF90
0000000000
0000000000
00BD000790
01FF000FD0
00BF002FC0
00BE007F40
00FD00FF00
01FC01FD00
03F803FC00
07F40BF800
0BE01FF400
1FD07FE000
2FC0F7D000
3F42DBD000
3F4B8BD100
7FFE0FFF00
3FF80BFE00
1B9002F400
ENDCHAR
STARTCHAR Ubreve
ENCODING 364
SWIDTH 624 0
DWIDTH 20 0
BBX 22 31 0 0
BITMAP
000000B001C0
000001F403C0
000002F81F80
000001FFFE00
000000FFF800
0000002A9000
000000000000
0007E40002E0
000FF80007F0
0003F8000BE0
0003F4001FD0
0007F0003F80
000BE0007F40
001FD000FF00
002FC001FE00
003F8003FD00
007F000BFC00
00FE000FF800
01FC002FF400
02F8007FF000
07F400BFE000
0BE001FFD000
0FD003EFC000
1FC00BAF8000
2F801F2F4000
3F407D3F4000
7F00F43F0000
7F47E07F4000
7FFF803FFD00
3FFD002FF800
0BE4000BE000
ENDCHAR
STARTCHAR ubreve
ENCODING 365
SWIDTH 553 0
DWIDTH 18 0
BBX 19 24 0 0
BITMAP
00001E0028
00003E0078
00003F42F4
00003FFFE0
00001FFF80
000006F900
0000000000
0000000000
00BD000790
01FF000FD0
00BF002FC0
00BE007F40
00FD00FF00
01FC01FD00
03F803FC00
07F40BF800
0BE01FF400
1FD07FE000
2FC0F7D000
3F42DBD000
3F4B8BD100
7FFE0FFF00
3FF80BFE00
1B9002F400
ENDCHAR
STARTCHAR Uring
ENCODING 366
SWIDTH 624 0
DWIDTH 20 0
BBX 22 31 0 0
BITMAP
0000000BF800
0000003FFE00
000000BD2F00
000001F82F00
000001F42F00
000001F43E00
000000F8B800
0007E46F92E0
000FF80007F0
0003F8000BE0
0003F4001FD0
0007F0003F80
000BE0007F40
001FD000FF00
002FC001FE00
003F8003FD00
007F000BFC00
00FE000FF800
01FC002FF400
02F8007FF000
07F400BFE000
0BE001FFD000
0FD003EFC000
1FC00BAF8000
2F801F2F4000
3F407D3F4000
7F00F43F0000
7F47E07F4000
7FFF803FFD00
3FFD002FF800
0BE4000BE000
ENDCHAR
STARTCHAR uring
ENCODING 367
SWIDTH 553 0
DWIDTH 18 0
BBX 18 25 0 0
BITMAP
000001BE40
00000BFFD0
00002F43E0
00003F03E0
00003E0BD0
00002FFF40
00000BF900
0000000000
0000000000
00BD000790
01FF000FD0
00BF002FC0
00BE007F40
00FD00FF00
01FC01FD00
03F803FC00
07F40BF800
0BE01FF400
1FD07FE000
2FC0F7D000
3F42DBD000
3F4B8BD100
7FFE0FFF00
3FF80BFE00
1B9002F400
ENDCHAR
STARTCHAR Uhungarumlaut
ENCODING 368
SWIDTH 624 0
DWIDTH 20 0
BBX 22 31 0 0
BITMAP
0000001E02D0
0000002F03E0
0000003F07D0
000000BD0FC0
000002F42F00
00000790B800
000000000000
0007E40002E0
000FF80007F0
0003F8000BE0
0003F4001FD0
0007F0003F80
000BE0007F40
001FD000FF00
002FC001FE00
003F8003FD00
007F000BFC00
00FE000FF800
01FC002FF400
02F8007FF000
07F400BFE000
0BE001FFD000
0FD003EFC000
1FC00BAF8000
2F801F2F4000
3F407D3F4000
7F00F43F0000
7F47E07F4000
7FFF803FFD00
3FFD002FF800
0BE4000BE000
ENDCHAR
STARTCHAR uhungarumlaut
ENCODING 369
SWIDTH 553 0
DWIDTH 18 0
BBX 20 25 0 0
BITMAP
000002D03C
000003E07D
00000BD0FC
00001F82F4
00002F47E0
0000BD0F80
0002E03E00
0001401400
0000000000
00BD000790
01FF000FD0
00BF002FC0
00BE007F40
00FD00FF00
01FC01FD00
03F803FC00
07F40BF800
0BE01FF400
1FD07FE000
2FC0F7D000
3F42DBD000
3F4B8BD100
7FFE0FFF00
3FF80BFE00
1B9002F400
ENDCHAR
STARTCHAR Uogonek
ENCODING 370
SWIDTH 684 0
DWIDTH 22 0
BBX 22 32 1 -8
BITMAP
000BE40002E0
000FF80007F0
0007F8000FE0
0003F4001FD0
0007F0003F80
000BE0007F40
001FD000FF00
002FC002FE00
003F4003FD00
00BF000BFC00
00FE000FF800
01FC002FF000
03F8007FE000
07F400BFD000
0BE001FFD000
0FD003EFC000
1FC00BAF8000
2F801F2F4000
3F407D3F4000
7F00F47F0000
7F47E07F4000
7FFF803FFD00
3FFD002FF800
0BE0000BE000
0000000F4000
0000003D0000
000000B80000
000001F40000
000003F54000
000003FF8000
000003FF0000
000001A80000
ENDCHAR
STARTCHAR uogonek
ENCODING 371
SWIDTH 553 0
DWIDTH 18 0
BBX 18 24 0 -8
BITMAP
00BD000790
01FF000FD0
00BF002FC0
00BE007F40
00FD00FF00
01FC01FD00
03F803FC00
07F40BF800
0BE01FF400
1FD07FE000
2FC0F7D000
3F42DBD000
3F4B8BD100
7FFE0FFF00
3FF80BFE00
1B9002F800
000002D000
00000F4000
00002E0000
00007D0000
0000BE1000
0000FFE000
0000BFD000
00002A0000
ENDCHAR
STARTCHAR Wcircumflex
ENCODING 372
SWIDTH 941 0
DWIDTH 30 0
BBX 30 31 2 0
BITMAP
0000000002D00000
000000000BF00000
000000007FF40000
00000006FAFC0000
0000001FD0BE0000
0000000500150000
0000000000000000
06FE000000001B80
2FFF800000003FD0
7FFFD00000003FE0
2E47E00000001FE0
000FE00000000FF0
002FD0006E000FF0
007F8001FF000FE0
00BF400BFD000FE0
01FE002FF4000FE0
02FD00BFE0001FD0
03F802FFD0001FC0
0BF407FF80002F80
0FE01FFF40003F40
1FD03F7F00007E00
2FC0BDBE0000FD00
3F41F4FE0002F800
7F03E0FD0003F000
BE0B81FC000BD000
BE1F01FC001F8000
BD3D01FC007E0000
BDB800FC01F80000
7EE000BD07E00000
3FC0007FFF400000
1F40001BE4000000
ENDCHAR
STARTCHAR wcircumflex
ENCODING 373
SWIDTH 750 0
DWIDTH 24 0
BBX 23 25 1 0
BITMAP
000000028000
0000000BE000
0000002FE000
000001FFF000
00000BE2F400
0000BF81F800
0000B900BC00
000000000000
000000000000
07F4000007E0
0BFC00680BF4
02FC01FC07F4
02F803F803F8
02F407F402F4
03F00FE002F4
07E02FD003F0
0FD07FC003E0
1FC0FF8007D0
2F42FF400F80
3F07AF001F00
7E1E3F007D00
BD7C3F41F800
FFF02FDBE000
BF801FFF4000
7D0007F80000
ENDCHAR
STARTCHAR Ycircumflex
ENCODING 374
SWIDTH 580 0
DWIDTH 19 0
BBX 22 40 0 -9
BITMAP
000000009000
00000002F000
0000001FF400
000000BEFC00
00000BF4BE00
00000B802F00
000000000000
000BE00002D0
000FF80007F0
0007F8000FE0
0003F4001FD0
0007F0003F80
000FE000BF40
001FD000FF00
002FC002FE00
003F4003FD00
00BF000BFC00
00FD001FF400
01FC002FF000
03F8007FE000
07F000FFD000
0BE002FFC000
0FD003EF8000
1FC00BBF4000
3F401E7F0000
3F407DBE0000
7F01F4FD0000
7F47D2F80000
7FFF83F40000
3FFD0BE00000
0BE00FD00000
00002F800000
00007F000000
0000FD000000
0002F8000000
000BF0000000
002FC0000000
00BF00000000
0BF800000000
1F9000000000
ENDCHAR
STARTCHAR ycircumflex
ENCODING 375
SWIDTH 549 0
DWIDTH 18 0
BBX 17 34 1 -9
BITMAP
0000006000
000001F800
00000BFC00
00002FFD00
0001FD7E00
001FE03F00
001E401F40
0000000000
0000000000
02F8001F40
07FD003F80
01FD007F00
02FC00FE00
03F802FD00
07F407FC00
0BF00BF800
0FD01FF400
2FC03FF000
3F80BFE000
7F02EFD000
BE0B9FC000
FD2F2F8000
FFFC3F0000
BFF07E0000
2F40BD0000
0000F80000
0002F40000
0007E00000
000FC00000
003F400000
00FE000000
07F8000000
3FD0000000
1900000000
ENDCHAR
STARTCHAR Ydieresis
ENCODING 376
SWIDTH 580 0
DWIDTH 19 0
BBX 22 39 0 -9
BITMAP
00000BE01F80
00001FF47FD0
00001FF07FD0
00000FE03F80
000006400900
000000000000
000BE00002D0
000FF80007F0
0007F8000FE0
0003F4001FD0
0007F0003F80
000FE000BF40
001FD000FF00
002FC002FE00
003F4003FD00
00BF000BFC00
00FD001FF400
01FC002FF000
03F8007FE000
07F000FFD000
0BE002FFC000
0FD003EF8000
1FC00BBF4000
3F401E7F0000
3F407DBE0000
7F01F4FD0000
7F47D2F80000
7FFF83F40000
3FFD0BE00000
0BE00FD00000
00002F800000
00007F000000
0000FD000000
0002F8000000
000BF0000000
002FC0000000
00BF00000000
0BF800000000
1F9000000000
ENDCHAR
STARTCHAR Zacute
ENCODING 377
SWIDTH 501 0
DWIDTH 16 0
BBX 20 31 -1 0
BITMAP
00000000F4
00000002F8
00000003F8
0000000FE0
0000003F40
0000001400
0000000000
00390016F8
003FFFFFFE
002FFFF9BF
000BFE42FE
0000000BFD
0000001FF4
0000007FE0
000001FF80
000007FE00
00001FF800
00003FE000
0000FF8000
0002FE0000
000BF80000
002FE00000
007F800000
01FF000000
03FC000000
0BF4000000
1FD0000000
3F81AFF400
7F6FFFFD00
7FFFFFFF00
2FA5001B00
ENDCHAR
STARTCHAR zacute
ENCODING 378
SWIDTH 430 0
DWIDTH 14 0
BBX 16 25 0 0
BITMAP
00000078
000000BD
000000FD
000002FC
000007F4
00001FD0
00007E00
00001000
00000000
00E401B0
01FFFFF8
00BFFBF8
00040BF0
00007FD0
0001FF40
0007FC00
002FE000
00BF8000
02FD0000
0BF40000
1FD00000
3F455000
BFBFFC00
BFFFFE00
2E401E00
ENDCHAR
STARTCHAR Zdotaccent
ENCODING 379
SWIDTH 501 0
DWIDTH 16 0
BBX 20 31 -1 0
BITMAP
0000005400
000002FD00
000003FE00
000003FD00
000001F800
0000000000
0000000000
00390016F8
003FFFFFFE
002FFFF9BF
000BFE42FE
0000000BFD
0000001FF4
0000007FE0
000001FF80
000007FE00
00001FF800
00003FE000
0000FF8000
0002FE0000
000BF80000
002FE00000
007F800000
01FF000000
03FC000000
0BF4000000
1FD0000000
3F81AFF400
7F6FFFFD00
7FFFFFFF00
2FA5001B00
ENDCHAR
STARTCHAR zdotaccent
ENCODING 380
SWIDTH 430 0
DWIDTH 14 0
BBX 15 24 0 0
BITMAP
00007E00
0000FF80
0000FF40
0000BF00
00002800
00000000
00000000
00000000
00E401B0
01FFFFF8
00BFFBF8
00040BF0
00007FD0
0001FF40
0007FC00
002FE000
00BF8000
02FD0000
0BF40000
1FD00000
3F455000
BFBFFC00
BFFFFE00
2E401E00
ENDCHAR
STARTCHAR Zcaron
ENCODING 381
SWIDTH 501 0
DWIDTH 16 0
BBX 20 31 -1 0
BITMAP
0000050001
00002FD01F
00000BF0BF
000003FBF8
000002FE40
000000A400
0000000000
00390016F8
003FFFFFFE
002FFFF9BF
000BFE42FE
0000000BFD
0000001FF4
0000007FE0
000001FF80
000007FE00
00001FF800
00003FE000
0000FF8000
0002FE0000
000BF80000
002FE00000
007F800000
01FF000000
03FC000000
0BF4000000
1FD0000000
3F81AFF400
7F6FFFFD00
7FFFFFFF00
2FA5001B00
ENDCHAR
STARTCHAR zcaron
ENCODING 382
SWIDTH 430 0
DWIDTH 14 0
BBX 17 24 0 0
BITMAP
0006800280
0007E00BC0
0003F07F40
0002F6FD00
0001FFD000
0000FD0000
0000500000
0000000000
00E401B000
01FFFFF800
00BFFBF800
00040BF000
00007FD000
0001FF4000
0007FC0000
002FE00000
00BF800000
02FD000000
0BF4000000
1FD0000000
3F45500000
BFBFFC0000
BFFFFE0000
2E401E0000
ENDCHAR
STARTCHAR florin
ENCODING 402
SWIDTH 466 0
DWIDTH 15 0
BBX 25 34 -6 -9
BITMAP
0000000002A400
000000001FFE00
000000007F4B40
00000000FC0780
00000002F40F80
00000007E02F80
0000000BD0BF40
0000001FC1FE00
0000002F40B800
0000003F000000
0000007E000000
000000FFF90000
000007FFFF0000
00007FFFFF0000
00007FF8000000
000017F4000000
000007F0000000
00000BE0000000
00000FE0000000
00000FD0000000
00001FC0000000
00002F80000000
00003F40000000
00003F40000000
00007F00000000
0000BE00000000
0000FD00000000
0001FC00000000
0002F400000000
7C07F000000000
FC0BD000000000
FD2F8000000000
7FFE0000000000
1BF80000000000
ENDCHAR
STARTCHAR AEacute
ENCODING 508
SWIDTH 878 0
DWIDTH 28 0
BBX 33 31 -2 0
BITMAP
0000000000003D0000
000000000000BF0000
000000000000FE0000
000000000003F80000
00000000000FD00000
000000000005000000
000000000000000000
000000001BF9AFE400
00000000BFFFFFBE00
00000002FFFFE40F40
0000000BE4FF400F80
0000002F82FD001F40
000000BE07F8007F40
000001FC0FF002FE00
000003F41FD00BFC00
00000BD01FC00FF400
00001F801FC0068000
00003F001FC0000000
0000BD000FD0000000
0001FEBFFFFBD00000
0007FFFFFFFFF00000
007FFFFFFFFE400000
006FC0002FE4000000
002F4000BF80000000
007E0001FE00000000
00FD0002FC00050000
02F80002F8001E0000
07F00002F8007E0000
1FD00001FD06FC0000
BF400000BFFFE00000
B90000001BFA400000
ENDCHAR
STARTCHAR aeacute
ENCODING 509
SWIDTH 770 0
DWIDTH 25 0
BBX 23 25 1 0
BITMAP
00000002D000
00000007F000
0000000BF000
0000001FD000
0000002F8000
000000BE0000
000002F40000
000001400000
000000000000
0002F92E6FD0
002FEFBFFBF8
00BE03FF82FC
02F802FE01FC
07F003FC02FC
1FD007F807F8
2F800BF01FF4
7F400FE0BFD0
BF002FEBFE00
BE003FFF9000
FE00BFD00000
FE01EFD00040
BE03CFE002D0
BF0B4BF01BC0
3FFD02FEFF40
0BE0006FE400
ENDCHAR
STARTCHAR Scommaaccent
ENCODING 536
SWIDTH 474 0
DWIDTH 15 0
BBX 18 33 0 -9
BITMAP
00002FE400
0001FFFF00
000BE40F80
002F8007D0
007F0007D0
00BE000BE0
00FD000FD0
01FD002FD0
01FD00BF80
01FD02FF40
01FE01FD00
00FF405000
00BFC00000
003FE00000
001FF40000
000BFC0000
0002FD0000
0600FE0000
2F00BE0000
3E007D0000
7F007C0000
3F81F40000
1FFFD00000
06FE000000
0000000000
0050000000
02F8000000
03FC000000
01F8000000
01F4000000
02E0000000
0BC0000000
0E00000000
ENDCHAR
STARTCHAR scommaaccent
ENCODING 537
SWIDTH 423 0
DWIDTH 14 0
BBX 14 25 0 -9
BITMAP
000BFA00
007FBFC0
01F80FD0
02F40BD0
03F80BC0
02FC0600
02FE0000
00FF4000
00BFC000
002FE000
000FF000
2C07F000
7D07F000
BE0BE000
3FFF8000
0BF90000
00000000
01400000
0FE00000
0FF00000
07E00000
07D00000
0F800000
2E000000
38000000
ENDCHAR
STARTCHAR dotlessj
ENCODING 567
SWIDTH 277 0
DWIDTH 9 0
BBX 14 25 -6 -9
BITMAP
00001FD0
00002FE0
00001FE0
00000FE0
00000FD0
00001FD0
00001FC0
00002F80
00003F40
00007F00
0000BF00
0000FE00
0001FD00
0002F800
0003F400
0007F000
000BE000
001FC000
002F8000
007F0000
00FD0000
02F40000
0BE00000
6F400000
79000000
ENDCHAR
STARTCHAR circumflex
ENCODING 710
SWIDTH 354 0
DWIDTH 11 0
BBX 12 7 0 18
BITMAP
000180
0007E0
002FF0
00BFF4
07F5F8
7F80FC
79007D
ENDCHAR
STARTCHAR caron
ENCODING 711
SWIDTH 381 0
DWIDTH 12 0
BBX 11 7 1 17
BITMAP
68001C
7E00BC
3F47F8
1FAFD0
1FFD00
0F9000
010000
ENDCHAR
STARTCHAR breve
ENCODING 728
SWIDTH 344 0
DWIDTH 11 0
BBX 10 6 1 18
BITMAP
2C0030
7D00F0
BE07E0
7FFFC0
2FFE00
06A400
ENDCHAR
STARTCHAR dotaccent
ENCODING 729
SWIDTH 217 0
DWIDTH 7 0
BBX 5 5 2 19
BITMAP
2F40
BFC0
BF80
7F40
1900
ENDCHAR
STARTCHAR ring
ENCODING 730
SWIDTH 402 0
DWIDTH 13 0
BBX 9 8 4 17
BITMAP
06FD00
1FFF40
3E0F80
BC0FC0
BC0F80
BC2F40
7FFD00
1BE400
ENDCHAR
STARTCHAR ogonek
ENCODING 731
SWIDTH 311 0
DWIDTH 10 0
BBX 8 10 1 -8
BITMAP
0005
002D
01F4
07C0
1F40
3E00
7E10
BFF0
7FE0
2F40
ENDCHAR
STARTCHAR tilde
ENCODING 732
SWIDTH 397 0
DWIDTH 13 0
BBX 12 5 2 19
BITMAP
06E407
2FFD1F
7FFFFD
F47FF8
D01F90
ENDCHAR
STARTCHAR hungarumlaut
ENCODING 733
SWIDTH 392 0
DWIDTH 13 0
BBX 13 8 0 17
BITMAP
00140240
007D0B80
00BD0F80
01FC2F40
02F47E00
0BD0FC00
1F42E000
780B4000
ENDCHAR
STARTCHAR pi
ENCODING 960
SWIDTH 640 0
DWIDTH 20 0
BBX 22 16 -1 0
BITMAP
001BFFFFFFE0
00BFFFFFFFE0
02FFFFFFFF80
0140F55BF500
0001F00BE000
0002E00FD000
0007D02F8000
000BC03F4000
001F407F0000
003F007F0000
00BE00BE0000
01FD00FD0000
07F800FD0000
2FF000FFB000
7FD000BFE000
2E40002F8000
ENDCHAR
STARTCHAR uni1E02
ENCODING 7682
SWIDTH 551 0
DWIDTH 18 0
BBX 19 31 1 0
BITMAP
0000005000
000007FC00
00000BFC00
000007F800
000002F400
0000000000
0000000000
0016BFE400
02FFFEFF40
0FFE401FD0
0FE00007F0
014F4003F0
002FD007F4
007FC007F0
00FF400BF0
01FE001FD0
03FC007F80
07F802FE00
0BF06FF800
0FFFFFD000
1FFFFF8000
2FE41BE000
3F4003F400
7F0002F800
7E0002F800
7D0003F400
BD000BF000
7D002FD000
7E01FF4000
2FFFF80000
07FE400000
ENDCHAR
STARTCHAR uni1E03
ENCODING 7683
SWIDTH 525 0
DWIDTH 17 0
BBX 17 26 1 0
BITMAP
000F400000
001F800000
002F806E00
003F40FF80
003F40FF80
007F00BF00
00BE001800
00FD000000
01FC000000
01F8000000
02F47F8000
03F7FFE000
07EF47F400
0BFD03F400
0FF403F800
1FE003F800
2FC007F800
3F8007F400
7F000BF000
BE000FE000
BD002FC000
BC007F4000
BC01FE0000
7E0BF80000
2FFFD00000
06F9000000
ENDCHAR
STARTCHAR uni1E0A
ENCODING 7690
SWIDTH 630 0
DWIDTH 20 0
BBX 20 31 1 0
BITMAP
0000005400
000002FE00
000003FE00
000003FD00
000001F800
0000000000
0000000000
005AFFA400
07FFFFFF40
0BFE556FE0
07F40007F4
00404001FC
000BF000FD
001FE000BE
003FC000BE
007F4000BE
00FF0000FE
01FD0000FD
03FC0001FC
07F80002FC
0BF00007F4
0FE0000FF0
1FD0001FD0
2FC0007F80
3F8001FE00
3F4007FC00
7F001FF000
7F00BF8000
7E07FD0000
2FBFE00000
06F9000000
ENDCHAR
STARTCHAR uni1E0B
ENCODING 7691
SWIDTH 557 0
DWIDTH 18 0
BBX 20 26 1 0
BITMAP
000000002D
00000000BE
001B8001FD
003FE002F8
003FE003F4
002FC007F0
0006000BE0
0000000FD0
0000001FC0
0000002F80
0001BE3F40
001FFFFF00
007F42FE00
01FC01FD00
03F402FC00
0BE002F800
1FC003F400
3F800BF000
7F400FE000
7F001FD000
BF003FD000
BF00BFC000
BF01DFC100
7F078FFF00
3FFE0BFE00
0BE402F400
ENDCHAR
STARTCHAR uni1E1E
ENCODING 7710
SWIDTH 518 0
DWIDTH 17 0
BBX 19 31 1 0
BITMAP
0000001400
000001FF00
000002FF00
000001FF00
000000BD00
0000000000
0000000000
02FFA94028
1FFFFFFFF8
3FFFFFFFF0
7F903F6A40
3E00BD0000
2D00FC0000
0001FC0000
0003F80000
0007F40000
000BF00000
000FE00000
001FFFE000
00BFFFF800
03FFFFF800
02BF800000
00BF000000
00FE000000
01FD000000
03F8000000
07F4000000
0FE0000000
2F80000000
BE00000000
B800000000
ENDCHAR
STARTCHAR uni1E1F
ENCODING 7711
SWIDTH 393 0
DWIDTH 13 0
BBX 18 35 -1 -4
BITMAP
000002F400
00000BFC00
00000BFC00
000007F400
000001F900
000002FFD0
00000FD3F0
00002F82F0
00003F03F0
00007E0BF0
0000FD1FD0
0001FC0B80
0002F80000
0002F40000
0003F00000
0007F00000
000BFB9000
006FFFF400
03FFFFF400
07FF800000
003F400000
007F000000
00BF000000
00BE000000
00FD000000
01FC000000
02F8000000
03F4000000
07F0000000
0BE0000000
0FD0000000
2FC0000000
3F80000000
7F00000000
7D00000000
ENDCHAR
STARTCHAR uni1E40
ENCODING 7744
SWIDTH 931 0
DWIDTH 30 0
BBX 33 31 -3 0
BITMAP
000000000000150000
000000000000BF8000
000000000000FF8000
000000000000FF4000
0000000000007E0000
000000000000000000
000000000000000000
000000002F80002F80
00000001FFD001FFC0
00000007FFC007FF80
0000001F6F801FAF40
0000007D7F003F7F00
000000F8BE00BDBE00
000002F0FD01F8FD00
000007D1FC03F1FC00
00000F82F80BD2F800
00002F43F40F83F400
00007E07F42F47F000
0000BC07F03E0BE000
0001F80BE0BC0FD000
0002F00FD1F81FC000
0007D00FD2F02F8000
000FC01FC7D03F4000
002F401FCBC03F4000
007F001FDF407F0000
00BD001FAF007F0000
01F8002FFD00BF0000
07F0001FF800BF0400
1FD0001FF0007FFD00
BF80001FD0003FFC00
B900000B80000BE000
ENDCHAR
STARTCHAR uni1E41
ENCODING 7745
SWIDTH 814 0
DWIDTH 26 0
BBX 25 24 0 0
BITMAP
00000007E00000
0000000FF40000
0000001FF40000
0000000FF00000
00000002800000
00000000000000
00000000000000
00000000000000
00BD00BD00BE00
01FF07FF02FF80
00BF1FFF0BFF80
00BE3E2F2E2F80
00FDB82E783F40
01FEE03EE07F00
02FB807FC0FE00
03FE00FF41FC00
07FC01FE02F800
0BF403F807F400
1FD007F40BE000
2FC00FE00BD000
3F401FD00FD000
BF002F800FFB00
FD003F400BFE00
78001E0002F800
ENDCHAR
STARTCHAR uni1E56
ENCODING 7766
SWIDTH 553 0
DWIDTH 18 0
BBX 21 31 -1 0
BITMAP
000000015000
0000000BF400
0000000FF800
0000000FF400
00000007E000
000000000000
000000000000
00016FFE4000
001BFFEFF800
007FF400BE00
00BF40003F40
002878002F80
0000FE002F80
0001FD002F80
0002FC003F80
0007F400BF40
000BF002FE00
000FE00BFC00
001FD06FF000
002FD6FF8000
003FFFF90000
007FFE400000
00BF00000000
01FD00000000
02FC00000000
03F800000000
0BF000000000
1FD000000000
3F8000000000
BE0000000000
B80000000000
ENDCHAR
STARTCHAR uni1E57
ENCODING 7767
SWIDTH 550 0
DWIDTH 18 0
BBX 19 33 -2 -9
BITMAP
000000BD00
000002FE00
000003FE00
000002FD00
0000006400
0000000000
0000000000
0000000000
002F80BF40
007FC7FFD0
001FDF47F0
001FFD03F4
002FF403F4
002FE003F4
003FC007F4
007F400BF0
007F000FE0
00BE001FD0
00FD003F80
01FC00BF00
02FC02FD00
03FE1BF400
03FFFF9000
07E2F90000
0BD0000000
0FC0000000
1F80000000
2F40000000
3F40000000
7F00000000
FD00000000
FC00000000
B400000000
ENDCHAR
STARTCHAR uni1E60
ENCODING 7776
SWIDTH 474 0
DWIDTH 15 0
BBX 18 31 0 0
BITMAP
0000005400
000002FE00
000003FE00
000002FE00
000001F800
0000000000
0000000000
00002FE400
0001FFFF00
000BE40F80
002F8007D0
007F0007D0
00BE000BE0
00FD000FD0
01FD002FD0
01FD00BF80
01FD02FF40
01FE01FD00
00FF405000
00BFC00000
003FE00000
001FF40000
000BFC0000
0002FD0000
0600FE0000
2F00BE0000
3E007D0000
7F007C0000
3F81F40000
1FFFD00000
06FE000000
ENDCHAR
STARTCHAR uni1E61
ENCODING 7777
SWIDTH 423 0
DWIDTH 14 0
BBX 14 24 0 0
BITMAP
00001F80
00007FD0
00007FD0
00003F80
00000900
00000000
00000000
00000000
000BFA00
007FBFC0
01F80FD0
02F40BD0
03F80BC0
02FC0600
02FE0000
00FF4000
00BFC000
002FE000
000FF000
2C07F000
7D07F000
BE0BE000
3FFF8000
0BF90000
ENDCHAR
STARTCHAR uni1E6A
ENCODING 7786
SWIDTH 430 0
DWIDTH 14 0
BBX 19 31 1 0
BITMAP
0000015000
000007F800
00000FFC00
00000BF800
000003E000
0000000000
0000000000
06FFA54064
2FFFFFFFF4
7FFFFFFFE0
BF407FAE80
BD00BE0000
7C00FD0000
0401FC0000
0002F80000
0007F40000
0007F00000
000BF00000
000FE00000
001FD00000
002FC00000
003F800000
007F400000
00BE000000
00FD000000
01FC000000
03F4000000
07E0000000
1FD0000000
7F40000000
7900000000
ENDCHAR
STARTCHAR uni1E6B
ENCODING 7787
SWIDTH 358 0
DWIDTH 11 0
BBX 12 25 2 0
BITMAP
0002F4
000BFC
000BFC
0007F4
000290
001F80
003F80
007F00
00FE00
2FFFFD
1BFEA4
07F000
0BE000
0FD000
1FC000
2F8000
2F4000
3F4000
7F0000
7E0000
BE0000
BE0780
7FBF40
3FFD00
1BE000
ENDCHAR
STARTCHAR Wgrave
ENCODING 7808
SWIDTH 941 0
DWIDTH 30 0
BBX 30 31 2 0
BITMAP
00000001B0000000
00000003F4000000
00000003F8000000
00000001FD000000
000000006F400000
0000000005400000
0000000000000000
06FE000000001B80
2FFF800000003FD0
7FFFD00000002FE0
2E47E00000001FE0
000FE00000000FF0
002FC0006E000FF0
007F8002FF000FE0
00BF400BFC000FE0
01FE002FF4000FE0
02FC00BFE0001FD0
03F802FFC0002FC0
0BF00BFF80002F80
0FE01FBF40007F40
1FD07F7F0000BE00
2F80FCBE0000FD00
3F42F4FD0002F800
7F07D0FD0007F000
BE0F81FC000FD000
BE2F01FC002F8000
BD7D01FC00BE0000
BDF400FC02F80000
7FE000BE5FE00000
3FC0007FFF400000
1F40001BE4000000
ENDCHAR
STARTCHAR wgrave
ENCODING 7809
SWIDTH 750 0
DWIDTH 24 0
BBX 23 25 1 0
BITMAP
000001B40000
000003F80000
000003F40000
000003F40000
000002F80000
000000F80000
0000007D0000
000000090000
000000000000
07F4000007E0
0BFC00680BF4
02FC01FC07F4
02F803F803F8
02F407F402F4
03F00FE002F4
07E02FD003F0
0FD07FC003E0
1FC0FF8007D0
2F42FF400F80
3F07AF001F00
7E1E3F007D00
BD7C3F41F800
FFF02FDBE000
BF801FFF4000
7D0007F80000
ENDCHAR
STARTCHAR Wacute
ENCODING 7810
SWIDTH 941 0
DWIDTH 30 0
BBX 30 32 2 0
BITMAP
0000000000100000
00000000007C0000
0000000000FE0000
0000000001FD0000
0000000007F40000
000000001F900000
0000000015000000
0000000000000000
06FE000000001B80
2FFF800000003FD0
7FFFD00000003FE0
2E47E00000001FE0
000FE00000000FF0
002FD0006E000FF0
007F8001FF000FE0
00BF400BFD000FE0
01FE002FF4000FE0
02FD00BFE0001FD0
03F802FFD0001FC0
0BF407FF80002F80
0FE01FFF40003F40
1FD03F7F00007E00
2FC0BDBE0000FD00
3F41F4FE0002F800
7F03E0FD0003F000
BE0B81FC000BD000
BE1F01FC001F8000
BD3D01FC007E0000
BDB800FC01F80000
7EE000BD07E00000
3FC0007FFF400000
1F40001BE4000000
ENDCHAR
STARTCHAR wacute
ENCODING 7811
SWIDTH 750 0
DWIDTH 24 0
BBX 23 25 1 0
BITMAP
000000078000
0000000BD000
0000000FD000
0000002FC000
0000007F4000
000001FD0000
000003E00000
000001400000
000000000000
07F4000007E0
0BFC00680BF4
02FC01FC07F4
02F803F803F8
02F407F402F4
03F00FE002F4
07E02FD003F0
0FD07FC003E0
1FC0FF8007D0
2F42FF400F80
3F07AF001F00
7E1E3F007D00
BD7C3F41F800
FFF02FDBE000
BF801FFF4000
7D0007F80000
ENDCHAR
STARTCHAR Wdieresis
ENCODING 7812
SWIDTH 941 0
DWIDTH 30 0
BBX 30 31 2 0
BITMAP
0000000540150000
0000001FE07F8000
0000003FE0BFC000
0000002FE0BF8000
0000001F802E0000
0000000000000000
0000000000000000
06FE000000001B80
2FFF800000003FD0
7FFFD00000002FE0
2E47E00000001FE0
000FE00000000FF0
002FC0006E000FF0
007F8002FF000FE0
00BF400BFC000FE0
01FE002FF4000FE0
02FC00BFE0001FD0
03F802FFC0002FC0
0BF00BFF80002F80
0FE01FBF40007F40
1FD07F7F0000BE00
2F80FCBE0000FD00
3F42F4FD0002F800
7F07D0FD0007F000
BE0F81FC000FD000
BE2F01FC002F8000
BD7D01FC00BE0000
BDF400FC02F80000
7FE000BE5FE00000
3FC0007FFF400000
1F40001BE4000000
ENDCHAR
STARTCHAR wdieresis
ENCODING 7813
SWIDTH 750 0
DWIDTH 24 0
BBX 23 24 1 0
BITMAP
00002F40BE00
0000BFC1FF40
0000BFC1FF00
00007F40FE00
000019006400
000000000000
000000000000
000000000000
07F4000007E0
0BFC00680BF4
02FC01FC07F4
02F803F803F8
02F407F402F4
03F00FE002F4
07E02FD003F0
0FD07FC003E0
1FC0FF8007D0
2F42FF400F80
3F07AF001F00
7E1E3F007D00
BD7C3F41F800
FFF02FDBE000
BF801FFF4000
7D0007F80000
ENDCHAR
STARTCHAR Ygrave
ENCODING 7922
SWIDTH 580 0
DWIDTH 19 0
BBX 22 40 0 -9
BITMAP
000000100000
000001F80000
000002FC0000
000001FD0000
0000007F4000
0000000BC000
000000000000
000BE00002D0
000FF80007F0
0007F8000FE0
0003F4001FD0
0007F0003F80
000FE000BF40
001FD000FF00
002FC002FE00
003F4003FD00
00BF000BFC00
00FD001FF400
01FC002FF000
03F8007FE000
07F000FFD000
0BE002FFC000
0FD003EF8000
1FC00BBF4000
3F401E7F0000
3F407DBE0000
7F01F4FD0000
7F47D2F80000
7FFF83F40000
3FFD0BE00000
0BE00FD00000
00002F800000
00007F000000
0000FD000000
0002F8000000
000BF0000000
002FC0000000
00BF00000000
0BF800000000
1F9000000000
ENDCHAR
STARTCHAR ygrave
ENCODING 7923
SWIDTH 549 0
DWIDTH 18 0
BBX 17 34 1 -9
BITMAP
00002E0000
0000BE0000
0000BE0000
0000BE0000
00007E0000
00002F0000
00000F4000
0000024000
0000000000
02F8001F40
07FD003F80
01FD007F00
02FC00FE00
03F802FD00
07F407FC00
0BF00BF800
0FD01FF400
2FC03FF000
3F80BFE000
7F02EFD000
BE0B9FC000
FD2F2F8000
FFFC3F0000
BFF07E0000
2F40BD0000
0000F80000
0002F40000
0007E00000
000FC00000
003F400000
00FE000000
07F8000000
3FD0000000
1900000000
ENDCHAR
STARTCHAR endash
ENCODING 8211
SWIDTH 751 0
DWIDTH 24 0
BBX 19 3 3 8
BITMAP
6FFFFFFFF8
FFFFFFFFF8
FFFFFFFFE0
ENDCHAR
STARTCHAR emdash
ENCODING 8212
SWIDTH 1066 0
DWIDTH 34 0
BBX 29 3 3 8
BITMAP
2FFFFFFFFFFFFF80
BFFFFFFFFFFFFFC0
FFFFFFFFFFFFFF40
ENDCHAR
STARTCHAR quoteleft
ENCODING 8216
SWIDTH 268 0
DWIDTH 9 0
BBX 6 8 4 18
BITMAP
01E0
0BC0
2F40
3E00
7E00
BF00
7F80
2E00
ENDCHAR
STARTCHAR quoteright
ENCODING 8217
SWIDTH 268 0
DWIDTH 9 0
BBX 6 8 4 18
BITMAP
07D0
0FF0
0BF0
07F0
03E0
0BC0
1F40
7800
ENDCHAR
STARTCHAR quotesinglbase
ENCODING 8218
SWIDTH 268 0
DWIDTH 9 0
BBX 6 8 0 -4
BITMAP
0B80
1FD0
0FE0
0BD0
0BC0
0F80
3E00
B400
ENDCHAR
STARTCHAR quotedblleft
ENCODING 8220
SWIDTH 485 0
DWIDTH 16 0
BBX 13 8 4 18
BITMAP
00B40780
07E02E00
0F80BC00
2F02F400
7F03F400
7F43F800
7F83F800
2E02E400
ENDCHAR
STARTCHAR quotedblright
ENCODING 8221
SWIDTH 480 0
DWIDTH 15 0
BBX 13 8 4 18
BITMAP
02F41F40
07F83FC0
03F82FC0
02F41F80
03F02F40
07D07E00
1F41F800
79039000
ENDCHAR
STARTCHAR quotedblbase
ENCODING 8222
SWIDTH 463 0
DWIDTH 15 0
BBX 12 8 0 -4
BITMAP
0B80BD
1FD1FE
0FE0BF
0BD07E
0BC07D
0F80B8
3E02F0
B40780
ENDCHAR
STARTCHAR dagger
ENCODING 8224
SWIDTH 488 0
DWIDTH 16 0
BBX 13 24 3 0
BITMAP
00079000
000FF000
000FF000
001FE000
001FE000
556FE680
BFFFFFC0
2FFFFE00
00BF4000
00BF0000
00FE0000
01FD0000
02FC0000
03F80000
03F00000
07E00000
0BD00000
0FC00000
1F400000
2F000000
3D000000
B8000000
F4000000
D0000000
ENDCHAR
STARTCHAR daggerdbl
ENCODING 8225
SWIDTH 488 0
DWIDTH 16 0
BBX 14 24 2 0
BITMAP
0001E400
0003FC00
0003FC00
0007FC00
0007F800
054BF9A0
2FFFFFF0
06FFFF80
001FD000
002FC000
003F8000
007F4000
00BF0000
10FE6900
BFFFFC00
2BFFE400
02F40000
03F00000
07D00000
0BC00000
0F400000
2E000000
3D000000
34000000
ENDCHAR
STARTCHAR bullet
ENCODING 8226
SWIDTH 437 0
DWIDTH 14 0
BBX 9 8 3 6
BITMAP
06F800
2FFE00
3FFF00
7FFF40
7FFF00
3FFE00
1FF800
015000
ENDCHAR
STARTCHAR ellipsis
ENCODING 8230
SWIDTH 810 0
DWIDTH 26 0
BBX 23 5 0 0
BITMAP
1F800BE007E4
3FE01FF40BFC
7FE02FF40FFC
3FD01FF00BF8
0A40068002A0
ENDCHAR
STARTCHAR perthousand
ENCODING 8240
SWIDTH 1184 0
DWIDTH 38 0
BBX 34 24 2 0
BITMAP
007F80001F00000000
03FFE0007E00000000
0FD2F400FC00000000
2F81F802F400000000
3F42F807E000000000
7E02F40FC000000000
BE03F42F4000000000
BD0BE07E0000000000
7E1FC1FC0000000000
2FFF42F40000000000
0BF807E00000000000
00001FC00000000000
00002F400000000000
00007E01BE4001FE00
0001FC0BEFC00FEF80
0002F42F87E03F4BD0
0007E07F07E0BE07E0
001FC0FD07F0FC0BE0
002F40FC0BE1F80BD0
007E01F80FD2F81FC0
01F801F81FC2F42F80
02F000F83F41F87F00
0BD000BFFD00BFFC00
0B40001FE4002FE000
ENDCHAR
STARTCHAR guilsinglleft
ENCODING 8249
SWIDTH 413 0
DWIDTH 13 0
BBX 10 13 2 3
BITMAP
0000A0
0007D0
006F80
02FD00
1FF400
7F8000
BF0000
3F8000
1FE000
07F400
01FD00
007F00
001500
ENDCHAR
STARTCHAR guilsinglright
ENCODING 8250
SWIDTH 416 0
DWIDTH 13 0
BBX 10 13 2 3
BITMAP
1F4000
1FD000
07F400
02FD00
00BF40
002FC0
001FD0
00BF80
02F900
1FD000
BE0000
E40000
400000
ENDCHAR
STARTCHAR fraction
ENCODING 8260
SWIDTH 580 0
DWIDTH 19 0
BBX 17 26 1 0
BITMAP
0000000140
0000000B80
0000002F40
0000007E00
000000BD00
000001F800
000003F000
00000BD000
00001F8000
00002F4000
00007E0000
0000FC0000
0002F40000
0007E00000
000BD00000
001F800000
003F000000
00BD000000
01F8000000
02F4000000
07E0000000
0FC0000000
2F40000000
7E00000000
BC00000000
F400000000
ENDCHAR
STARTCHAR Euro
ENCODING 8364
SWIDTH 622 0
DWIDTH 20 0
BBX 20 24 2 0
BITMAP
0000006F90
00000BFEF4
00002FD07C
0000FE007D
0003FC00FD
000BF002FC
002FD00BF8
007F801FF0
00BF400BD0
01FE000100
1FFFFF8000
1BFEA90000
07F4000000
07F4000000
0BF0000000
BFFFFD0000
6FFA940000
0BF0000000
0BF0000000
0BF0000000
07F4007800
02FD02F800
00BFBFE000
001BFE4000
ENDCHAR
STARTCHAR trademark
ENCODING 8482
SWIDTH 1084 0
DWIDTH 35 0
BBX 27 14 5 11
BITMAP
01500000100050
2FFFFA82F807F4
BFFFFF4BF81FF0
557D541FF43FF0
00BC003EF47BE0
01F8007AF0F3E0
02F400F6F2D7D0
03F001E2E3CBD0
07E003D3EB4BD0
07D007C3EF0BC0
0BD00F43FD0FC0
0BD02E02F80FD0
07F47C01F40BE0
01905000500190
ENDCHAR
STARTCHAR Omega
ENCODING 8486
SWIDTH 839 0
DWIDTH 27 0
BBX 25 25 1 0
BITMAP
00000150000000
0001BFFF800000
000BFEAFF80000
003FD001FF0000
00FE00002FC000
02FC00000FE000
07F4000007F400
0FF0000003F800
1FE0000002FC00
1FD0000001FD00
2FD0000001FE00
2FD0000001FE00
2FD0000001FE00
2FD0000001FE00
1FE0000002FD00
0FE0000003FC00
0BF0000003F800
07F800000BF400
02FC00000FE000
00BE00002F8000
002F40007F0000
240BC000F80600
7F52E002E17F40
7FFFF80BFFFF40
2FFFF80BFFFE00
ENDCHAR
STARTCHAR partialdiff
ENCODING 8706
SWIDTH 580 0
DWIDTH 19 0
BBX 18 26 1 0
BITMAP
00001BE400
0000BFFD00
0002FD2F40
0007F40F80
0007E00BC0
0003E00BD0
0000400BD0
0000000BD0
0006FE4BD0
002FFFDFD0
01FF91FFC0
03FE007FC0
0BF8007F80
1FF0007F40
3FD000BF00
7FC001FE00
BF4002FD00
FF0003FC00
FE000BF400
FE000FF000
FD002FD000
FD007F8000
BD01FE0000
7E07F80000
2FFFE00000
0BFE400000
ENDCHAR
STARTCHAR Delta
ENCODING 8710
SWIDTH 663 0
DWIDTH 21 0
BBX 21 20 0 0
BITMAP
000001000000
00000B800000
00002FC00000
00007FE00000
0000BBF00000
0001F3F40000
0003D1FC0000
0007C0FD0000
000F407F0000
002E003F4000
003D002F8000
00B8000FD000
01F4000BE000
02E00007F400
07C00002F800
0B800001FC00
1F000000BE00
3D0000007F00
7EAAAAAABF40
7FFFFFFFFD00
ENDCHAR
STARTCHAR product
ENCODING 8719
SWIDTH 667 0
DWIDTH 21 0
BBX 17 28 2 -3
BITMAP
0155555500
1FFFFFFFC0
7F55556FC0
BF00001FC0
BF00001FC0
BF00001FC0
BF00001FC0
BF00001FC0
BF00001FC0
BF00001FC0
BF00001FC0
BF00001FC0
BF00001FC0
BF00001FC0
BF00001FC0
BF00001FC0
BF00001FC0
BF00001FC0
BF00001FC0
BF00001FC0
BF00001FC0
BF00001FC0
BF00001FC0
BF00001FC0
BF00001FC0
BF00001FC0
BE00001F80
6400001900
ENDCHAR
STARTCHAR summation
ENCODING 8721
SWIDTH 677 0
DWIDTH 22 0
BBX 19 28 1 -3
BITMAP
0055555550
07FFFFFFF8
0FFAAAAAA4
0FF4000000
0BFC000000
03FE000000
01FF400000
00BFC00000
003FE00000
001FF40000
000BFD0000
0003FF0000
0001FF8000
00007F8000
00003F8000
0000BE0000
0001FC0000
0007F40000
000FD00000
002F800000
00BE000000
02FC000000
07F0000000
1FD0000000
3F40000000
BFFFFFFFE0
FFFFFFFFE0
7FFFFFFF80
ENDCHAR
STARTCHAR minus
ENCODING 8722
SWIDTH 617 0
DWIDTH 20 0
BBX 16 3 2 10
BITMAP
7FFFFFFE
FFFFFFFE
55555554
ENDCHAR
STARTCHAR radical
ENCODING 8730
SWIDTH 709 0
DWIDTH 23 0
BBX 25 31 1 0
BITMAP
00000000000100
00000000000F00
00000000001F40
00000000003F00
0000000000BF00
0000000000FE00
0000000002FC00
0000000003F800
000000000BF000
000000000FD000
000000002FC000
000000003F4000
00000000BE0000
00000000FC0000
00000002F80000
01A00003F00000
07FC000BD00000
1FFD000FC00000
7FFD002F400000
F8FE003E000000
00BE00BC000000
007F00F8000000
003F02F0000000
003F43D0000000
002F4B80000000
001F9F40000000
001FEE00000000
000FFC00000000
000BF800000000
000BF000000000
0007D000000000
ENDCHAR
STARTCHAR infinity
ENCODING 8734
SWIDTH 681 0
DWIDTH 22 0
BBX 20 10 1 7
BITMAP
0064001540
07FF41BFF4
1FFFD7FFFC
3F82FFF43D
3E00BFD02E
7C00FF402E
7C07FF40BD
3E6FFBE6FC
1FFFD2FFF4
06FE407FD0
ENDCHAR
STARTCHAR integral
ENCODING 8747
SWIDTH 583 0
DWIDTH 19 0
BBX 26 37 -3 -7
BITMAP
0000000001FE00
000000000BFF80
000000002FD2C0
000000007F02D0
00000000FD07D0
00000002F80FD0
00000003F42FC0
0000000BF03F40
0000000FE01900
0000001FD00000
0000002F800000
0000003F800000
0000007F400000
000000BF000000
000000FE000000
000001FD000000
000002FC000000
000003F8000000
000003F4000000
000007F0000000
00000BE0000000
00000FE0000000
00001FD0000000
00002FC0000000
00003F80000000
00007F40000000
0000BF00000000
0500FE00000000
1F81FC00000000
3FC2F800000000
7F43F400000000
BD0BE000000000
B81FD000000000
787F4000000000
3FFE0000000000
1FF40000000000
01400000000000
ENDCHAR
STARTCHAR approxequal
ENCODING 8776
SWIDTH 671 0
DWIDTH 22 0
BBX 18 14 2 4
BITMAP
007F900060
02FFF400B0
0BFFFD02E0
2F42FF9BD0
3D00FFFF40
38002FFD00
1000069000
0069000040
07FF8002C0
1FFFE007C0
7E6FF81F40
B807FFFE00
E001FFF800
90006F9000
ENDCHAR
STARTCHAR notequal
ENCODING 8800
SWIDTH 617 0
DWIDTH 20 0
BBX 17 21 2 1
BITMAP
0000002D00
000000FC00
000002F400
000007E000
00000FC000
00002F4000
3FFFFFFF40
7FFFFFFF00
0002F80000
0003F00000
000BD00000
001F800000
2FFFFFFE00
BFFFFFFF00
15F9555400
02F4000000
07E0000000
0FC0000000
2F40000000
3D00000000
1000000000
ENDCHAR
STARTCHAR lessequal
ENCODING 8804
SWIDTH 704 0
DWIDTH 23 0
BBX 16 21 2 0
BITMAP
0000002E
000002FD
00001FF4
0001FF40
001BF800
00BF9000
0BFD0000
7FE00000
FF400000
6FE40000
07FE0000
007FD000
000BFD00
0000BF80
00001BF8
000001FE
00000019
00000000
15555554
BFFFFFFF
BFFFFFFD
ENDCHAR
STARTCHAR greaterequal
ENCODING 8805
SWIDTH 617 0
DWIDTH 20 0
BBX 16 22 2 0
BITMAP
10000000
FD000000
7FD00000
0BF90000
00BF8000
001FF800
0001FF40
00002FF4
000006FE
000007FE
00006FE4
0002FF40
001FF400
01FF8000
0BF80000
7F900000
F9000000
50000000
00000000
15555554
BFFFFFFE
FFFFFFFD
ENDCHAR
STARTCHAR lozenge
ENCODING 9674
SWIDTH 580 0
DWIDTH 19 0
BBX 16 25 1 0
BITMAP
00004000
0003D000
000BF000
001FF800
002FFD00
007D7E00
00F82F40
02F00FC0
07D007E0
0B8003F4
1F4001F8
3E0000BD
7C00003F
7D00002E
3F00007D
1F8000F8
0BD002F0
03E007D0
02F40BC0
00FC1F40
007E3E00
002FBC00
001FF800
000BF000
0003D000
ENDCHAR
STARTCHAR commaaccent
ENCODING 63171
SWIDTH 250 0
DWIDTH 8 0
BBX 6 7 1 -8
BITMAP
0540
1FD0
1FD0
0FC0
0F80
2E00
B800
ENDCHAR
STARTCHAR ff
ENCODING 64256
SWIDTH 773 0
DWIDTH 25 0
BBX 31 31 -1 -4
BITMAP
0000006A40006A40
000007FFD002FFE0
00000FD3F00BE2F0
00002F82F01F82F4
00003F03F03F43F4
0000BE0BF07F0BF0
0000FD1FD0BE1FE0
0001FC0F80FD0B80
0001F80001FC0000
0002F40002F80000
0003F00003F40000
0007F00003F00000
000BE6AAAFFE9000
005FFFFFFFFFF400
07FFFFFFFFFFF400
0FFF95001FC00000
013F40002F800000
007F40003F400000
007F00007F000000
00BE0000BE000000
00FD0000FD000000
01FC0001FD000000
02F80002FC000000
03F40003F8000000
07F00007F4000000
0BE0000BF0000000
0FD0000FE0000000
2FC0001FC0000000
3F80002F80000000
7F00007F40000000
7D00007D00000000
ENDCHAR
STARTCHAR fi
ENCODING 64257
SWIDTH 623 0
DWIDTH 20 0
BBX 22 30 -1 -4
BITMAP
0000001BF900
000000BFFF80
000002F80BD0
00000BE007E0
00001F8007E0
00003F400BE0
0000BE001FD0
0000FD003FC0
0001F8001A40
0003F4000000
0007F5ABFE00
000BFFFFFF00
00BFFFFFFE00
07FFE500BD00
0BFFC000FC00
012F8001F800
003F4002F400
007F0003F000
00BE0007D000
00FD000FC000
01FC001F8000
02F8002F4000
03F4003F4000
07F0003FF800
0BE0002FF800
0FD0000BE000
2FC000000000
3F4000000000
BF0000000000
B90000000000
ENDCHAR
STARTCHAR fl
ENCODING 64258
SWIDTH 637 0
DWIDTH 20 0
BBX 22 30 -1 -4
BITMAP
0000001BFA00
000001FFFFD0
000007F80BF0
00000FE003F0
00002F8003F0
00007F0007F0
0000BE0007E0
0001FC000BD0
0002F8000FD0
0003F4001FC0
0007F0002F80
000BFF903F40
006FFFF47F00
02FFFFF4BE00
07FF8000FD00
003F4001F800
007F0002F400
00BF0007F000
00BE000BE000
00FD000FD000
01FC000FC000
02F8001FC000
03F4001FC100
07F0001FFE00
0BE0000FFC00
1FD00007E400
2F8000000000
7F4000000000
BE0000000000
B80000000000
ENDCHAR
STARTCHAR .notdef
ENCODING -1
SWIDTH 896 0
DWIDTH 29 0
BBX 31 30 1 -1
BITMAP
0000015555555500
00007FFFFFFFFFF0
0000FFFFFFFFFFF4
0001FFFFFFFFFFF4
0002FFFFFFFFFFF0
0003FFFFFFFFFFE0
0007FFFFFFFFFFD0
000BFFD7FF96FFC0
000FFF03FD01FF80
000FFD07F40BFF40
001FFD03D07FFF40
002FFD0341FFFF00
003FFD0207FFFE00
007FFE001FFFFD00
00BFFF007FFFFC00
00FFFF40FFFFF800
01FFFF40FFFFF400
01FFFE00BFFFF400
02FFFC007FFFF000
03FFF0202FFFE000
07FFC0B00A7FD000
0BFE02F8003FC000
0FFC0BFD00BF8000
1FFEBFFF9BFF4000
2FFFFFFFFFFF0000
3FFFFFFFFFFE0000
3FFFFFFFFFFD0000
7FFFFFFFFFFC0000
2FFFFFFFFFF40000
0555555555400000
ENDCHAR
ENDFONT
